<svg width="118" height="104" viewBox="0 0 118 104" fill="none" xmlns="http://www.w3.org/2000/svg">
<path d="M114.581 92.3987C113.147 91.8603 102.46 88.2991 102.46 88.2991L100.009 84.5666C99.9546 84.5259 99.8921 84.4967 99.8256 84.4809L99.9236 83.4163C100.244 82.9234 100.457 82.3689 100.549 81.7887C100.72 80.7485 100.892 79.6593 101.027 78.717C102.51 78.3744 102.987 75.0457 103.196 73.6751V73.4303C103.24 73.2238 103.222 73.0087 103.143 72.8126C103.064 72.6165 102.929 72.4481 102.755 72.3289C102.48 72.1599 102.154 72.0948 101.835 72.1454C101.835 72.1454 101.835 72.0352 101.835 72.0108C101.958 71.5824 102.755 69.1594 102.926 68.6699C103.189 67.9423 103.189 67.1458 102.926 66.4182C102.583 65.9164 102.779 63.836 102.571 63.1385C102.255 62.3985 101.843 61.7031 101.345 61.0703C101.282 60.9874 101.212 60.9097 101.137 60.8378C101.456 61.0258 101.764 61.2342 102.056 61.4619C101.462 60.6521 100.589 60.09 99.605 59.8832L99.2496 59.4182C98.9187 59.0144 96.8598 56.4567 91.2224 57.607C91.2224 57.607 89.5557 58.0231 88.8326 58.1577C88.8326 58.1577 89.4821 58.1577 90.6096 57.9742C88.5875 58.378 84.8129 59.6385 83.4648 63.4934C83.4033 63.7335 83.3297 63.9704 83.2442 64.2031C83.1339 64.4724 83.477 63.7871 83.8447 63.2731C83.4751 64.5688 83.33 65.918 83.4158 67.2626C83.4158 67.2626 83.6854 70.8115 83.8202 71.7782C83.5377 71.7936 83.2693 71.906 83.0604 72.0964C82.9885 72.1708 82.9329 72.2592 82.897 72.3561C82.8612 72.453 82.8459 72.5562 82.852 72.6594C82.9133 74.0177 83.2932 78.4478 85.9158 78.6069C86.1119 79.8306 86.3325 81.189 86.3448 81.4338C86.3635 81.6415 86.4046 81.8467 86.4673 82.0457V84.7869C86.431 84.7793 86.3934 84.7793 86.357 84.7869C85.6553 86.1491 84.8351 87.4472 83.906 88.6662C83.3545 89.0211 73.0723 91.8847 73.0723 91.8847C70.4374 92.57 69.8369 103.963 69.8369 103.963H91.9822L92.1906 96.3148L90.867 94.9931L93.318 92.4844L95.8304 94.9931L94.6048 96.2169L94.8132 104H118C116.983 92.154 114.581 92.3987 114.581 92.3987ZM101.774 75.4985C101.774 75.1436 101.774 73.3447 101.774 72.4758C101.912 72.4366 102.056 72.4273 102.198 72.4484C102.34 72.4695 102.475 72.5205 102.595 72.5982C102.728 72.6901 102.829 72.8201 102.886 72.9709C102.943 73.1217 102.953 73.2862 102.914 73.4426V73.6873C102.742 74.9111 102.289 78.0439 101.051 78.4845C101.149 77.7869 101.235 77.1751 101.284 76.759L101.358 76.2083C101.473 76.1255 101.569 76.0196 101.641 75.8974C101.713 75.7752 101.758 75.6393 101.774 75.4985ZM83.1216 72.6471C83.1143 72.5788 83.1214 72.5098 83.1425 72.4444C83.1636 72.3791 83.1983 72.3189 83.2442 72.2678C83.4929 72.0879 83.7953 71.9973 84.1021 72.0108C84.3962 72.1454 84.8374 72.4146 84.8619 72.7573C84.9156 73.7369 85.0468 74.7108 85.2541 75.6698C85.3766 75.988 85.5237 76.3918 85.6095 76.6611C85.6095 76.6611 85.732 77.4198 85.8791 78.3009C83.5138 78.1174 83.1707 73.9443 83.1216 72.6471ZM85.8546 76.6611C85.796 75.9607 85.796 75.2566 85.8546 74.5562C85.9526 73.5047 86.1789 72.469 86.5286 71.4723C86.7982 70.995 87.1291 69.9426 86.6879 69.4898C86.2467 69.037 86.7737 67.5563 86.9943 67.1035C86.9943 66.2101 88.5385 64.3622 89.0777 64.6559C89.6169 64.9496 92.2028 66.6017 93.5019 65.9898C93.5019 65.9898 95.2176 67.7031 98.1711 64.7661C98.9432 64.3133 99.7766 64.9863 100.107 66.1C100.438 67.2136 100.99 68.5475 101.002 68.7555C101.014 68.9636 100.892 70.6401 100.892 70.8237C100.892 71.0073 101.284 73.6384 101.358 74.2503C101.359 74.8814 101.31 75.5116 101.21 76.1349L101.137 76.6978C101.002 77.7013 100.72 79.8184 100.389 81.7642C99.9727 84.2117 95.2299 88.0054 94.2004 88.0299C92.4847 88.0299 90.7812 86.4879 89.5434 85.3253C89.1267 84.9337 88.7713 84.6033 88.4527 84.3586C87.5194 83.6187 86.8948 82.5588 86.7002 81.3848C86.5899 80.9565 85.8913 76.8936 85.8546 76.6611ZM93.2077 91.64C92.166 91.1872 87.9135 86.7449 86.7124 85.2886V82.7065C87.0544 83.4509 87.5716 84.1017 88.2198 84.6033C88.5262 84.8358 88.8816 85.1663 89.2983 85.5456C90.5238 86.7694 92.2518 88.3236 94.0411 88.3236H94.1269C95.0705 88.3236 98.0241 86.0596 99.5927 83.8691L99.4212 85.6558C98.0241 88.911 93.2077 91.64 93.2077 91.64Z" fill="url(#paint0_linear_1646_685)"/>
<path d="M67.5956 65.9289C70.1989 65.9289 72.3116 68.0386 72.3116 70.6381C72.3116 73.2376 70.1989 75.3473 67.5956 75.3473C64.9924 75.3473 62.8797 73.2376 62.8797 70.6381C62.8797 68.0386 64.9924 65.9289 67.5956 65.9289ZM53.4477 56.5105C56.9217 56.5105 59.7357 59.3203 59.7357 62.7895C59.7357 66.2587 56.9219 69.0685 53.4477 69.0685C49.9736 69.0685 47.1596 66.2587 47.1596 62.7895C47.1596 59.3203 49.9735 56.5105 53.4477 56.5105ZM25.1518 0C32.559 0 39.4412 3.18975 44.2357 8.79371C47.3169 7.14549 50.7438 6.27899 54.2336 6.27899C65.9356 6.27899 75.4556 15.7853 75.4556 27.4704C75.4556 39.1556 65.9356 48.6618 54.2336 48.6618H54.0513C52.1461 53.4055 47.6218 56.5105 42.4437 56.5105C37.6522 56.5105 33.3041 53.7446 31.2071 49.4969C29.2257 49.9849 27.1925 50.2316 25.1518 50.2315C11.2837 50.2315 -0.000213623 38.964 -0.000213623 25.1157C-0.000213623 11.2674 11.2835 0 25.1518 0Z" fill="url(#paint1_linear_1646_685)"/>
<path d="M4.41455 22.7244C4.41455 20.2453 6.42714 18.2357 8.90979 18.2357H16.7765C19.2591 18.2357 21.2717 20.2454 21.2717 22.7244V30.5798C21.2717 33.0589 19.2591 35.0686 16.7765 35.0686H8.90979C6.42714 35.0686 4.41455 33.0589 4.41455 30.5798V22.7244Z" fill="#0033AD"/>
<path d="M9.79527 26.8862C9.78145 27.1247 9.86377 27.3589 10.0241 27.5373C10.1845 27.7158 10.4098 27.8238 10.6506 27.8377H10.7002C10.8775 27.8375 11.0509 27.7859 11.1989 27.6892C11.347 27.5926 11.4632 27.4551 11.5332 27.2937C11.6033 27.1324 11.6241 26.9542 11.5932 26.7813C11.5622 26.6083 11.4808 26.4482 11.359 26.3205C11.2372 26.1929 11.0804 26.1034 10.9078 26.063C10.7352 26.0226 10.5545 26.0332 10.388 26.0934C10.2214 26.1537 10.0763 26.2609 9.97051 26.4018C9.86474 26.5428 9.80296 26.7114 9.79279 26.8867L9.79527 26.8862Z" fill="white"/>
<path d="M6.40969 26.6582C6.35181 26.655 6.29427 26.6688 6.24434 26.698C6.1944 26.7272 6.15432 26.7704 6.12916 26.8221C6.104 26.8739 6.09488 26.9318 6.10296 26.9887C6.11104 27.0456 6.13596 27.0988 6.17457 27.1416C6.21317 27.1845 6.26373 27.215 6.31986 27.2294C6.37598 27.2438 6.43515 27.2414 6.48989 27.2225C6.54463 27.2035 6.59247 27.169 6.62739 27.1231C6.6623 27.0773 6.68271 27.0222 6.68604 26.9649C6.68832 26.9267 6.68297 26.8885 6.6703 26.8525C6.65763 26.8164 6.63788 26.7831 6.61221 26.7546C6.58653 26.7261 6.55542 26.703 6.52066 26.6864C6.48591 26.6699 6.4482 26.6603 6.40969 26.6582Z" fill="white"/>
<path d="M9.73772 21.6663C9.78927 21.6401 9.83184 21.5993 9.86006 21.5492C9.88829 21.499 9.90091 21.4418 9.89634 21.3845C9.89177 21.3273 9.87021 21.2727 9.83438 21.2276C9.79854 21.1825 9.75003 21.1488 9.69496 21.131C9.63989 21.1131 9.58071 21.1118 9.52487 21.1272C9.46904 21.1425 9.41904 21.1739 9.38118 21.2174C9.34332 21.2609 9.31929 21.3144 9.31211 21.3714C9.30492 21.4284 9.31491 21.4862 9.34082 21.5375C9.35823 21.5719 9.38234 21.6025 9.41175 21.6276C9.44117 21.6527 9.47531 21.6718 9.5122 21.6838C9.5491 21.6958 9.58802 21.7004 9.62672 21.6974C9.66543 21.6944 9.70315 21.6838 9.73772 21.6663Z" fill="white"/>
<path d="M10.659 23.2577C10.7391 23.2177 10.8054 23.1551 10.8495 23.0777C10.8937 23.0004 10.9137 22.9119 10.907 22.8233C10.9003 22.7347 10.8673 22.65 10.8121 22.58C10.7569 22.5101 10.682 22.4578 10.5968 22.43C10.5117 22.4022 10.4201 22.4 10.3337 22.4237C10.2473 22.4475 10.1699 22.496 10.1113 22.5633C10.0528 22.6306 10.0157 22.7136 10.0047 22.8017C9.99378 22.8899 10.0095 22.9793 10.0498 23.0586C10.0766 23.1114 10.1136 23.1583 10.1587 23.1969C10.2038 23.2354 10.2562 23.2647 10.3128 23.2832C10.3693 23.3017 10.4291 23.309 10.4885 23.3046C10.5479 23.3002 10.6058 23.2843 10.659 23.2577Z" fill="white"/>
<path d="M7.55873 24.3522C7.62048 24.3924 7.69289 24.4136 7.7668 24.4131C7.84071 24.4125 7.91279 24.3903 7.97393 24.3491C8.03506 24.308 8.08251 24.2498 8.11025 24.1819C8.138 24.1141 8.1448 24.0396 8.1298 23.9679C8.1148 23.8962 8.07866 23.8305 8.02597 23.7792C7.97328 23.7278 7.9064 23.6931 7.83379 23.6794C7.76118 23.6657 7.68611 23.6737 7.61807 23.7023C7.55003 23.7309 7.49209 23.7789 7.45156 23.8401C7.39729 23.9221 7.37809 24.0221 7.39818 24.1181C7.41828 24.2141 7.47602 24.2983 7.55873 24.3522Z" fill="white"/>
<path d="M8.11092 26.4945C8.02139 26.4895 7.93238 26.5109 7.85513 26.556C7.77788 26.6011 7.71587 26.6679 7.67692 26.7479C7.63797 26.8279 7.62384 26.9176 7.63632 27.0055C7.64879 27.0935 7.68731 27.1758 7.74701 27.2421C7.8067 27.3084 7.8849 27.3556 7.9717 27.3779C8.0585 27.4002 8.15002 27.3964 8.23468 27.3672C8.31935 27.3379 8.39336 27.2845 8.44736 27.2136C8.50137 27.1427 8.53294 27.0575 8.53808 26.9688C8.54485 26.8498 8.50367 26.733 8.42357 26.6441C8.34348 26.5552 8.23102 26.5014 8.11092 26.4945Z" fill="white"/>
<path d="M7.60834 29.5146C7.54241 29.5477 7.48783 29.5993 7.45152 29.663C7.4152 29.7267 7.39878 29.7997 7.40431 29.8727C7.40985 29.9457 7.43711 30.0154 7.48263 30.073C7.52815 30.1306 7.58991 30.1736 7.66008 30.1965C7.73025 30.2193 7.80569 30.2211 7.87687 30.2015C7.94805 30.1819 8.01176 30.1419 8.05996 30.0864C8.10816 30.0309 8.13868 29.9626 8.14766 29.8899C8.15664 29.8173 8.14368 29.7436 8.11042 29.6783C8.08832 29.6349 8.05779 29.5962 8.02059 29.5645C7.98339 29.5328 7.94025 29.5086 7.89362 29.4934C7.84699 29.4782 7.79779 29.4723 7.74884 29.4759C7.69989 29.4795 7.65215 29.4927 7.60834 29.5146Z" fill="white"/>
<path d="M9.37108 25.5661C9.45938 25.6235 9.56286 25.6536 9.66843 25.6526C9.77401 25.6517 9.87693 25.6198 9.96419 25.5609C10.0515 25.5021 10.1191 25.4189 10.1587 25.3219C10.1982 25.2249 10.2078 25.1185 10.1863 25.0161C10.1648 24.9137 10.1132 24.82 10.0379 24.7466C9.96255 24.6733 9.867 24.6238 9.76328 24.6043C9.65955 24.5848 9.55232 24.5962 9.45513 24.637C9.35795 24.6779 9.27518 24.7464 9.21728 24.8338C9.17877 24.8919 9.15219 24.9569 9.13908 25.0252C9.12596 25.0934 9.12656 25.1636 9.14085 25.2316C9.15513 25.2996 9.18282 25.3642 9.22233 25.4216C9.26184 25.479 9.31238 25.5281 9.37108 25.5661Z" fill="white"/>
<path d="M14.9634 23.2223C15.0386 23.2709 15.1267 23.2963 15.2164 23.2953C15.3062 23.2944 15.3936 23.267 15.4677 23.2168C15.5418 23.1666 15.5992 23.0958 15.6327 23.0133C15.6661 22.9308 15.6742 22.8403 15.6557 22.7533C15.6373 22.6662 15.5932 22.5866 15.5291 22.5244C15.4649 22.4621 15.3836 22.4202 15.2954 22.4037C15.2072 22.3873 15.116 22.3971 15.0334 22.432C14.9509 22.4668 14.8806 22.5252 14.8315 22.5996C14.7988 22.649 14.7762 22.7044 14.7652 22.7625C14.7541 22.8206 14.7547 22.8802 14.767 22.9381C14.7792 22.9959 14.8029 23.0508 14.8366 23.0996C14.8703 23.1484 14.9134 23.1901 14.9634 23.2223Z" fill="white"/>
<path d="M15.8942 21.6358C15.9428 21.6674 15.9997 21.684 16.0578 21.6834C16.1159 21.6829 16.1726 21.6653 16.2206 21.6329C16.2686 21.6005 16.3058 21.5547 16.3276 21.5013C16.3493 21.4479 16.3546 21.3894 16.3427 21.333C16.3308 21.2767 16.3023 21.2251 16.2608 21.1848C16.2194 21.1445 16.1667 21.1173 16.1097 21.1066C16.0526 21.0959 15.9935 21.1023 15.9401 21.1248C15.8866 21.1474 15.8411 21.1851 15.8093 21.2333C15.7667 21.2978 15.7518 21.3765 15.7677 21.452C15.7836 21.5274 15.8291 21.5936 15.8942 21.6358Z" fill="white"/>
<path d="M15.0349 26.0301C14.9158 26.0233 14.7966 26.0398 14.6839 26.0787C14.5713 26.1176 14.4675 26.1781 14.3785 26.2567C14.1987 26.4154 14.0899 26.6384 14.0761 26.8767C14.0623 27.1149 14.1446 27.3488 14.3048 27.5269C14.4651 27.705 14.6902 27.8127 14.9307 27.8264C14.9481 27.8264 14.9659 27.8264 14.9833 27.8264C15.1584 27.8263 15.3299 27.7761 15.4768 27.6816C15.6238 27.5872 15.7401 27.4527 15.8116 27.2943C15.8831 27.1359 15.9069 26.9604 15.88 26.7889C15.8531 26.6175 15.7767 26.4574 15.66 26.3279C15.581 26.2397 15.485 26.1679 15.3777 26.1167C15.2703 26.0656 15.1538 26.0361 15.0349 26.0301Z" fill="white"/>
<path d="M10.9572 25.5037C11.0326 25.6529 11.1485 25.7783 11.2919 25.8657C11.4353 25.9531 11.6005 25.9992 11.7689 25.9986C11.9241 25.9987 12.0768 25.9593 12.2123 25.8843C12.3478 25.8092 12.4616 25.701 12.5429 25.57C12.6242 25.439 12.6703 25.2895 12.6767 25.1359C12.6831 24.9822 12.6497 24.8295 12.5795 24.6923C12.5036 24.5438 12.3875 24.4192 12.2442 24.3324C12.1008 24.2456 11.9359 24.2 11.7679 24.2008C11.6131 24.2011 11.461 24.2405 11.3259 24.3154C11.1908 24.3902 11.0773 24.498 10.9961 24.6285C10.9149 24.7591 10.8687 24.908 10.8619 25.0611C10.8551 25.2143 10.8879 25.3666 10.9572 25.5037Z" fill="white"/>
<path d="M18.0766 24.3512C18.1426 24.3183 18.1972 24.2667 18.2335 24.203C18.2699 24.1393 18.2864 24.0663 18.2809 23.9934C18.2754 23.9204 18.2482 23.8507 18.2027 23.793C18.1573 23.7353 18.0956 23.6923 18.0254 23.6694C17.9553 23.6465 17.8798 23.6446 17.8086 23.6642C17.7375 23.6837 17.6737 23.7237 17.6255 23.7791C17.5772 23.8345 17.5466 23.9028 17.5376 23.9754C17.5285 24.048 17.5414 24.1217 17.5746 24.1871C17.6192 24.2747 17.6972 24.3413 17.7913 24.3721C17.8854 24.4028 17.9881 24.3953 18.0766 24.3512Z" fill="white"/>
<path d="M15.7741 24.6377C15.6798 24.6848 15.6017 24.7585 15.5497 24.8495C15.4977 24.9405 15.4741 25.0448 15.4819 25.1491C15.4896 25.2534 15.5285 25.3531 15.5935 25.4355C15.6584 25.5179 15.7466 25.5794 15.8469 25.6122C15.9472 25.645 16.055 25.6476 16.1567 25.6197C16.2585 25.5918 16.3496 25.5346 16.4185 25.4554C16.4875 25.3762 16.5312 25.2785 16.5441 25.1747C16.557 25.0709 16.5385 24.9656 16.491 24.8722C16.4595 24.8101 16.416 24.7548 16.3629 24.7094C16.3098 24.664 16.2482 24.6295 16.1816 24.6077C16.115 24.5859 16.0448 24.5774 15.9748 24.5825C15.9049 24.5877 15.8367 24.6064 15.7741 24.6377Z" fill="white"/>
<path d="M12.8083 21.5002C12.882 21.5043 12.9554 21.4867 13.0191 21.4496C13.0828 21.4124 13.1339 21.3574 13.166 21.2915C13.1981 21.2255 13.2097 21.1516 13.1994 21.0791C13.1891 21.0067 13.1574 20.9388 13.1082 20.8842C13.0589 20.8296 12.9945 20.7907 12.9229 20.7724C12.8514 20.7541 12.7759 20.7572 12.7062 20.7814C12.6364 20.8055 12.5755 20.8496 12.531 20.9081C12.4866 20.9666 12.4606 21.0369 12.4565 21.11C12.4509 21.2079 12.4849 21.304 12.5508 21.3772C12.6168 21.4504 12.7094 21.4946 12.8083 21.5002Z" fill="white"/>
<path d="M12.8043 23.8293C12.9097 23.8351 13.0144 23.8099 13.1054 23.7568C13.1963 23.7037 13.2693 23.625 13.3151 23.5308C13.3609 23.4366 13.3775 23.3311 13.3628 23.2276C13.3481 23.124 13.3027 23.0271 13.2324 22.9491C13.1621 22.8711 13.0701 22.8155 12.9679 22.7893C12.8657 22.7631 12.758 22.7675 12.6583 22.802C12.5587 22.8364 12.4715 22.8993 12.408 22.9828C12.3444 23.0663 12.3073 23.1666 12.3012 23.271C12.2932 23.4111 12.3417 23.5486 12.4361 23.6533C12.5304 23.758 12.6628 23.8213 12.8043 23.8293Z" fill="white"/>
<path d="M9.91186 29.2276C10.0061 29.1805 10.0842 29.1068 10.1362 29.0158C10.1882 28.9247 10.2117 28.8204 10.2039 28.7161C10.196 28.6118 10.1571 28.5121 10.0921 28.4297C10.0271 28.3473 9.93885 28.2859 9.83856 28.2531C9.73827 28.2204 9.63043 28.2179 9.52869 28.2459C9.42695 28.2739 9.33587 28.3311 9.26698 28.4104C9.19809 28.4897 9.15447 28.5874 9.14165 28.6912C9.12883 28.795 9.14738 28.9003 9.19496 28.9937C9.25873 29.1189 9.37007 29.2138 9.50451 29.2577C9.63895 29.3016 9.78547 29.2907 9.91186 29.2276Z" fill="white"/>
<path d="M13.1491 24.6009C13.0384 24.7683 12.9872 24.9674 13.0036 25.1669C13.02 25.3663 13.1031 25.5547 13.2397 25.7021C13.3763 25.8495 13.5587 25.9476 13.7579 25.9808C13.9571 26.014 14.1618 25.9804 14.3396 25.8854C14.5173 25.7904 14.6581 25.6394 14.7395 25.4562C14.8208 25.273 14.8382 25.0682 14.7889 24.8742C14.7396 24.6801 14.6263 24.5079 14.4671 24.3848C14.3078 24.2617 14.1117 24.1947 13.9097 24.1944C13.7588 24.1943 13.6103 24.2314 13.4775 24.3024C13.3447 24.3733 13.2319 24.4759 13.1491 24.6009Z" fill="white"/>
<path d="M14.7278 28.3621C14.655 28.2192 14.5451 28.0982 14.4094 28.0114C14.2736 27.9246 14.117 27.8753 13.9556 27.8685C13.7942 27.8617 13.6339 27.8977 13.4912 27.9728C13.3485 28.0479 13.2287 28.1593 13.144 28.2956C13.0593 28.4319 13.0128 28.588 13.0094 28.748C13.006 28.908 13.0457 29.066 13.1245 29.2058C13.2033 29.3455 13.3183 29.4618 13.4576 29.5428C13.5969 29.6238 13.7556 29.6665 13.9171 29.6665C14.0592 29.6655 14.1992 29.6319 14.3259 29.5682C14.5403 29.4607 14.703 29.2734 14.7783 29.0474C14.8536 28.8213 14.8354 28.5749 14.7278 28.3621Z" fill="white"/>
<path d="M16.3144 28.2992C16.2261 28.2418 16.1227 28.2116 16.0171 28.2125C15.9115 28.2134 15.8086 28.2452 15.7212 28.304C15.6339 28.3628 15.5662 28.446 15.5266 28.5429C15.487 28.6399 15.4773 28.7463 15.4987 28.8487C15.5202 28.9511 15.5718 29.0449 15.647 29.1183C15.7223 29.1916 15.8178 29.2412 15.9215 29.2608C16.0253 29.2804 16.1325 29.269 16.2297 29.2282C16.3269 29.1874 16.4097 29.119 16.4677 29.0315C16.5451 28.9142 16.5725 28.7713 16.5437 28.634C16.515 28.4968 16.4325 28.3764 16.3144 28.2992Z" fill="white"/>
<path d="M18.0528 26.9482C18.0579 26.8595 18.0363 26.7713 17.9907 26.6948C17.9452 26.6183 17.8778 26.5568 17.797 26.5182C17.7163 26.4797 17.6258 26.4657 17.537 26.478C17.4482 26.4904 17.3651 26.5285 17.2982 26.5877C17.2313 26.6468 17.1836 26.7243 17.1611 26.8103C17.1386 26.8962 17.1424 26.9869 17.1719 27.0708C17.2014 27.1546 17.2554 27.228 17.327 27.2815C17.3986 27.335 17.4845 27.3662 17.5741 27.3713C17.6942 27.378 17.8121 27.3372 17.9018 27.2579C17.9916 27.1785 18.0459 27.0671 18.0528 26.9482Z" fill="white"/>
<path d="M19.309 26.6282C19.251 26.6249 19.1933 26.6387 19.1433 26.6679C19.0932 26.6971 19.053 26.7403 19.0277 26.7921C19.0024 26.8439 18.9932 26.902 19.0013 26.959C19.0093 27.016 19.0342 27.0693 19.0729 27.1123C19.1115 27.1552 19.1622 27.1859 19.2184 27.2003C19.2746 27.2148 19.3339 27.2124 19.3888 27.1934C19.4436 27.1745 19.4916 27.1399 19.5266 27.094C19.5616 27.048 19.582 26.9928 19.5854 26.9354C19.5897 26.8584 19.563 26.7828 19.5112 26.7252C19.4595 26.6677 19.3867 26.6328 19.309 26.6282Z" fill="white"/>
<path d="M18.1262 29.5132C18.0644 29.4731 17.992 29.452 17.9182 29.4527C17.8443 29.4534 17.7723 29.4757 17.7112 29.5169C17.6502 29.5581 17.6028 29.6163 17.5752 29.6842C17.5475 29.752 17.5408 29.8265 17.5558 29.8981C17.5709 29.9698 17.607 30.0354 17.6597 30.0867C17.7124 30.138 17.7792 30.1727 17.8518 30.1863C17.9244 30.2 17.9994 30.192 18.0674 30.1634C18.1354 30.1349 18.1934 30.087 18.2339 30.0258C18.2608 29.9851 18.2794 29.9396 18.2886 29.8918C18.2977 29.8441 18.2973 29.795 18.2873 29.7474C18.2773 29.6998 18.2579 29.6546 18.2303 29.6144C18.2027 29.5742 18.1673 29.5398 18.1262 29.5132Z" fill="white"/>
<path d="M9.7913 32.2295C9.74274 32.198 9.68582 32.1814 9.62774 32.1819C9.56966 32.1823 9.51302 32.1999 9.46499 32.2322C9.41697 32.2646 9.3797 32.3103 9.35791 32.3636C9.33612 32.417 9.33078 32.4755 9.34257 32.5319C9.35437 32.5882 9.38276 32.6398 9.42415 32.6802C9.46555 32.7205 9.5181 32.7478 9.57516 32.7586C9.63221 32.7694 9.69121 32.7632 9.7447 32.7407C9.79818 32.7183 9.84375 32.6806 9.87564 32.6326C9.89683 32.6006 9.91145 32.5648 9.91868 32.5273C9.9259 32.4897 9.92559 32.4512 9.91776 32.4137C9.90993 32.3763 9.89473 32.3408 9.87303 32.3092C9.85133 32.2776 9.82356 32.2505 9.7913 32.2295Z" fill="white"/>
<path d="M15.9473 32.1991C15.8954 32.225 15.8524 32.2655 15.8238 32.3156C15.7952 32.3657 15.7822 32.4231 15.7865 32.4805C15.7909 32.5379 15.8123 32.5927 15.848 32.638C15.8838 32.6834 15.9323 32.7172 15.9875 32.7352C16.0427 32.7532 16.102 32.7546 16.158 32.7392C16.214 32.7238 16.2641 32.6924 16.302 32.6488C16.3399 32.6051 16.3639 32.5514 16.371 32.4943C16.378 32.4371 16.3678 32.3792 16.3417 32.3278C16.3244 32.2937 16.3004 32.2633 16.2712 32.2383C16.242 32.2133 16.2081 32.1943 16.1714 32.1824C16.1348 32.1704 16.0961 32.1657 16.0577 32.1686C16.0192 32.1715 15.9817 32.1818 15.9473 32.1991Z" fill="white"/>
<path d="M12.5359 29.263C12.6466 29.0956 12.6978 28.8964 12.6814 28.6969C12.665 28.4975 12.5818 28.3091 12.4452 28.1617C12.3085 28.0143 12.1262 27.9163 11.9269 27.8831C11.7277 27.8499 11.523 27.8835 11.3452 27.9786C11.1674 28.0737 11.0267 28.2248 10.9454 28.408C10.8641 28.5912 10.8467 28.796 10.8961 28.9901C10.9456 29.1841 11.0589 29.3563 11.2182 29.4794C11.3776 29.6024 11.5738 29.6693 11.7758 29.6695C11.9267 29.67 12.0753 29.633 12.2081 29.562C12.3408 29.491 12.4535 29.3882 12.5359 29.263Z" fill="white"/>
<path d="M10.7215 30.6436C10.6465 30.5949 10.5586 30.5694 10.4689 30.5703C10.3793 30.5711 10.2919 30.5983 10.2178 30.6484C10.1437 30.6984 10.0863 30.7691 10.0527 30.8515C10.0192 30.9338 10.0111 31.0242 10.0294 31.1112C10.0477 31.1981 10.0916 31.2778 10.1556 31.34C10.2196 31.4022 10.3007 31.4443 10.3888 31.4608C10.4769 31.4774 10.568 31.4677 10.6505 31.4329C10.7331 31.3982 10.8034 31.34 10.8525 31.2658C10.9184 31.166 10.9416 31.0445 10.917 30.9278C10.8924 30.8111 10.8221 30.7089 10.7215 30.6436Z" fill="white"/>
<path d="M12.8385 32.3652C12.7648 32.361 12.6914 32.3786 12.6277 32.4158C12.5641 32.4529 12.513 32.5079 12.4809 32.5738C12.4487 32.6397 12.4371 32.7136 12.4473 32.7861C12.4576 32.8585 12.4893 32.9264 12.5385 32.981C12.5877 33.0356 12.6521 33.0746 12.7236 33.0929C12.7951 33.1113 12.8705 33.1082 12.9403 33.0841C13.01 33.06 13.071 33.016 13.1155 32.9576C13.16 32.8992 13.186 32.829 13.1903 32.7559C13.1931 32.7074 13.1862 32.6588 13.1701 32.6129C13.1539 32.5669 13.1288 32.5246 13.0961 32.4884C13.0634 32.4521 13.0239 32.4225 12.9797 32.4014C12.9355 32.3802 12.8875 32.3679 12.8385 32.3652Z" fill="white"/>
<path d="M12.8425 30.0366C12.737 30.0302 12.632 30.055 12.5408 30.1079C12.4495 30.1607 12.3762 30.2391 12.33 30.3333C12.2838 30.4274 12.2668 30.533 12.2813 30.6367C12.2957 30.7404 12.3409 30.8376 12.4111 30.9158C12.4813 30.994 12.5734 31.0499 12.6757 31.0762C12.7779 31.1026 12.8858 31.0983 12.9856 31.0639C13.0854 31.0295 13.1727 30.9665 13.2363 30.8829C13.2999 30.7993 13.3371 30.6989 13.3431 30.5944C13.3512 30.4547 13.3031 30.3175 13.2092 30.2129C13.1154 30.1084 12.9835 30.0449 12.8425 30.0366Z" fill="white"/>
<path d="M15.0259 30.6077C14.9458 30.6479 14.8796 30.7108 14.8356 30.7884C14.7916 30.866 14.7718 30.9548 14.7788 31.0435C14.7857 31.1322 14.8191 31.2169 14.8746 31.2868C14.9302 31.3568 15.0054 31.4088 15.0909 31.4363C15.1763 31.4639 15.268 31.4657 15.3545 31.4415C15.441 31.4174 15.5182 31.3684 15.5766 31.3007C15.6349 31.2331 15.6717 31.1498 15.6822 31.0614C15.6927 30.973 15.6765 30.8835 15.6357 30.8043C15.6087 30.7517 15.5716 30.7048 15.5263 30.6665C15.4811 30.6281 15.4286 30.599 15.372 30.5807C15.3153 30.5624 15.2556 30.5554 15.1962 30.5601C15.1369 30.5647 15.079 30.5809 15.0259 30.6077Z" fill="white"/>
<path d="M26.0884 20.244L28.3424 15.1941H29.4983L31.7596 20.244H30.5314L28.682 15.7857H29.1443L27.2876 20.244H26.0884ZM27.2154 19.1619L27.5261 18.2745H30.1269L30.4447 19.1619H27.2154Z" fill="white"/>
<path d="M32.2843 20.244V15.1941H34.5817C35.1307 15.1941 35.6148 15.2999 36.0338 15.5115C36.4528 15.7183 36.7803 16.0093 37.0163 16.3844C37.2523 16.7596 37.3703 17.2044 37.3703 17.719C37.3703 18.2288 37.2523 18.6737 37.0163 19.0536C36.7803 19.4288 36.4528 19.7221 36.0338 19.9338C35.6148 20.1406 35.1307 20.244 34.5817 20.244H32.2843ZM33.4547 19.2845H34.5239C34.861 19.2845 35.1524 19.222 35.398 19.0969C35.6485 18.9671 35.8411 18.7843 35.976 18.5487C36.1157 18.313 36.1855 18.0365 36.1855 17.719C36.1855 17.3968 36.1157 17.1203 35.976 16.8894C35.8411 16.6537 35.6485 16.4734 35.398 16.3484C35.1524 16.2185 34.861 16.1536 34.5239 16.1536H33.4547V19.2845Z" fill="white"/>
<path d="M37.5177 20.244L39.7718 15.1941H40.9277L43.189 20.244H41.9608L40.1113 15.7857H40.5737L38.717 20.244H37.5177ZM38.6448 19.1619L38.9554 18.2745H41.5562L41.8741 19.1619H38.6448Z" fill="white"/>
<path d="M45.6802 20.244V16.3628H46.8072V20.244H45.6802ZM46.2437 15.8217C46.0366 15.8217 45.868 15.7616 45.738 15.6414C45.6079 15.5211 45.5429 15.372 45.5429 15.1941C45.5429 15.0161 45.6079 14.8671 45.738 14.7468C45.868 14.6266 46.0366 14.5665 46.2437 14.5665C46.4508 14.5665 46.6194 14.6242 46.7494 14.7396C46.8794 14.8502 46.9445 14.9945 46.9445 15.1725C46.9445 15.36 46.8794 15.5163 46.7494 15.6414C46.6242 15.7616 46.4556 15.8217 46.2437 15.8217Z" fill="white"/>
<path d="M49.1608 20.3017C48.8285 20.3017 48.5082 20.2632 48.1999 20.1863C47.8965 20.1045 47.6557 20.0035 47.4775 19.8833L47.8532 19.0753C48.0314 19.1859 48.2409 19.2773 48.4817 19.3494C48.7273 19.4167 48.9682 19.4504 49.2042 19.4504C49.4642 19.4504 49.6473 19.4192 49.7532 19.3566C49.864 19.2941 49.9194 19.2075 49.9194 19.0969C49.9194 19.0055 49.876 18.9382 49.7893 18.8949C49.7075 18.8468 49.5967 18.8108 49.457 18.7867C49.3173 18.7627 49.1632 18.7386 48.9946 18.7146C48.8309 18.6905 48.6647 18.6593 48.4962 18.6208C48.3276 18.5775 48.1735 18.515 48.0338 18.4332C47.8941 18.3515 47.7809 18.2409 47.6942 18.1014C47.6124 17.9619 47.5714 17.7816 47.5714 17.5603C47.5714 17.315 47.6413 17.0986 47.7809 16.9111C47.9254 16.7235 48.1325 16.5768 48.4022 16.471C48.6719 16.3604 48.9946 16.3051 49.3703 16.3051C49.6352 16.3051 49.9049 16.3339 50.1795 16.3916C50.454 16.4493 50.6828 16.5335 50.8658 16.6441L50.4901 17.4449C50.3023 17.3343 50.112 17.2597 49.9194 17.2213C49.7315 17.178 49.5485 17.1563 49.3703 17.1563C49.1199 17.1563 48.9368 17.19 48.8213 17.2573C48.7057 17.3247 48.6479 17.4112 48.6479 17.517C48.6479 17.6132 48.6888 17.6854 48.7707 17.7335C48.8574 17.7816 48.9706 17.82 49.1102 17.8489C49.2499 17.8777 49.4016 17.9042 49.5654 17.9282C49.7339 17.9475 49.9025 17.9787 50.0711 18.022C50.2397 18.0653 50.3914 18.1278 50.5262 18.2096C50.6659 18.2865 50.7791 18.3948 50.8658 18.5342C50.9525 18.6689 50.9958 18.8468 50.9958 19.0681C50.9958 19.3085 50.9236 19.5226 50.7791 19.7101C50.6346 19.8929 50.4251 20.0372 50.1506 20.143C49.8808 20.2488 49.5509 20.3017 49.1608 20.3017Z" fill="white"/>
<path d="M28.263 29.5197C27.8054 29.5197 27.449 29.4043 27.1937 29.1734C26.9385 28.9378 26.8108 28.5891 26.8108 28.1274V24.7223H27.9378V28.113C27.9378 28.2765 27.9812 28.4039 28.0679 28.4953C28.1546 28.5819 28.2726 28.6252 28.4219 28.6252C28.6001 28.6252 28.7518 28.5771 28.877 28.4809L29.1805 29.2744C29.0649 29.3562 28.9252 29.4187 28.7614 29.462C28.6025 29.5005 28.4363 29.5197 28.263 29.5197ZM26.2112 26.5331V25.6674H28.9059V26.5331H26.2112Z" fill="white"/>
<path d="M31.5426 29.5197C31.1284 29.5197 30.76 29.4331 30.4373 29.26C30.1194 29.0869 29.8666 28.8512 29.6787 28.553C29.4957 28.25 29.4042 27.9061 29.4042 27.5214C29.4042 27.1318 29.4957 26.788 29.6787 26.4898C29.8666 26.1868 30.1194 25.9511 30.4373 25.7828C30.76 25.6097 31.1284 25.5231 31.5426 25.5231C31.952 25.5231 32.3181 25.6097 32.6408 25.7828C32.9635 25.9511 33.2163 26.1844 33.3993 26.4826C33.5824 26.7807 33.6739 27.127 33.6739 27.5214C33.6739 27.9061 33.5824 28.25 33.3993 28.553C33.2163 28.8512 32.9635 29.0869 32.6408 29.26C32.3181 29.4331 31.952 29.5197 31.5426 29.5197ZM31.5426 28.5963C31.7305 28.5963 31.8991 28.553 32.0484 28.4664C32.1977 28.3799 32.3157 28.2572 32.4024 28.0985C32.4891 27.935 32.5324 27.7426 32.5324 27.5214C32.5324 27.2954 32.4891 27.103 32.4024 26.9443C32.3157 26.7856 32.1977 26.6629 32.0484 26.5763C31.8991 26.4898 31.7305 26.4465 31.5426 26.4465C31.3548 26.4465 31.1862 26.4898 31.0369 26.5763C30.8876 26.6629 30.7672 26.7856 30.6757 26.9443C30.589 27.103 30.5457 27.2954 30.5457 27.5214C30.5457 27.7426 30.589 27.935 30.6757 28.0985C30.7672 28.2572 30.8876 28.3799 31.0369 28.4664C31.1862 28.553 31.3548 28.5963 31.5426 28.5963Z" fill="white"/>
<path d="M39.4049 25.5231C39.7131 25.5231 39.9852 25.5856 40.2212 25.7107C40.462 25.8309 40.6499 26.0185 40.7847 26.2734C40.9244 26.5234 40.9943 26.8457 40.9943 27.24V29.462H39.8672V27.4132C39.8672 27.1006 39.8022 26.8697 39.6722 26.7206C39.5421 26.5715 39.3591 26.497 39.1231 26.497C38.9594 26.497 38.8125 26.5355 38.6824 26.6124C38.5524 26.6846 38.4512 26.7952 38.379 26.9443C38.3067 27.0934 38.2706 27.2833 38.2706 27.5142V29.462H37.1436V27.4132C37.1436 27.1006 37.0786 26.8697 36.9485 26.7206C36.8233 26.5715 36.6427 26.497 36.4067 26.497C36.2429 26.497 36.096 26.5355 35.966 26.6124C35.836 26.6846 35.7348 26.7952 35.6626 26.9443C35.5903 27.0934 35.5542 27.2833 35.5542 27.5142V29.462H34.4272V25.5808H35.5036V26.6413L35.3014 26.3311C35.4362 26.0666 35.6265 25.867 35.8721 25.7323C36.1225 25.5928 36.4067 25.5231 36.7246 25.5231C37.081 25.5231 37.3916 25.6145 37.6565 25.7972C37.9263 25.9752 38.1045 26.2493 38.1912 26.6196L37.7938 26.5114C37.9238 26.2084 38.1309 25.968 38.4151 25.79C38.7041 25.6121 39.034 25.5231 39.4049 25.5231Z" fill="white"/>
<path d="M43.8821 29.5197C43.4679 29.5197 43.0995 29.4331 42.7768 29.26C42.4589 29.0869 42.206 28.8512 42.0182 28.553C41.8352 28.25 41.7437 27.9061 41.7437 27.5214C41.7437 27.1318 41.8352 26.788 42.0182 26.4898C42.206 26.1868 42.4589 25.9511 42.7768 25.7828C43.0995 25.6097 43.4679 25.5231 43.8821 25.5231C44.2915 25.5231 44.6576 25.6097 44.9803 25.7828C45.3029 25.9511 45.5558 26.1844 45.7388 26.4826C45.9218 26.7807 46.0134 27.127 46.0134 27.5214C46.0134 27.9061 45.9218 28.25 45.7388 28.553C45.5558 28.8512 45.3029 29.0869 44.9803 29.26C44.6576 29.4331 44.2915 29.5197 43.8821 29.5197ZM43.8821 28.5963C44.07 28.5963 44.2385 28.553 44.3878 28.4664C44.5372 28.3799 44.6552 28.2572 44.7418 28.0985C44.8285 27.935 44.8719 27.7426 44.8719 27.5214C44.8719 27.2954 44.8285 27.103 44.7418 26.9443C44.6552 26.7856 44.5372 26.6629 44.3878 26.5763C44.2385 26.4898 44.07 26.4465 43.8821 26.4465C43.6943 26.4465 43.5257 26.4898 43.3764 26.5763C43.2271 26.6629 43.1067 26.7856 43.0152 26.9443C42.9285 27.103 42.8852 27.2954 42.8852 27.5214C42.8852 27.7426 42.9285 27.935 43.0152 28.0985C43.1067 28.2572 43.2271 28.3799 43.3764 28.4664C43.5257 28.553 43.6943 28.5963 43.8821 28.5963Z" fill="white"/>
<path d="M46.7667 29.462V25.5808H47.8431V26.6773L47.6914 26.3599C47.807 26.0858 47.9924 25.879 48.2477 25.7395C48.503 25.5952 48.8136 25.5231 49.1797 25.5231V26.5619C49.1315 26.5571 49.0881 26.5547 49.0496 26.5547C49.0111 26.5499 48.9701 26.5475 48.9268 26.5475C48.6186 26.5475 48.3681 26.6365 48.1755 26.8144C47.9876 26.9876 47.8937 27.2593 47.8937 27.6296V29.462H46.7667Z" fill="white"/>
<path d="M49.8568 29.462V25.5808H50.9333V26.6773L50.7816 26.3599C50.8972 26.0858 51.0826 25.879 51.3379 25.7395C51.5931 25.5952 51.9038 25.5231 52.2698 25.5231V26.5619C52.2217 26.5571 52.1783 26.5547 52.1398 26.5547C52.1013 26.5499 52.0603 26.5475 52.017 26.5475C51.7087 26.5475 51.4583 26.6365 51.2656 26.8144C51.0778 26.9876 50.9839 27.2593 50.9839 27.6296V29.462H49.8568Z" fill="white"/>
<path d="M54.7612 29.5197C54.347 29.5197 53.9785 29.4331 53.6559 29.26C53.338 29.0869 53.0851 28.8512 52.8973 28.553C52.7143 28.25 52.6227 27.9061 52.6227 27.5214C52.6227 27.1318 52.7143 26.788 52.8973 26.4898C53.0851 26.1868 53.338 25.9511 53.6559 25.7828C53.9785 25.6097 54.347 25.5231 54.7612 25.5231C55.1706 25.5231 55.5366 25.6097 55.8593 25.7828C56.182 25.9511 56.4349 26.1844 56.6179 26.4826C56.8009 26.7807 56.8924 27.127 56.8924 27.5214C56.8924 27.9061 56.8009 28.25 56.6179 28.553C56.4349 28.8512 56.182 29.0869 55.8593 29.26C55.5366 29.4331 55.1706 29.5197 54.7612 29.5197ZM54.7612 28.5963C54.949 28.5963 55.1176 28.553 55.2669 28.4664C55.4162 28.3799 55.5342 28.2572 55.6209 28.0985C55.7076 27.935 55.751 27.7426 55.751 27.5214C55.751 27.2954 55.7076 27.103 55.6209 26.9443C55.5342 26.7856 55.4162 26.6629 55.2669 26.5763C55.1176 26.4898 54.949 26.4465 54.7612 26.4465C54.5734 26.4465 54.4048 26.4898 54.2555 26.5763C54.1062 26.6629 53.9858 26.7856 53.8943 26.9443C53.8076 27.103 53.7642 27.2954 53.7642 27.5214C53.7642 27.7426 53.8076 27.935 53.8943 28.0985C53.9858 28.2572 54.1062 28.3799 54.2555 28.4664C54.4048 28.553 54.5734 28.5963 54.7612 28.5963Z" fill="white"/>
<path d="M58.4285 29.462L57.027 25.5808H58.089L59.2521 28.9209H58.7464L59.9601 25.5808H60.9138L62.0913 28.9209H61.5856L62.7849 25.5808H63.7819L62.3731 29.462H61.2822L60.2491 26.598H60.5814L59.5122 29.462H58.4285Z" fill="white"/>
<path d="M64.2119 26.4609L64.1397 24.4121H65.1005L65.021 26.4609H64.2119Z" fill="white"/>
<path d="M67.2785 29.5197C66.9461 29.5197 66.6259 29.4812 66.3176 29.4043C66.0142 29.3225 65.7734 29.2215 65.5952 29.1013L65.9708 28.2933C66.149 28.4039 66.3586 28.4953 66.5994 28.5674C66.845 28.6348 67.0858 28.6684 67.3218 28.6684C67.5819 28.6684 67.7649 28.6372 67.8709 28.5747C67.9817 28.5121 68.037 28.4256 68.037 28.3149C68.037 28.2236 67.9937 28.1562 67.907 28.113C67.8251 28.0649 67.7144 28.0288 67.5747 28.0047C67.435 27.9807 67.2809 27.9566 67.1123 27.9326C66.9486 27.9086 66.7824 27.8773 66.6138 27.8388C66.4453 27.7955 66.2911 27.733 66.1515 27.6512C66.0118 27.5695 65.8986 27.4589 65.8119 27.3194C65.73 27.1799 65.6891 26.9996 65.6891 26.7783C65.6891 26.5331 65.7589 26.3166 65.8986 26.1291C66.0431 25.9415 66.2502 25.7948 66.5199 25.689C66.7896 25.5784 67.1123 25.5231 67.488 25.5231C67.7529 25.5231 68.0226 25.5519 68.2971 25.6097C68.5717 25.6674 68.8004 25.7515 68.9835 25.8622L68.6078 26.6629C68.4199 26.5523 68.2297 26.4778 68.037 26.4393C67.8492 26.396 67.6662 26.3744 67.488 26.3744C67.2375 26.3744 67.0545 26.408 66.9389 26.4753C66.8233 26.5427 66.7655 26.6293 66.7655 26.7351C66.7655 26.8312 66.8065 26.9034 66.8884 26.9515C66.975 26.9996 67.0882 27.038 67.2279 27.0669C67.3676 27.0958 67.5193 27.1222 67.683 27.1463C67.8516 27.1655 68.0202 27.1968 68.1888 27.24C68.3573 27.2833 68.509 27.3459 68.6439 27.4276C68.7836 27.5046 68.8968 27.6128 68.9835 27.7522C69.0701 27.8869 69.1135 28.0649 69.1135 28.2861C69.1135 28.5266 69.0413 28.7406 68.8968 28.9281C68.7523 29.1109 68.5428 29.2552 68.2682 29.361C67.9985 29.4668 67.6686 29.5197 67.2785 29.5197Z" fill="white"/>
<path d="M28.5519 38.7377C28.1329 38.7377 27.7596 38.6536 27.4321 38.4852C27.1046 38.3121 26.847 38.074 26.6591 37.771C26.4761 37.468 26.3846 37.1242 26.3846 36.7394C26.3846 36.3499 26.4761 36.006 26.6591 35.7078C26.847 35.4048 27.1046 35.1691 27.4321 35.0008C27.7596 34.8277 28.1329 34.7411 28.5519 34.7411C28.9613 34.7411 29.3177 34.8277 29.6212 35.0008C29.9246 35.1691 30.1485 35.412 30.293 35.7294L29.4189 36.1984C29.3177 36.0156 29.1901 35.8809 29.036 35.7944C28.8867 35.7078 28.7229 35.6645 28.5447 35.6645C28.3521 35.6645 28.1787 35.7078 28.0245 35.7944C27.8704 35.8809 27.7476 36.0036 27.6561 36.1623C27.5694 36.321 27.5261 36.5134 27.5261 36.7394C27.5261 36.9655 27.5694 37.1578 27.6561 37.3165C27.7476 37.4753 27.8704 37.5979 28.0245 37.6845C28.1787 37.771 28.3521 37.8143 28.5447 37.8143C28.7229 37.8143 28.8867 37.7734 29.036 37.6917C29.1901 37.6051 29.3177 37.468 29.4189 37.2805L30.293 37.7566C30.1485 38.0692 29.9246 38.3121 29.6212 38.4852C29.3177 38.6536 28.9613 38.7377 28.5519 38.7377Z" fill="white"/>
<path d="M33.2832 34.7411C33.5914 34.7411 33.866 34.8036 34.1068 34.9287C34.3524 35.0489 34.5451 35.2365 34.6847 35.4914C34.8244 35.7415 34.8942 36.0637 34.8942 36.4581V38.68H33.7672V36.6312C33.7672 36.3186 33.6974 36.0877 33.5577 35.9387C33.4229 35.7896 33.2302 35.715 32.9798 35.715C32.8015 35.715 32.6402 35.7535 32.4957 35.8304C32.356 35.9026 32.2453 36.0156 32.1634 36.1695C32.0863 36.3234 32.0478 36.5206 32.0478 36.7611V38.68H30.9208V33.3271H32.0478V35.8737L31.7949 35.5491C31.9346 35.2894 32.1345 35.0898 32.3946 34.9503C32.6547 34.8108 32.9509 34.7411 33.2832 34.7411Z" fill="white"/>
<path d="M37.7935 38.7377C37.3793 38.7377 37.0109 38.6512 36.6882 38.478C36.3703 38.3049 36.1174 38.0692 35.9296 37.771C35.7466 37.468 35.6551 37.1242 35.6551 36.7394C35.6551 36.3499 35.7466 36.006 35.9296 35.7078C36.1174 35.4048 36.3703 35.1691 36.6882 35.0008C37.0109 34.8277 37.3793 34.7411 37.7935 34.7411C38.2029 34.7411 38.569 34.8277 38.8916 35.0008C39.2143 35.1691 39.4672 35.4024 39.6502 35.7006C39.8332 35.9988 39.9247 36.345 39.9247 36.7394C39.9247 37.1242 39.8332 37.468 39.6502 37.771C39.4672 38.0692 39.2143 38.3049 38.8916 38.478C38.569 38.6512 38.2029 38.7377 37.7935 38.7377ZM37.7935 37.8143C37.9814 37.8143 38.1499 37.771 38.2992 37.6845C38.4485 37.5979 38.5665 37.4753 38.6532 37.3165C38.7399 37.153 38.7833 36.9606 38.7833 36.7394C38.7833 36.5134 38.7399 36.321 38.6532 36.1623C38.5665 36.0036 38.4485 35.8809 38.2992 35.7944C38.1499 35.7078 37.9814 35.6645 37.7935 35.6645C37.6057 35.6645 37.4371 35.7078 37.2878 35.7944C37.1385 35.8809 37.0181 36.0036 36.9266 36.1623C36.8399 36.321 36.7965 36.5134 36.7965 36.7394C36.7965 36.9606 36.8399 37.153 36.9266 37.3165C37.0181 37.4753 37.1385 37.5979 37.2878 37.6845C37.4371 37.771 37.6057 37.8143 37.7935 37.8143Z" fill="white"/>
<path d="M40.6781 38.68V34.7988H41.8051V38.68H40.6781ZM41.2416 34.2578C41.0345 34.2578 40.8659 34.1976 40.7359 34.0774C40.6058 33.9572 40.5408 33.8081 40.5408 33.6301C40.5408 33.4522 40.6058 33.3031 40.7359 33.1829C40.8659 33.0626 41.0345 33.0025 41.2416 33.0025C41.4487 33.0025 41.6173 33.0602 41.7473 33.1756C41.8773 33.2863 41.9424 33.4305 41.9424 33.6085C41.9424 33.7961 41.8773 33.9524 41.7473 34.0774C41.6221 34.1976 41.4535 34.2578 41.2416 34.2578Z" fill="white"/>
<path d="M44.7294 38.7377C44.3104 38.7377 43.9371 38.6536 43.6096 38.4852C43.2821 38.3121 43.0244 38.074 42.8366 37.771C42.6536 37.468 42.5621 37.1242 42.5621 36.7394C42.5621 36.3499 42.6536 36.006 42.8366 35.7078C43.0244 35.4048 43.2821 35.1691 43.6096 35.0008C43.9371 34.8277 44.3104 34.7411 44.7294 34.7411C45.1388 34.7411 45.4952 34.8277 45.7987 35.0008C46.1021 35.1691 46.326 35.412 46.4705 35.7294L45.5964 36.1984C45.4952 36.0156 45.3676 35.8809 45.2135 35.7944C45.0642 35.7078 44.9004 35.6645 44.7222 35.6645C44.5296 35.6645 44.3562 35.7078 44.202 35.7944C44.0479 35.8809 43.9251 36.0036 43.8336 36.1623C43.7469 36.321 43.7036 36.5134 43.7036 36.7394C43.7036 36.9655 43.7469 37.1578 43.8336 37.3165C43.9251 37.4753 44.0479 37.5979 44.202 37.6845C44.3562 37.771 44.5296 37.8143 44.7222 37.8143C44.9004 37.8143 45.0642 37.7734 45.2135 37.6917C45.3676 37.6051 45.4952 37.468 45.5964 37.2805L46.4705 37.7566C46.326 38.0692 46.1021 38.3121 45.7987 38.4852C45.4952 38.6536 45.1388 38.7377 44.7294 38.7377Z" fill="white"/>
<path d="M48.999 38.7377C48.5559 38.7377 48.1658 38.6512 47.8286 38.478C47.4963 38.3049 47.2386 38.0692 47.0556 37.771C46.8726 37.468 46.7811 37.1242 46.7811 36.7394C46.7811 36.3499 46.8702 36.006 47.0484 35.7078C47.2314 35.4048 47.4794 35.1691 47.7925 35.0008C48.1056 34.8277 48.4596 34.7411 48.8545 34.7411C49.235 34.7411 49.5769 34.8229 49.8804 34.9864C50.1886 35.1451 50.4318 35.3759 50.6101 35.6789C50.7883 35.9771 50.8774 36.3354 50.8774 36.7538C50.8774 36.7971 50.8749 36.8476 50.8701 36.9053C50.8653 36.9582 50.8605 37.0087 50.8557 37.0568H47.6986V36.4004H50.2633L49.8298 36.5951C49.8298 36.3931 49.7889 36.2176 49.707 36.0685C49.6251 35.9194 49.5119 35.804 49.3674 35.7222C49.2229 35.6357 49.0544 35.5924 48.8617 35.5924C48.6691 35.5924 48.4981 35.6357 48.3488 35.7222C48.2043 35.804 48.0911 35.9218 48.0092 36.0757C47.9274 36.2248 47.8864 36.4028 47.8864 36.6096V36.7827C47.8864 36.9943 47.9322 37.1819 48.0237 37.3454C48.12 37.5041 48.2525 37.6268 48.421 37.7133C48.5944 37.7951 48.7967 37.836 49.0279 37.836C49.235 37.836 49.4156 37.8047 49.5697 37.7422C49.7287 37.6797 49.8732 37.5859 50.0032 37.4608L50.6028 38.1101C50.4246 38.3121 50.2007 38.4684 49.9309 38.579C49.6612 38.6848 49.3506 38.7377 48.999 38.7377Z" fill="white"/>
<defs>
<linearGradient id="paint0_linear_1646_685" x1="93.9185" y1="60.6174" x2="93.9185" y2="101.199" gradientUnits="userSpaceOnUse">
<stop stop-color="#2256E0"/>
<stop offset="1" stop-color="#2151D7" stop-opacity="0"/>
</linearGradient>
<linearGradient id="paint1_linear_1646_685" x1="37.7277" y1="0" x2="37.7277" y2="75.3473" gradientUnits="userSpaceOnUse">
<stop stop-color="#2258E6"/>
<stop offset="1" stop-color="#2258E6" stop-opacity="0"/>
</linearGradient>
</defs>
</svg>
