<svg width="118" height="91" viewBox="0 0 118 91" fill="none" xmlns="http://www.w3.org/2000/svg">
<path d="M47.2079 82.8349C45.8836 81.5021 41.0556 79.725 37.9494 78.3921C35.6639 77.3743 33.4442 76.2154 31.3034 74.922V70.0229C31.3034 69.9028 31.3997 69.7948 31.4358 69.6867C31.472 69.5786 31.6164 69.2064 31.7007 69.0263C32.014 67.8488 32.1997 66.6411 32.2546 65.424C33.001 65.424 33.4585 64.6556 33.6632 64.2233L33.8318 63.9471C34.0003 63.815 34.0485 63.5149 34.1207 63.0346C34.1207 62.7824 34.205 62.4822 34.2893 62.158C34.4703 61.4119 34.5272 60.6411 34.4578 59.8766C34.4603 59.762 34.4299 59.6492 34.3702 59.5513C34.3105 59.4534 34.2239 59.3746 34.1207 59.3242C33.9467 59.2554 33.7529 59.2554 33.5789 59.3242C33.5923 59.2528 33.5923 59.1795 33.5789 59.1081C33.5789 58.6518 34.0124 56.6346 33.9883 56.2984C34.1347 55.208 34.0734 54.1 33.8077 53.0323C33.8077 53.0323 34.205 52.0237 31.5562 49.8743C28.9075 47.725 26.2226 45.3956 23.9712 45.5036C21.9244 45.6117 21.7679 46.128 21.5632 46.4882C20.1547 46.6653 18.7646 46.9667 17.4095 47.3888C16.6871 47.8091 14.4598 49.7903 14.1708 51.1712C13.4104 52.2575 12.9913 53.5449 12.9668 54.8695C12.9668 56.7066 13.0632 57.6072 13.6651 57.9674C13.6375 58.5856 13.7529 59.2019 14.0023 59.7685H13.8457C13.6651 59.8526 13.5327 60.0807 13.4243 60.537C13.1644 61.3267 13.216 62.1855 13.5688 62.9385C13.6376 63.1349 13.6939 63.3354 13.7374 63.5389C13.9421 64.4514 14.2431 65.8083 16.049 65.8443C16.0863 66.9068 16.2603 67.96 16.5667 68.9783C16.651 69.1584 16.7353 69.3865 16.8316 69.6387L16.9038 74.91C14.7968 76.1865 12.6136 77.3333 10.3662 78.3441C7.22386 79.725 2.40795 81.5261 1.10766 82.8349C-0.192636 84.1437 0.0722386 89.0668 0 91H48.3276C48.2554 89.0668 48.5444 84.1557 47.2079 82.8349ZM20.7204 70.0469C21.6025 69.1277 22.8051 68.5817 24.0795 68.522C25.8012 68.4619 27.9684 69.6507 28.3296 70.7314C28.6065 71.3678 27.9804 73.4451 26.4755 72.4244C24.9705 71.4038 25.5845 70.6593 24.9946 70.6473H23.5257C23.5257 70.6473 23.2488 70.6473 23.2488 71.2477C23.2488 71.8481 22.2375 73.5171 21.0816 72.7006C19.685 71.704 19.8777 70.7914 20.6843 70.0469H20.7204ZM33.9642 59.5884C34.0846 59.5884 34.1328 59.8045 34.1448 59.9366C34.2136 60.6693 34.1566 61.4084 33.9762 62.122C33.904 62.4702 33.8558 62.7704 33.8197 63.0105C33.8106 63.2788 33.7406 63.5416 33.615 63.779C33.5217 63.8785 33.4445 63.992 33.3863 64.1152C33.1696 64.5115 32.7963 65.1359 32.1823 65.1839C32.3268 63.5509 32.399 61.9419 32.4231 61.4856C32.4472 61.0293 33.0853 60.2848 33.3622 59.7565C33.7114 59.5524 33.892 59.5524 33.9762 59.5884H33.9642ZM32.2546 60.3449V60.6571C31.9174 60.537 31.6887 60.0567 31.5442 59.5524C31.7248 59.9126 31.9897 60.3209 32.2666 60.3449H32.2546ZM27.6915 58.0154C27.8306 57.4091 27.8953 56.7882 27.8841 56.1663L28.0045 56.0822C28.2453 56.2263 28.1369 57.1149 27.6915 58.0154ZM24.7779 58.3636C24.7725 58.4196 24.7725 58.4758 24.7779 58.5317C24.7349 58.5857 24.6947 58.6418 24.6575 58.6999L24.5852 58.4717L24.7779 58.3636ZM24.9825 59.0961C25.094 59.446 25.2562 59.7777 25.4641 60.0807L25.3317 60.2848C25.1583 59.9312 25.0094 59.5661 24.8862 59.1922L24.9825 59.0961ZM25.1992 58.856C25.4622 58.4881 25.6692 58.0835 25.8133 57.6552L26.4875 57.1869C26.4014 58.159 26.1057 59.1011 25.6206 59.9486C25.4567 59.6023 25.3432 59.2343 25.2835 58.856H25.1992ZM25.8976 60.0567L26.4393 60.1287C26.2998 60.3044 26.1468 60.469 25.9818 60.6211C25.8866 60.523 25.7981 60.4187 25.717 60.3089L25.8976 60.0567ZM26.0059 59.8886C26.555 58.9343 26.9109 57.8817 27.0534 56.7907L27.5711 56.4304C27.6127 57.3153 27.4521 58.1981 27.1015 59.012C26.8191 59.3729 26.4508 59.6577 26.03 59.8406L26.0059 59.8886ZM15.7721 59.4683L16.0129 59.8526L15.8323 58.5077L16.8557 60.2488C16.765 60.644 16.765 61.0544 16.8557 61.4496C16.9581 61.8337 17.2035 62.1643 17.5419 62.3741C17.2341 61.9982 17.068 61.5267 17.0724 61.0413L17.4697 60.2968C17.4697 60.2968 17.9633 62.4942 19.6248 62.5903C19.6248 62.5903 17.6864 61.0653 18.4209 60.1888L18.9145 60.8372L18.8422 60.0087L19.4322 60.7051L19.36 60.0687L19.8536 60.8612C20.0893 60.946 20.3467 60.9495 20.5846 60.8711C20.8225 60.7927 21.0272 60.637 21.1659 60.4289C21.6688 59.6595 22.1193 58.8571 22.5144 58.0274C22.1392 59.1024 21.6551 60.1364 21.0696 61.1134C21.9579 60.3182 22.7174 59.3907 23.321 58.3636C23.321 58.3636 21.9244 61.1134 21.7438 61.2815C22.3393 60.6943 22.8906 60.0642 23.3933 59.3963C23.6822 59.1802 24.0314 58.916 24.4407 58.6278C24.4407 58.7359 24.5009 58.8439 24.5371 58.952C24.0888 59.5871 23.4657 60.0792 22.7431 60.3689C23.4759 60.2424 24.157 59.9091 24.7056 59.4083C24.8329 59.7681 25.0113 60.1077 25.2354 60.4169C24.865 60.865 24.3835 61.2086 23.8387 61.4135C24.4402 61.3583 24.9988 61.0798 25.4039 60.6331C25.5159 60.784 25.6781 60.8904 25.8614 60.9332C25.741 60.9332 25.6206 60.7531 25.4882 60.549L25.6808 60.3329C25.7675 60.4345 25.8643 60.527 25.9698 60.609L25.8374 60.7291L25.9939 60.6331L26.1263 60.7171L26.03 60.609C26.2415 60.4546 26.4389 60.2818 26.6199 60.0927H27.1617C26.7964 60.7316 26.2351 61.2367 25.5604 61.5336C26.3786 61.3077 27.0828 60.7853 27.535 60.0687C27.7959 60.0689 28.0536 60.0108 28.289 59.8985C28.5245 59.7863 28.7317 59.6229 28.8955 59.4203C29.5456 58.3036 29.9429 58.3396 29.9911 58.0274C29.9046 58.3783 29.7354 58.7035 29.4974 58.976C29.4974 58.976 30.7014 59.4563 31.2312 59.1081C31.4599 60.7892 31.9776 60.8252 32.1944 60.7531V61.6417C32.1944 62.206 32.098 63.5509 31.9897 64.9437C31.6526 65.6642 30.7857 67.5614 30.6533 67.5974C29.969 68.2415 29.3775 68.9769 28.8955 69.7828C28.8955 69.7828 28.2814 68.582 25.4521 67.3813C24.6579 67.5453 23.8383 67.5453 23.0441 67.3813C21.8312 67.9295 20.7039 68.6493 19.6971 69.5186L17.0363 66.6128L16.2778 65.1359C16.2778 64.5595 16.2778 64.1513 16.2778 64.1392C16.0229 63.4125 15.8138 62.6706 15.6517 61.9179V60.7171L15.7721 59.4683ZM13.9902 63.5149C13.9504 63.2884 13.8858 63.0669 13.7976 62.8544C13.4795 62.1426 13.4366 61.3385 13.6772 60.597C13.7855 60.1648 13.8939 60.0447 13.9541 60.0087C14.0164 59.9867 14.0844 59.9867 14.1467 60.0087C14.3267 60.38 14.5532 60.727 14.821 61.0413C14.9627 61.4558 15.1835 61.8391 15.4711 62.17C15.5915 62.8064 15.9407 63.9831 15.9888 64.1392C16.037 64.2953 15.9888 64.8477 16.049 65.5801C14.4477 65.5801 14.1829 64.4154 13.9902 63.5149ZM17.1687 75.0901V70.2871C18.0597 72.4724 19.8054 75.9426 24.0555 75.9426H24.0795C25.1816 75.9698 26.2722 75.7134 27.246 75.1981C27.42 75.1191 27.5854 75.0225 27.7396 74.91C27.7396 74.91 27.7998 74.91 27.8239 74.8499C29.2589 73.7455 30.3522 72.2597 30.9783 70.5633V75.1861C27.7878 79.1246 20.889 79.1246 17.1687 75.1141V75.0901Z" fill="url(#paint0_linear_1646_676)"/>
<path d="M56.6675 59.8949C54.3055 59.8949 52.3885 61.8115 52.3885 64.1731C52.3885 66.5347 54.3055 68.4513 56.6675 68.4513C59.0295 68.4513 60.9465 66.5347 60.9465 64.1731C60.9465 61.8115 59.0295 59.8949 56.6675 59.8949ZM69.5046 51.3385C66.3524 51.3385 63.7992 53.8911 63.7992 57.0428C63.7992 60.1945 66.3523 62.7471 69.5046 62.7471C72.6567 62.7471 75.2099 60.1945 75.2099 57.0428C75.2099 53.8911 72.6569 51.3385 69.5046 51.3385ZM95.1786 0C88.4578 0 82.2132 2.89782 77.8629 7.98888C75.0673 6.49151 71.9579 5.70432 68.7914 5.70432C58.1737 5.70432 49.5359 14.3406 49.5359 24.9563C49.5359 35.572 58.1737 44.2082 68.7914 44.2082H68.9568C70.6856 48.5177 74.7906 51.3385 79.489 51.3385C83.8364 51.3385 87.7817 48.8257 89.6844 44.9668C91.4821 45.4102 93.327 45.6343 95.1786 45.6342C107.762 45.6342 118 35.3979 118 22.817C118 10.2361 107.762 0 95.1786 0Z" fill="url(#paint1_linear_1646_676)"/>
<path d="M58.573 20.2133C58.573 17.7226 60.5925 15.7036 63.0836 15.7036H70.9771C73.4682 15.7036 75.4877 17.7226 75.4877 20.2133V28.1053C75.4877 30.596 73.4682 32.6151 70.9771 32.6151H63.0836C60.5925 32.6151 58.573 30.596 58.573 28.1053V20.2133Z" fill="#DD5148"/>
<path fill-rule="evenodd" clip-rule="evenodd" d="M64.2239 28.6563H62.3246C62.0842 28.6872 61.8397 28.6618 61.6112 28.5822C61.5445 28.5402 61.4896 28.4824 61.4514 28.4143C61.4131 28.3461 61.3927 28.2696 61.3921 28.1917C61.3921 28.057 61.4838 27.8833 61.6783 27.5413L66.3641 19.4423C66.3689 19.4341 66.3736 19.4259 66.3783 19.4179C66.5675 19.0918 66.6659 18.9222 66.7996 18.8565C66.8668 18.822 66.9415 18.804 67.0173 18.804C67.0931 18.804 67.1678 18.822 67.235 18.8565C67.3624 18.9184 67.461 19.0948 67.6636 19.4369L68.6222 21.0906C68.7803 21.3267 68.9043 21.5832 68.9905 21.8528C69.0426 22.068 69.0426 22.2922 68.9905 22.5073C68.9024 22.7832 68.7757 23.0456 68.6139 23.2871L66.1491 27.5763C66.027 27.8327 65.8684 28.0707 65.6781 28.2833C65.5136 28.4385 65.3142 28.5534 65.0961 28.6186C64.808 28.6654 64.5151 28.6781 64.2239 28.6563ZM71.7292 28.6563C71.9723 28.6858 72.2191 28.6605 72.4508 28.5822C72.5167 28.5395 72.571 28.4816 72.6089 28.4135C72.6468 28.3455 72.6673 28.2693 72.6685 28.1917C72.6685 28.057 72.5809 27.8914 72.3947 27.5722V27.5413L71.0336 25.2519V25.229C70.8446 24.9098 70.7446 24.7496 70.6378 24.6903C70.5706 24.6559 70.4959 24.6379 70.4201 24.6379C70.3443 24.6379 70.2696 24.6559 70.2024 24.6903C70.0791 24.7523 69.9751 24.9193 69.7779 25.2586L68.3866 27.548C68.3815 27.5568 68.3764 27.5655 68.3714 27.5741C68.183 27.896 68.0882 28.0579 68.0922 28.1904C68.0946 28.2682 68.116 28.3443 68.1546 28.4123C68.1932 28.4803 68.2479 28.5381 68.3141 28.5809C68.5379 28.6581 68.7768 28.6839 69.0124 28.6563H71.7292Z" fill="white"/>
<path d="M64.2239 28.6563H62.3246C62.0842 28.6872 61.8397 28.6618 61.6112 28.5822C61.5445 28.5402 61.4896 28.4824 61.4514 28.4143C61.4131 28.3461 61.3927 28.2696 61.3921 28.1917C61.3921 28.057 61.4838 27.8833 61.6783 27.5413L66.3641 19.4423L66.3783 19.4179C66.5675 19.0918 66.6659 18.9222 66.7996 18.8565C66.8668 18.822 66.9415 18.804 67.0173 18.804C67.0931 18.804 67.1678 18.822 67.235 18.8565C67.3624 18.9184 67.461 19.0948 67.6636 19.4369L68.6222 21.0906C68.7803 21.3267 68.9043 21.5832 68.9905 21.8528C69.0426 22.068 69.0426 22.2922 68.9905 22.5073C68.9024 22.7832 68.7757 23.0456 68.6139 23.2871L66.1491 27.5763C66.027 27.8327 65.8684 28.0707 65.6781 28.2833C65.5136 28.4385 65.3142 28.5534 65.0961 28.6186C64.808 28.6654 64.5151 28.6781 64.2239 28.6563Z" fill="white"/>
<path d="M71.7292 28.6563C71.9723 28.6858 72.2191 28.6605 72.4508 28.5822C72.5167 28.5395 72.571 28.4816 72.6089 28.4135C72.6468 28.3455 72.6673 28.2693 72.6685 28.1917C72.6685 28.057 72.5809 27.8914 72.3947 27.5722V27.5413L71.0336 25.2519V25.229C70.8446 24.9098 70.7446 24.7496 70.6378 24.6903C70.5706 24.6559 70.4959 24.6379 70.4201 24.6379C70.3443 24.6379 70.2696 24.6559 70.2024 24.6903C70.0791 24.7523 69.9751 24.9193 69.7779 25.2586L68.3866 27.548L68.3714 27.5741C68.183 27.896 68.0882 28.0579 68.0922 28.1904C68.0946 28.2682 68.116 28.3443 68.1546 28.4123C68.1932 28.4803 68.2479 28.5381 68.3141 28.5809C68.5379 28.6581 68.7768 28.6839 69.0124 28.6563H71.7292Z" fill="white"/>
<path d="M80.5378 22.3808V17.3073H81.7121V22.3808H80.5378Z" fill="white"/>
<path d="M87.1949 22.4387C86.8518 22.4387 86.557 22.3663 86.3105 22.2213C86.064 22.0764 85.8755 21.8565 85.7451 21.5618C85.6146 21.2622 85.5493 20.8853 85.5493 20.4311C85.5493 19.9721 85.617 19.5952 85.7523 19.3005C85.8925 19.0057 86.0858 18.7859 86.3322 18.6409C86.5787 18.496 86.8663 18.4235 87.1949 18.4235C87.5622 18.4235 87.8908 18.5056 88.1808 18.6699C88.4756 18.8342 88.7075 19.0661 88.8767 19.3657C89.0507 19.6653 89.1377 20.0204 89.1377 20.4311C89.1377 20.837 89.0507 21.1897 88.8767 21.4893C88.7075 21.7889 88.4756 22.0232 88.1808 22.1923C87.8908 22.3566 87.5622 22.4387 87.1949 22.4387ZM84.8897 22.3808V17.0029H86.0205V19.2715L85.948 20.4239L85.9698 21.5835V22.3808H84.8897ZM86.9992 21.511C87.1876 21.511 87.3544 21.4675 87.4993 21.3806C87.6492 21.2936 87.7676 21.1704 87.8546 21.0109C87.9464 20.8467 87.9923 20.6534 87.9923 20.4311C87.9923 20.204 87.9464 20.0107 87.8546 19.8513C87.7676 19.6918 87.6492 19.5686 87.4993 19.4817C87.3544 19.3947 87.1876 19.3512 86.9992 19.3512C86.8107 19.3512 86.6415 19.3947 86.4917 19.4817C86.3419 19.5686 86.2235 19.6918 86.1365 19.8513C86.0495 20.0107 86.006 20.204 86.006 20.4311C86.006 20.6534 86.0495 20.8467 86.1365 21.0109C86.2235 21.1704 86.3419 21.2936 86.4917 21.3806C86.6415 21.4675 86.8107 21.511 86.9992 21.511Z" fill="white"/>
<path d="M91.8302 22.4387C91.3856 22.4387 90.9941 22.3518 90.6558 22.1778C90.3224 22.0039 90.0638 21.7671 89.8802 21.4675C89.6965 21.1631 89.6047 20.8177 89.6047 20.4311C89.6047 20.0397 89.6941 19.6943 89.8729 19.3947C90.0566 19.0903 90.3055 18.8535 90.6196 18.6844C90.9337 18.5104 91.2889 18.4235 91.6852 18.4235C92.067 18.4235 92.4101 18.5056 92.7146 18.6699C93.0239 18.8294 93.2679 19.0613 93.4468 19.3657C93.6256 19.6653 93.715 20.0252 93.715 20.4456C93.715 20.4891 93.7126 20.5398 93.7077 20.5978C93.7029 20.651 93.6981 20.7017 93.6932 20.75H90.5254V20.0905H93.0988L92.6639 20.2862C92.6639 20.0832 92.6228 19.9069 92.5406 19.7571C92.4585 19.6073 92.3449 19.4913 92.1999 19.4092C92.0549 19.3222 91.8858 19.2787 91.6925 19.2787C91.4992 19.2787 91.3276 19.3222 91.1778 19.4092C91.0328 19.4913 90.9192 19.6097 90.8371 19.7643C90.7549 19.9141 90.7138 20.0929 90.7138 20.3007V20.4746C90.7138 20.6872 90.7597 20.8756 90.8516 21.0399C90.9482 21.1994 91.0811 21.3226 91.2503 21.4096C91.4242 21.4917 91.6272 21.5328 91.8592 21.5328C92.067 21.5328 92.2482 21.5014 92.4029 21.4386C92.5624 21.3757 92.7073 21.2815 92.8378 21.1559L93.4395 21.8082C93.2607 22.0111 93.036 22.1682 92.7653 22.2793C92.4947 22.3856 92.183 22.4387 91.8302 22.4387Z" fill="white"/>
<path d="M94.4679 22.3808V17.0029H95.5987V22.3808H94.4679Z" fill="white"/>
<path d="M96.6483 22.3808V18.4815H97.7791V22.3808H96.6483ZM97.2137 17.9379C97.0059 17.9379 96.8368 17.8775 96.7063 17.7567C96.5758 17.6359 96.5105 17.4861 96.5105 17.3073C96.5105 17.1285 96.5758 16.9787 96.7063 16.858C96.8368 16.7372 97.0059 16.6768 97.2137 16.6768C97.4215 16.6768 97.5907 16.7347 97.7212 16.8507C97.8516 16.9618 97.9169 17.1068 97.9169 17.2856C97.9169 17.474 97.8516 17.6311 97.7212 17.7567C97.5955 17.8775 97.4264 17.9379 97.2137 17.9379Z" fill="white"/>
<path d="M100.764 22.4387C100.32 22.4387 99.9281 22.3518 99.5898 22.1778C99.2564 22.0039 98.9978 21.7671 98.8142 21.4675C98.6305 21.1631 98.5387 20.8177 98.5387 20.4311C98.5387 20.0397 98.6281 19.6943 98.8069 19.3947C98.9906 19.0903 99.2395 18.8535 99.5536 18.6844C99.8677 18.5104 100.223 18.4235 100.619 18.4235C101.001 18.4235 101.344 18.5056 101.649 18.6699C101.958 18.8294 102.202 19.0613 102.381 19.3657C102.56 19.6653 102.649 20.0252 102.649 20.4456C102.649 20.4891 102.647 20.5398 102.642 20.5978C102.637 20.651 102.632 20.7017 102.627 20.75H99.4594V20.0905H102.033L101.598 20.2862C101.598 20.0832 101.557 19.9069 101.475 19.7571C101.392 19.6073 101.279 19.4913 101.134 19.4092C100.989 19.3222 100.82 19.2787 100.626 19.2787C100.433 19.2787 100.262 19.3222 100.112 19.4092C99.9668 19.4913 99.8532 19.6097 99.7711 19.7643C99.6889 19.9141 99.6478 20.0929 99.6478 20.3007V20.4746C99.6478 20.6872 99.6937 20.8756 99.7856 21.0399C99.8822 21.1994 100.015 21.3226 100.184 21.4096C100.358 21.4917 100.561 21.5328 100.793 21.5328C101.001 21.5328 101.182 21.5014 101.337 21.4386C101.496 21.3757 101.641 21.2815 101.772 21.1559L102.374 21.8082C102.195 22.0111 101.97 22.1682 101.699 22.2793C101.429 22.3856 101.117 22.4387 100.764 22.4387Z" fill="white"/>
<path d="M104.389 22.3808L102.751 18.4815H103.918L105.281 21.8372H104.701L106.115 18.4815H107.202L105.557 22.3808H104.389Z" fill="white"/>
<path d="M109.493 22.4387C109.048 22.4387 108.657 22.3518 108.319 22.1778C107.985 22.0039 107.727 21.7671 107.543 21.4675C107.359 21.1631 107.267 20.8177 107.267 20.4311C107.267 20.0397 107.357 19.6943 107.536 19.3947C107.719 19.0903 107.968 18.8535 108.282 18.6844C108.596 18.5104 108.952 18.4235 109.348 18.4235C109.73 18.4235 110.073 18.5056 110.377 18.6699C110.687 18.8294 110.931 19.0613 111.109 19.3657C111.288 19.6653 111.378 20.0252 111.378 20.4456C111.378 20.4891 111.375 20.5398 111.37 20.5978C111.366 20.651 111.361 20.7017 111.356 20.75H108.188V20.0905H110.762L110.327 20.2862C110.327 20.0832 110.285 19.9069 110.203 19.7571C110.121 19.6073 110.008 19.4913 109.863 19.4092C109.718 19.3222 109.548 19.2787 109.355 19.2787C109.162 19.2787 108.99 19.3222 108.84 19.4092C108.696 19.4913 108.582 19.6097 108.5 19.7643C108.418 19.9141 108.377 20.0929 108.377 20.3007V20.4746C108.377 20.6872 108.422 20.8756 108.514 21.0399C108.611 21.1994 108.744 21.3226 108.913 21.4096C109.087 21.4917 109.29 21.5328 109.522 21.5328C109.73 21.5328 109.911 21.5014 110.066 21.4386C110.225 21.3757 110.37 21.2815 110.501 21.1559L111.102 21.8082C110.923 22.0111 110.699 22.1682 110.428 22.2793C110.157 22.3856 109.846 22.4387 109.493 22.4387Z" fill="white"/>
<path d="M80.458 31.6418V27.7425H81.5889V31.6418H80.458ZM81.0235 27.1989C80.8157 27.1989 80.6465 27.1385 80.516 27.0177C80.3856 26.8969 80.3203 26.7472 80.3203 26.5684C80.3203 26.3896 80.3856 26.2398 80.516 26.119C80.6465 25.9982 80.8157 25.9378 81.0235 25.9378C81.2313 25.9378 81.4004 25.9958 81.5309 26.1118C81.6614 26.2229 81.7266 26.3679 81.7266 26.5466C81.7266 26.7351 81.6614 26.8921 81.5309 27.0177C81.4053 27.1385 81.2361 27.1989 81.0235 27.1989Z" fill="white"/>
<path d="M85.0089 27.6845C85.3182 27.6845 85.5937 27.7474 85.8353 27.873C86.0818 27.9938 86.2751 28.1822 86.4153 28.4383C86.5554 28.6896 86.6255 29.0133 86.6255 29.4095V31.6418H85.4946V29.5835C85.4946 29.2694 85.4245 29.0375 85.2844 28.8877C85.1491 28.7379 84.9558 28.663 84.7045 28.663C84.5256 28.663 84.3638 28.7016 84.2188 28.779C84.0786 28.8514 83.9675 28.965 83.8853 29.1196C83.808 29.2742 83.7693 29.4723 83.7693 29.7139V31.6418H82.6385V27.7425H83.7186V28.8224L83.5156 28.4963C83.6558 28.2354 83.8563 28.0348 84.1173 27.8947C84.3782 27.7546 84.6755 27.6845 85.0089 27.6845Z" fill="white"/>
<path d="M89.1164 31.6418L91.3781 26.5684H92.538L94.8069 31.6418H93.5746L91.7188 27.1627H92.1827L90.3197 31.6418H89.1164ZM90.2472 30.5547L90.5589 29.6632H93.1686L93.4876 30.5547H90.2472Z" fill="white"/>
<path d="M96.5796 31.6418L94.3904 26.5684H95.659L97.5728 31.062H96.8261L98.7689 26.5684H99.936L97.7395 31.6418H96.5796Z" fill="white"/>
<path d="M99.5228 31.6418L101.785 26.5684H102.944L105.213 31.6418H103.981L102.125 27.1627H102.589L100.726 31.6418H99.5228ZM100.654 30.5547L100.965 29.6632H103.575L103.894 30.5547H100.654Z" fill="white"/>
<path d="M104.891 31.6418L107.073 28.634V29.4892L104.985 26.5684H106.319L107.762 28.605L107.203 28.6123L108.624 26.5684H109.9L107.827 29.4385V28.5978L110.023 31.6418H108.668L107.174 29.4892H107.711L106.239 31.6418H104.891Z" fill="white"/>
<defs>
<linearGradient id="paint0_linear_1646_676" x1="24.1638" y1="48.7212" x2="24.1638" y2="88.27" gradientUnits="userSpaceOnUse">
<stop stop-color="#2256E0"/>
<stop offset="1" stop-color="#2151D7" stop-opacity="0"/>
</linearGradient>
<linearGradient id="paint1_linear_1646_676" x1="83.768" y1="0" x2="83.768" y2="68.4513" gradientUnits="userSpaceOnUse">
<stop stop-color="#2258E6"/>
<stop offset="1" stop-color="#2258E6" stop-opacity="0"/>
</linearGradient>
</defs>
</svg>
