<svg width="60" height="60" viewBox="0 0 60 60" fill="none" xmlns="http://www.w3.org/2000/svg">
<g clip-path="url(#clip0_1403_1223)">
<path d="M35.2309 43.924L25.1019 48.2773V47.8418C23.1489 48.3362 20.9854 48.6211 18.9362 48.7127C9.4105 48.6211 1.84962 43.6927 1.76163 37.8281V35.651C4.8903 40.1485 11.2592 43.162 18.9362 43.0531C21.5333 43.162 24.1903 42.7556 26.4227 42.1823L27.3035 40.0052C24.6556 40.7862 21.7655 41.3296 18.9362 41.3115C9.4105 41.3296 1.84962 36.4012 1.76163 30.4278V28.6861C4.8903 32.8435 11.2456 35.8578 18.9362 35.6519C22.396 35.8578 25.7795 35.1385 28.6243 33.9102L29.0651 31.7331C26.2857 33.1827 22.6835 34.0245 18.9362 33.9102C9.4105 34.0245 1.84962 29.0961 1.76163 23.0266V21.2849C4.8903 25.5393 11.2592 28.5528 18.9362 28.6861C23.2995 28.5528 27.4359 27.4125 30.8268 25.6382L31.2676 23.0257C28.1898 25.2808 23.6968 26.734 18.9362 26.9444C9.4105 26.734 1.85053 21.8047 1.76163 15.6253C1.84962 9.74809 9.4105 4.81969 18.9362 4.74168C24.6148 4.81969 29.8888 6.78815 33.0293 9.9658L33.335 10.4693L35.5556 10.4783L35.2309 9.9658C32.1076 5.76945 25.8612 3 18.9362 3C8.39633 3 0 8.743 0 15.6253V38.2635C0.370106 44.9817 8.57504 50.4534 18.9362 50.4534C25.7795 50.4534 31.9298 47.7929 35.2309 43.924Z" fill="#263136"/>
<path d="M31.1108 59.2417L34.6668 44.3023L24.4444 48.6964L30.6673 22.7726H18.666L21.7774 10.0303H60L56.8886 22.7726H44.4447L41.7777 29.8028L55.5551 24.0907L31.1108 59.2417ZM37.3337 41.2263L35.5557 50.0145L50.2221 28.0457L38.2218 33.3189L43.5557 21.0155H55.5551L57.7776 11.7883H23.1109L20.8885 21.0155H32.8888L27.1104 45.6213L37.3337 41.2281V41.2263Z" fill="#FABF2C"/>
<path d="M37.3337 41.2281L35.5557 50.0145L50.2221 28.0457L38.2218 33.3189L43.5557 21.0155H55.5551L57.7776 11.7883H23.1109L20.8885 21.0155H32.8888L27.1104 45.6213L37.3337 41.2281Z" fill="#FABF2C"/>
</g>
<defs>
<clipPath id="clip0_1403_1223">
<rect width="60" height="60" fill="white"/>
</clipPath>
</defs>
</svg>
