<svg width="94" height="109" viewBox="0 0 94 109" fill="none" xmlns="http://www.w3.org/2000/svg">
<path d="M49.898 104.053C49.795 101.117 48.7947 98.2543 42.2338 97.168C35.2463 96.0082 32.4513 92.9548 31.9365 92.3529C31.7032 91.8965 31.568 91.3965 31.5393 90.8849C32.1049 90.477 32.6015 89.9814 33.0103 89.4169C32.6459 90.0491 32.3169 90.7009 32.0247 91.3694C32.0247 91.6923 32.9368 90.7675 33.0397 90.562C33.1427 90.3565 37.703 86.0259 39.0269 80.6824C40.2151 76.8253 40.0332 72.6772 38.5121 68.9384C37.2764 65.7529 35.9818 61.3929 31.0538 59.4992C29.8917 57.4734 26.2141 54.9925 20.7565 57.0623C15.2989 59.1322 13.872 62.6554 12.6804 65.3712C11.4889 68.087 9.63537 72.1533 9.29703 73.5186C9.01787 74.9697 8.88482 76.445 8.89984 77.9225C8.90203 78.7038 8.96102 79.4839 9.07637 80.2567C9.16725 79.5931 9.31991 78.9395 9.53239 78.3042C9.53239 78.3042 10.4444 83.4128 11.8419 85.468C11.7124 84.8105 11.6875 84.1368 11.7684 83.4716C11.7684 83.4716 13.2394 87.8755 14.3869 88.8297C14.1488 88.1246 13.986 87.3964 13.9014 86.6571L14.7105 89.1527C15.1506 90.7776 15.8245 92.3303 16.7111 93.7622C14.1194 95.5899 11.12 96.7589 7.97308 97.168C1.35336 98.2543 0.353052 101.117 0.250078 104.053C0.176526 106.504 0 108.971 0 109H50.1333C50.1333 109 50.0156 106.504 49.898 104.053ZM31.5099 90.4445V90.0335C31.82 89.8676 32.0987 89.649 32.3336 89.3876C32.3336 89.3876 31.9218 89.9161 31.5099 90.4445ZM31.5099 89.7986C31.5099 89.4757 31.5099 89.1674 31.5099 88.8591C31.9756 88.5015 32.4088 88.1036 32.8044 87.67C32.5469 88.4851 32.0803 89.2189 31.451 89.7986H31.5099ZM31.9218 86.7158C31.9408 86.957 31.9058 87.1994 31.8193 87.4254C31.7328 87.6513 31.5969 87.8553 31.4216 88.0223C31.4216 87.8315 31.4216 87.6553 31.4216 87.5085L31.9218 86.7158ZM32.2454 87.4645C32.0105 87.941 31.7452 88.4019 31.451 88.8444C31.451 88.6389 31.451 88.4627 31.451 88.2719C31.7549 88.0625 32.0065 87.7863 32.1865 87.4645H32.2454ZM17.6232 81.0641C17.5055 81.3136 17.9468 80.7998 18.1086 80.3888C18.2704 79.9777 19.5797 76.1756 19.8297 75.3682C20.4309 74.1856 21.1824 73.0853 22.0657 72.0946C20.6087 74.4101 19.5033 76.9281 18.7853 79.5667C18.7853 79.5667 20.9624 74.0764 22.6394 72.2267C22.3769 72.7823 22.1557 73.3563 21.9775 73.9443C21.8451 74.6783 19.9033 79.3905 19.8297 80.0658C19.7562 80.7411 22.1834 76.8215 23.066 75.6618C22.4376 76.9206 21.673 78.1069 20.7859 79.1997C22.3036 77.8677 23.552 76.2582 24.4635 74.4581C24.184 75.5591 23.6986 77.3941 23.4779 77.9079C23.2573 78.4217 22.5218 80.4915 22.3746 80.7117C23.0189 79.9146 23.5169 79.0101 23.8457 78.04C23.6192 79.2735 23.2335 80.4726 22.6983 81.6072C22.6983 81.6072 25.4786 78.3776 26.0228 77.4234C26.5671 76.4692 30.892 70.6853 31.1421 67.7347C31.1421 67.7347 32.9515 72.1386 34.0842 72.5056H33.9812C33.9812 72.5056 33.9812 75.7939 33.9812 76.3811C34.089 77.9387 33.8582 79.5011 33.3045 80.9613C33.1987 81.2143 33.1102 81.4743 33.0397 81.7393C32.8319 83.1475 32.477 84.53 31.9806 85.8644L31.7011 86.3195L30.995 87.4058C29.9653 88.8738 28.2588 91.0317 26.3023 91.0317C25.8169 91.0317 25.405 91.0317 25.0372 91.0317C24.3415 91.1539 23.6255 91.0814 22.9686 90.8223C22.3117 90.5631 21.7395 90.1275 21.3155 89.5637L20.9772 89.2114C20.0266 88.3888 19.2426 87.3922 18.6676 86.2754C18.4322 85.0864 17.1966 81.0641 17.1966 80.8879L17.682 79.6254C17.6933 80.1077 17.6538 80.5899 17.5643 81.0641H17.6232ZM13.5336 95.9202C14.6999 95.4266 15.8055 94.8011 16.8288 94.0558C17.4084 94.9739 18.1168 95.8044 18.9324 96.522C18.5281 95.6561 18.184 94.7634 17.9027 93.8503C17.9027 93.8503 17.9027 93.586 17.785 93.2484C18.0187 93.0412 18.2352 92.8154 18.4322 92.5731C18.9765 91.9125 19.1089 88.9031 19.1383 87.7434C19.5944 88.2866 20.1681 88.9031 20.7712 89.5344L21.0948 89.8867C21.4756 90.3924 21.9795 90.7927 22.5587 91.0496C23.138 91.3065 23.7734 91.4115 24.4047 91.3547H26.3465C28.2883 91.3547 29.9653 89.4757 31.0391 87.9489C31.047 88.0809 31.047 88.2133 31.0391 88.3453C30.923 88.4647 30.8002 88.5774 30.6714 88.6829L31.0538 88.4774C31.0538 88.9472 31.0538 89.4903 31.1421 90.0482C30.9182 90.2468 30.6652 90.4102 30.3919 90.5326C30.6551 90.4397 30.9108 90.3268 31.1568 90.195C31.1568 90.4005 31.1568 90.5913 31.1568 90.7969C30.9561 91.0731 30.7128 91.3159 30.436 91.5162C30.6993 91.3789 30.9547 91.227 31.2009 91.0611C31.2415 91.5762 31.392 92.0767 31.6423 92.5291C33.4379 94.4299 35.7229 95.8011 38.2473 96.4927C27.9499 103.451 14.7105 97.8285 13.5336 95.9202Z" fill="url(#paint0_linear_1646_694)"/>
<path d="M43.9886 68.2691C46.4388 68.2691 48.4275 70.2536 48.4275 72.6988C48.4275 75.144 46.4388 77.1284 43.9886 77.1284C41.5383 77.1284 39.5497 75.144 39.5497 72.6988C39.5497 70.2536 41.5383 68.2691 43.9886 68.2691ZM55.7386 57.3252C59.0085 57.3252 61.6571 59.9682 61.6571 63.2315C61.6571 66.4948 59.0086 69.1378 55.7386 69.1378C52.4686 69.1378 49.82 66.4948 49.82 63.2315C49.82 59.9682 52.4685 57.3252 55.7386 57.3252ZM46.6519 0C53.6239 0 60.1017 3.00041 64.6146 8.27172C67.5147 6.72134 70.7402 5.90628 74.025 5.90628C85.0394 5.90628 94 14.8483 94 25.8398C94 36.8314 85.0394 45.7733 74.025 45.7733H73.8534C72.0601 50.2354 67.8017 53.1561 62.9278 53.1561C58.4179 53.1561 54.3252 50.5544 52.3514 46.5588C50.4865 47.0179 48.5727 47.2499 46.6519 47.2498C33.5987 47.2498 22.9778 36.6511 22.9778 23.6248C22.9778 10.5985 33.5985 0 46.6519 0Z" fill="url(#paint1_linear_1646_694)"/>
<path d="M27.7495 21.3458C27.7495 18.767 29.8444 16.6764 32.4286 16.6764H40.6171C43.2013 16.6764 45.2962 18.767 45.2962 21.3458V29.5172C45.2962 32.0961 43.2013 34.1866 40.6171 34.1866H32.4286C29.8444 34.1866 27.7495 32.0961 27.7495 29.5172V21.3458Z" fill="#E6007A"/>
<path d="M38.4939 21.0282C38.4939 21.6577 37.6089 22.1698 36.5199 22.1698C35.4309 22.1698 34.5459 21.6577 34.5459 21.0282C34.5459 20.3987 35.4342 19.8866 36.5199 19.8866C37.6056 19.8866 38.4939 20.3987 38.4939 21.0282ZM38.4939 29.8348C38.4939 30.4643 37.6089 30.9764 36.5199 30.9764C35.4309 30.9764 34.5459 30.4643 34.5459 29.8348C34.5459 29.2053 35.4342 28.6932 36.5199 28.6932C37.6056 28.6932 38.4939 29.2053 38.4939 29.8348ZM33.6741 23.8496C34.2334 22.8939 34.2367 21.8599 33.6872 21.5468C33.1345 21.2304 32.2396 21.7523 31.6803 22.708C31.121 23.6637 31.121 24.6976 31.6672 25.0107C32.2199 25.3239 33.1148 24.8053 33.6741 23.8496ZM41.3661 25.849C41.9188 26.1589 41.9155 27.1733 41.3595 28.1126C40.8002 29.052 39.902 29.5608 39.3526 29.251C38.7966 28.9411 38.7999 27.9267 39.3559 26.9873C39.9152 26.048 40.8134 25.5391 41.3661 25.849ZM33.6905 29.2575C34.2432 28.9476 34.2399 27.9332 33.6806 26.9939C33.1246 26.0545 32.2265 25.5457 31.6737 25.8555C31.1177 26.1687 31.121 27.1798 31.6803 28.1192C32.2363 29.0585 33.1345 29.5706 33.6872 29.2608L33.6905 29.2575ZM41.3661 22.7112C41.9254 23.6669 41.9254 24.6976 41.3759 25.0107C40.8265 25.3271 39.9283 24.8085 39.369 23.8496C38.8163 22.8939 38.8097 21.8632 39.3592 21.5501C39.9119 21.2337 40.8068 21.7523 41.3661 22.7112Z" fill="white"/>
<path d="M50.8731 23.56V18.3069H53.2644C53.836 18.3069 54.3398 18.417 54.776 18.6371C55.2121 18.8523 55.553 19.1549 55.7987 19.5452C56.0443 19.9354 56.1672 20.3982 56.1672 20.9335C56.1672 21.4638 56.0443 21.9266 55.7987 22.3218C55.553 22.712 55.2121 23.0172 54.776 23.2373C54.3398 23.4524 53.836 23.56 53.2644 23.56H50.8731ZM52.0913 22.5619H53.2043C53.5552 22.5619 53.8585 22.4969 54.1142 22.3668C54.3749 22.2317 54.5754 22.0416 54.7158 21.7965C54.8612 21.5513 54.9339 21.2637 54.9339 20.9335C54.9339 20.5983 54.8612 20.3106 54.7158 20.0705C54.5754 19.8253 54.3749 19.6377 54.1142 19.5076C53.8585 19.3726 53.5552 19.305 53.2043 19.305H52.0913V22.5619Z" fill="white"/>
<path d="M59.6427 23.6501C59.2266 23.6501 58.8406 23.5825 58.4846 23.4474C58.1337 23.3124 57.8279 23.1223 57.5672 22.8771C57.3115 22.632 57.111 22.3443 56.9656 22.0141C56.8252 21.6839 56.755 21.3237 56.755 20.9335C56.755 20.5432 56.8252 20.183 56.9656 19.8528C57.111 19.5226 57.314 19.235 57.5747 18.9898C57.8354 18.7447 58.1412 18.5546 58.4921 18.4195C58.8431 18.2844 59.2241 18.2169 59.6352 18.2169C60.0513 18.2169 60.4323 18.2844 60.7782 18.4195C61.1291 18.5546 61.4325 18.7447 61.6881 18.9898C61.9488 19.235 62.1519 19.5226 62.2973 19.8528C62.4426 20.178 62.5153 20.5382 62.5153 20.9335C62.5153 21.3237 62.4426 21.6864 62.2973 22.0216C62.1519 22.3518 61.9488 22.6395 61.6881 22.8846C61.4325 23.1248 61.1291 23.3124 60.7782 23.4474C60.4323 23.5825 60.0538 23.6501 59.6427 23.6501ZM59.6352 22.6145C59.8708 22.6145 60.0864 22.5744 60.2819 22.4944C60.4824 22.4143 60.6579 22.2993 60.8083 22.1492C60.9587 21.9991 61.074 21.8215 61.1542 21.6164C61.2394 21.4113 61.2821 21.1836 61.2821 20.9335C61.2821 20.6833 61.2394 20.4557 61.1542 20.2506C61.074 20.0455 60.9587 19.8678 60.8083 19.7178C60.6629 19.5677 60.4899 19.4526 60.2894 19.3726C60.0889 19.2925 59.8708 19.2525 59.6352 19.2525C59.3995 19.2525 59.1815 19.2925 58.9809 19.3726C58.7854 19.4526 58.6125 19.5677 58.4621 19.7178C58.3117 19.8678 58.1938 20.0455 58.1086 20.2506C58.0284 20.4557 57.9883 20.6833 57.9883 20.9335C57.9883 21.1786 58.0284 21.4062 58.1086 21.6164C58.1938 21.8215 58.3091 21.9991 58.4545 22.1492C58.6049 22.2993 58.7804 22.4143 58.9809 22.4944C59.1815 22.5744 59.3995 22.6145 59.6352 22.6145Z" fill="white"/>
<path d="M64.4479 23.56V19.2975H62.7634V18.3069H67.3506V19.2975H65.6661V23.56H64.4479Z" fill="white"/>
<path d="M70.053 23.56V19.5226H71.2261V23.56H70.053ZM70.6396 18.9598C70.424 18.9598 70.2485 18.8973 70.1132 18.7722C69.9778 18.6471 69.9101 18.492 69.9101 18.3069C69.9101 18.1218 69.9778 17.9667 70.1132 17.8417C70.2485 17.7166 70.424 17.6541 70.6396 17.6541C70.8552 17.6541 71.0306 17.7141 71.166 17.8342C71.3013 17.9492 71.369 18.0993 71.369 18.2844C71.369 18.4795 71.3013 18.6421 71.166 18.7722C71.0356 18.8973 70.8602 18.9598 70.6396 18.9598Z" fill="white"/>
<path d="M73.676 23.62C73.3301 23.62 72.9967 23.58 72.6759 23.5C72.36 23.4149 72.1093 23.3099 71.9239 23.1848L72.3149 22.3443C72.5004 22.4594 72.7185 22.5544 72.9691 22.6295C73.2248 22.6995 73.4755 22.7345 73.7211 22.7345C73.9919 22.7345 74.1824 22.702 74.2927 22.637C74.408 22.5719 74.4656 22.4819 74.4656 22.3668C74.4656 22.2718 74.4205 22.2017 74.3303 22.1567C74.245 22.1067 74.1297 22.0691 73.9843 22.0441C73.8389 22.0191 73.6785 21.9941 73.5031 21.9691C73.3326 21.9441 73.1596 21.9115 72.9842 21.8715C72.8087 21.8265 72.6483 21.7615 72.5029 21.6764C72.3575 21.5914 72.2397 21.4763 72.1495 21.3312C72.0642 21.1861 72.0216 20.9985 72.0216 20.7684C72.0216 20.5132 72.0943 20.2881 72.2397 20.093C72.3901 19.8979 72.6057 19.7453 72.8864 19.6352C73.1672 19.5201 73.5031 19.4626 73.8941 19.4626C74.1698 19.4626 74.4506 19.4926 74.7363 19.5527C75.0221 19.6127 75.2602 19.7002 75.4507 19.8153L75.0597 20.6483C74.8642 20.5332 74.6661 20.4557 74.4656 20.4157C74.2701 20.3706 74.0796 20.3481 73.8941 20.3481C73.6334 20.3481 73.4429 20.3831 73.3226 20.4532C73.2023 20.5232 73.1421 20.6133 73.1421 20.7233C73.1421 20.8234 73.1847 20.8985 73.2699 20.9485C73.3602 20.9985 73.478 21.0385 73.6234 21.0686C73.7688 21.0986 73.9267 21.1261 74.0971 21.1511C74.2726 21.1711 74.4481 21.2036 74.6235 21.2487C74.799 21.2937 74.9569 21.3587 75.0973 21.4438C75.2427 21.5238 75.3605 21.6364 75.4507 21.7815C75.541 21.9215 75.5861 22.1067 75.5861 22.3368C75.5861 22.5869 75.5109 22.8096 75.3605 23.0047C75.2101 23.1948 74.992 23.3449 74.7063 23.4549C74.4255 23.565 74.0821 23.62 73.676 23.62Z" fill="white"/>
<path d="M80.094 23.62C79.6177 23.62 79.2467 23.5 78.981 23.2598C78.7153 23.0147 78.5825 22.652 78.5825 22.1717V18.6296H79.7556V22.1567C79.7556 22.3268 79.8007 22.4594 79.8909 22.5544C79.9812 22.6445 80.104 22.6895 80.2594 22.6895C80.4449 22.6895 80.6028 22.6395 80.7332 22.5394L81.049 23.3649C80.9287 23.4499 80.7833 23.515 80.6129 23.56C80.4474 23.6 80.2745 23.62 80.094 23.62ZM77.9583 20.5132V19.6127H80.7633V20.5132H77.9583Z" fill="white"/>
<path d="M84.1666 19.4626C84.4874 19.4626 84.7732 19.5276 85.0239 19.6577C85.2796 19.7828 85.4801 19.9779 85.6255 20.2431C85.7709 20.5032 85.8436 20.8384 85.8436 21.2487V23.56H84.6704V21.4288C84.6704 21.1036 84.5977 20.8634 84.4524 20.7083C84.312 20.5532 84.1114 20.4757 83.8508 20.4757C83.6653 20.4757 83.4973 20.5157 83.3469 20.5958C83.2015 20.6708 83.0862 20.7884 83.001 20.9485C82.9208 21.1086 82.8807 21.3137 82.8807 21.5638V23.56H81.7076V17.9918H82.8807V20.6408L82.6175 20.3031C82.7629 20.0329 82.9709 19.8253 83.2416 19.6802C83.5124 19.5352 83.8207 19.4626 84.1666 19.4626Z" fill="white"/>
<path d="M88.9441 23.62C88.4829 23.62 88.0768 23.53 87.7259 23.3499C87.38 23.1698 87.1118 22.9246 86.9213 22.6145C86.7308 22.2993 86.6355 21.9416 86.6355 21.5413C86.6355 21.1361 86.7282 20.7784 86.9137 20.4682C87.1042 20.153 87.3624 19.9079 87.6883 19.7328C88.0142 19.5527 88.3826 19.4626 88.7937 19.4626C89.1898 19.4626 89.5457 19.5477 89.8616 19.7178C90.1824 19.8829 90.4356 20.123 90.6211 20.4382C90.8066 20.7484 90.8993 21.1211 90.8993 21.5563C90.8993 21.6014 90.8968 21.6539 90.8918 21.7139C90.8868 21.769 90.8818 21.8215 90.8768 21.8715H87.5905V21.1886H90.2601L89.8089 21.3912C89.8089 21.1811 89.7663 20.9985 89.6811 20.8434C89.5959 20.6883 89.4781 20.5683 89.3277 20.4832C89.1773 20.3932 89.0018 20.3481 88.8013 20.3481C88.6007 20.3481 88.4228 20.3932 88.2673 20.4832C88.1169 20.5683 87.9991 20.6908 87.9139 20.8509C87.8287 21.006 87.7861 21.1911 87.7861 21.4062V21.5864C87.7861 21.8065 87.8337 22.0016 87.9289 22.1717C88.0292 22.3368 88.1671 22.4644 88.3425 22.5544C88.523 22.6395 88.7336 22.682 88.9742 22.682C89.1898 22.682 89.3778 22.6495 89.5382 22.5844C89.7037 22.5194 89.8541 22.4218 89.9894 22.2918L90.6136 22.9672C90.4281 23.1773 90.195 23.3399 89.9142 23.4549C89.6335 23.565 89.3101 23.62 88.9441 23.62Z" fill="white"/>
<path d="M50.9332 33.1489V29.0215C50.9332 28.5663 51.0686 28.2036 51.3393 27.9334C51.61 27.6582 51.9961 27.5207 52.4974 27.5207C52.6679 27.5207 52.8308 27.5382 52.9862 27.5732C53.1466 27.6082 53.282 27.6632 53.3923 27.7383L53.084 28.5863C53.0188 28.5413 52.9461 28.5062 52.8659 28.4812C52.7857 28.4562 52.7004 28.4437 52.6102 28.4437C52.4397 28.4437 52.3069 28.4937 52.2116 28.5938C52.1214 28.6888 52.0763 28.8339 52.0763 29.029V29.4043L52.1064 29.9071V33.1489H50.9332ZM50.3091 30.1022V29.2016H53.114V30.1022H50.3091Z" fill="white"/>
<path d="M55.4055 33.209C55.0696 33.209 54.7688 33.1439 54.5031 33.0139C54.2424 32.8838 54.0394 32.6862 53.894 32.421C53.7486 32.1509 53.6759 31.8082 53.6759 31.3929V29.1116H54.849V31.2203C54.849 31.5555 54.9192 31.8032 55.0596 31.9633C55.205 32.1183 55.408 32.1959 55.6687 32.1959C55.8492 32.1959 56.0096 32.1584 56.15 32.0833C56.2904 32.0033 56.4007 31.8832 56.4809 31.7231C56.5611 31.558 56.6012 31.3529 56.6012 31.1078V29.1116H57.7743V33.1489H56.6614V32.0383L56.8644 32.361C56.729 32.6412 56.5285 32.8538 56.2628 32.9989C56.0021 33.1389 55.7164 33.209 55.4055 33.209Z" fill="white"/>
<path d="M60.5155 33.209C60.0393 33.209 59.6683 33.0889 59.4026 32.8488C59.1369 32.6036 59.004 32.2409 59.004 31.7606V28.2186H60.1771V31.7456C60.1771 31.9157 60.2223 32.0483 60.3125 32.1434C60.4027 32.2334 60.5256 32.2784 60.681 32.2784C60.8665 32.2784 61.0244 32.2284 61.1547 32.1284L61.4706 32.9538C61.3503 33.0389 61.2049 33.1039 61.0344 33.1489C60.869 33.189 60.696 33.209 60.5155 33.209ZM58.3799 30.1022V29.2016H61.1848V30.1022H58.3799Z" fill="white"/>
<path d="M63.8362 33.209C63.5003 33.209 63.1995 33.1439 62.9338 33.0139C62.6731 32.8838 62.47 32.6862 62.3246 32.421C62.1792 32.1509 62.1066 31.8082 62.1066 31.3929V29.1116H63.2797V31.2203C63.2797 31.5555 63.3499 31.8032 63.4902 31.9633C63.6356 32.1183 63.8387 32.1959 64.0994 32.1959C64.2798 32.1959 64.4403 32.1584 64.5806 32.0833C64.721 32.0033 64.8313 31.8832 64.9115 31.7231C64.9917 31.558 65.0318 31.3529 65.0318 31.1078V29.1116H66.205V33.1489H65.092V32.0383L65.295 32.361C65.1597 32.6412 64.9591 32.8538 64.6934 32.9989C64.4327 33.1389 64.147 33.209 63.8362 33.209Z" fill="white"/>
<path d="M67.2918 33.1489V29.1116H68.4122V30.2523L68.2543 29.9221C68.3746 29.6369 68.5677 29.4218 68.8334 29.2767C69.0991 29.1266 69.4224 29.0516 69.8034 29.0516V30.1322C69.7533 30.1272 69.7082 30.1247 69.6681 30.1247C69.628 30.1197 69.5854 30.1172 69.5402 30.1172C69.2194 30.1172 68.9587 30.2097 68.7582 30.3948C68.5626 30.5749 68.4649 30.8576 68.4649 31.2428V33.1489H67.2918Z" fill="white"/>
<path d="M72.4795 33.209C72.0182 33.209 71.6121 33.1189 71.2612 32.9388C70.9153 32.7587 70.6471 32.5136 70.4566 32.2034C70.2661 31.8882 70.1708 31.5305 70.1708 31.1303C70.1708 30.725 70.2636 30.3673 70.4491 30.0571C70.6396 29.742 70.8977 29.4968 71.2236 29.3217C71.5495 29.1416 71.918 29.0516 72.3291 29.0516C72.7251 29.0516 73.0811 29.1366 73.3969 29.3067C73.7177 29.4718 73.9709 29.7119 74.1564 30.0271C74.3419 30.3373 74.4347 30.71 74.4347 31.1453C74.4347 31.1903 74.4321 31.2428 74.4271 31.3029C74.4221 31.3579 74.4171 31.4104 74.4121 31.4605H71.1259V30.7776H73.7955L73.3443 30.9802C73.3443 30.7701 73.3016 30.5875 73.2164 30.4324C73.1312 30.2773 73.0134 30.1572 72.863 30.0721C72.7126 29.9821 72.5371 29.9371 72.3366 29.9371C72.136 29.9371 71.9581 29.9821 71.8027 30.0721C71.6523 30.1572 71.5344 30.2798 71.4492 30.4399C71.364 30.595 71.3214 30.7801 71.3214 30.9952V31.1753C71.3214 31.3954 71.369 31.5905 71.4643 31.7606C71.5645 31.9257 71.7024 32.0533 71.8779 32.1434C72.0583 32.2284 72.2689 32.2709 72.5095 32.2709C72.7251 32.2709 72.9131 32.2384 73.0735 32.1734C73.239 32.1083 73.3894 32.0108 73.5247 31.8807L74.1489 32.5561C73.9634 32.7662 73.7303 32.9288 73.4495 33.0439C73.1688 33.154 72.8454 33.209 72.4795 33.209Z" fill="white"/>
<path d="M75.2984 31.3254L75.0653 27.8959H76.464L76.2309 31.3254H75.2984ZM75.7646 33.209C75.5541 33.209 75.3811 33.1414 75.2458 33.0064C75.1104 32.8713 75.0427 32.7112 75.0427 32.5261C75.0427 32.336 75.1104 32.1784 75.2458 32.0533C75.3811 31.9232 75.5541 31.8582 75.7646 31.8582C75.9802 31.8582 76.1532 31.9232 76.2835 32.0533C76.4189 32.1784 76.4866 32.336 76.4866 32.5261C76.4866 32.7112 76.4189 32.8713 76.2835 33.0064C76.1532 33.1414 75.9802 33.209 75.7646 33.209Z" fill="white"/>
<defs>
<linearGradient id="paint0_linear_1646_694" x1="25.0667" y1="60.0146" x2="25.0667" y2="105.837" gradientUnits="userSpaceOnUse">
<stop stop-color="#2256E0"/>
<stop offset="1" stop-color="#2151D7" stop-opacity="0"/>
</linearGradient>
<linearGradient id="paint1_linear_1646_694" x1="58.4889" y1="0" x2="58.4889" y2="70.8748" gradientUnits="userSpaceOnUse">
<stop stop-color="#2258E6"/>
<stop offset="1" stop-color="#2258E6" stop-opacity="0"/>
</linearGradient>
</defs>
</svg>
