<svg width="130" height="103" viewBox="0 0 130 103" fill="none" xmlns="http://www.w3.org/2000/svg">
<path d="M48.3219 98.7336C47.5568 95.2587 44.9259 94.4269 43.2883 93.8902C41.8521 93.4073 39.436 93.7158 37.624 93.4609C36.9913 93.4062 36.3771 93.2204 35.8201 92.9155C35.2632 92.6106 34.7759 92.1933 34.3891 91.69C34.5774 91.6747 34.7603 91.6198 34.926 91.529C35.2343 91.6637 35.5819 91.6778 35.9001 91.5685C36.2183 91.4592 36.4839 91.2344 36.6441 90.9386C36.8477 90.8238 37.0295 90.6739 37.181 90.4959C37.0515 90.635 36.8904 90.7409 36.7112 90.8045C36.729 90.7204 36.729 90.6336 36.7112 90.5496C36.6859 90.6429 36.6499 90.7329 36.6038 90.8179C36.4622 90.8493 36.3158 90.8524 36.173 90.8271C36.0302 90.8018 35.8938 90.7485 35.7716 90.6703C35.9499 90.4484 36.1072 90.2103 36.2414 89.9592C36.4427 90.1739 37.7984 89.7177 37.7984 89.7177C39.0468 90.724 40.3085 89.5165 40.6306 89.1677C40.9528 88.8188 40.7246 88.1614 40.6306 88.5773C40.4057 88.9178 40.056 89.1564 39.6569 89.2417C39.2577 89.327 38.841 89.2523 38.4964 89.0335C38.7143 88.9177 38.9026 88.7535 39.0469 88.5534C39.1912 88.3534 39.2876 88.1229 39.3286 87.8797C39.4789 87.8415 39.6196 87.7728 39.7421 87.6779C39.8646 87.5829 39.9662 87.4637 40.0405 87.3277C40.1148 87.1917 40.1603 87.0419 40.1741 86.8875C40.1879 86.7332 40.1696 86.5777 40.1206 86.4307C41.3286 86.2161 41.4629 85.2232 41.1139 84.217C41.499 84.4198 41.9409 84.4877 42.3692 84.4099C42.7974 84.332 43.1872 84.113 43.4763 83.7877C43.2137 84.0439 42.8691 84.1992 42.5032 84.2262C42.1373 84.2532 41.7736 84.1501 41.4763 83.9353C41.8795 83.5364 42.2271 83.0852 42.5098 82.5936C42.8884 82.4507 43.2351 82.2345 43.5299 81.9573C43.8246 81.6802 44.0618 81.3476 44.2276 80.9786C44.3935 80.6096 44.4849 80.2115 44.4964 79.8072C44.508 79.4028 44.4396 79.0002 44.2951 78.6224C44.1955 78.3243 44.0341 78.0507 43.8212 77.8195C43.6084 77.5882 43.349 77.4046 43.0602 77.2807C43.2481 77.0124 43.0602 75.9391 43.0602 75.9391C44.2145 75.0804 43.9998 74.0608 42.4427 73.2558C44.8991 74.0608 45.1273 76.2074 43.6776 77.1331C45.9729 75.9122 44.4964 73.5241 42.6843 72.746C43.2749 71.7129 42.0669 69.9151 42.0669 69.9151C42.1936 70.1276 42.2691 70.3667 42.2875 70.6134C42.3059 70.8601 42.2667 71.1077 42.173 71.3367C42.0793 71.5657 41.9336 71.7698 41.7475 71.9329C41.5613 72.0959 41.3398 72.2135 41.1004 72.2764C40.9354 72.1576 40.7825 72.0228 40.6441 71.8739C41.9863 70.3578 39.9864 68.5332 38.832 67.6343C38.3219 60.5102 31.7582 56.1364 28.8723 57.0085C28.1878 55.2241 22.8187 52.9433 17.0066 59.1015C14.2727 62.0783 12.6882 65.9307 12.5368 69.9688V69.8346C12.4563 71.5787 11.3556 72.2496 10.8322 71.4043L10.9932 71.2702L10.8187 71.3507C10.6258 70.9739 10.5377 70.5522 10.5637 70.1298C10.4828 70.5819 10.5341 71.0477 10.7113 71.4714C10.237 71.9451 9.96714 72.5856 9.95968 73.2558C9.23485 73.0545 8.6174 72.3971 8.84559 70.9616C8.93099 70.6349 9.11948 70.3445 9.3831 70.1334C9.64672 69.9223 9.97141 69.8018 10.309 69.7897C10.6466 69.7776 10.979 69.8747 11.257 70.0665C11.535 70.2582 11.7438 70.5345 11.8523 70.8542C11.3556 68.8552 7.99995 69.1906 8.37579 72.1959C8.37579 72.1959 6.92614 73.4704 8.6174 75.3219C6.59057 75.6171 7.07379 77.804 7.50331 78.5955C7.29379 78.9524 7.16204 79.3494 7.11668 79.7607C7.07131 80.172 7.11337 80.5882 7.24008 80.9821C7.3668 81.376 7.57532 81.7387 7.85199 82.0464C8.12867 82.3542 8.46725 82.6001 8.84559 82.768C8.4966 83.2108 7.50331 83.9621 6.44292 81.3593C6.48013 81.7729 6.60705 82.1733 6.81486 82.5329C7.02266 82.8924 7.30636 83.2023 7.6462 83.4411C7.98604 83.6799 8.37386 83.8418 8.78267 83.9156C9.19147 83.9893 9.61145 83.9732 10.0134 83.8682C9.81261 84.2443 9.6507 84.6399 9.53015 85.0488C9.12499 84.8136 8.74689 84.5347 8.40264 84.217C8.40264 84.217 8.56371 84.9147 8.85901 85.0757H8.29525C8.12674 84.7821 7.97873 84.4773 7.8523 84.1633C7.86997 84.485 7.9379 84.8019 8.05365 85.1025C7.6018 85.1577 7.14334 85.1118 6.71137 84.9683L7.62412 85.7465C7.62412 85.7465 8.34895 86.0416 8.96639 86.2295C8.87305 86.4837 8.81874 86.7506 8.80532 87.021C8.71662 87.1802 8.65322 87.3522 8.6174 87.5309C8.48352 87.4042 8.36216 87.2649 8.25499 87.1149C8.35908 87.3015 8.47567 87.4808 8.60398 87.6516C8.59689 87.723 8.59689 87.7949 8.60398 87.8663V87.7187C8.93995 88.1794 9.37003 88.5636 9.86572 88.8457C9.3432 88.7009 8.86707 88.4234 8.48366 88.0402C8.10025 87.657 7.82263 87.1811 7.67781 86.6588C7.46304 87.7455 9.48988 89.9592 10.8724 89.1677C10.957 89.5441 11.1069 89.9029 11.3154 90.2276C11.3397 90.5494 11.4433 90.8603 11.6169 91.1325C11.7905 91.4047 12.0286 91.6298 12.3103 91.7878C12.5919 91.9458 12.9082 92.0318 13.2311 92.0382C13.554 92.0445 13.8734 91.971 14.161 91.8241C14.161 91.9314 14.255 92.0656 14.3221 92.2132C13.5428 92.9706 12.5308 93.4433 11.4496 93.5548C9.62411 93.8097 7.6107 93.3938 5.7852 93.9842C4.59171 94.2329 3.49113 94.8091 2.60682 95.6479C1.72251 96.4868 1.08942 97.5553 0.778519 98.7336C0.434562 100.139 0.174596 101.564 0 103H48.9796C48.8547 101.565 48.635 100.14 48.3219 98.7336ZM43.2749 81.1849C43.6109 80.8695 43.8881 80.497 44.0937 80.0847C44.0916 80.5249 43.9642 80.9554 43.7266 81.326C43.4889 81.6966 43.1507 81.992 42.7514 82.1777C42.9528 81.7618 43.1675 81.413 43.2749 81.1849ZM40.8051 83.3315L40.6575 83.0364C40.8857 83.0364 41.087 83.0364 41.2884 82.9559C41.147 83.1045 40.9841 83.2311 40.8051 83.3315ZM41.7179 82.1375C41.6719 82.315 41.6043 82.4862 41.5165 82.6473C41.1944 82.7251 40.8668 82.7789 40.5367 82.8083C40.3987 82.5711 40.2463 82.3426 40.0803 82.124C40.6236 82.1953 41.1735 82.1998 41.7179 82.1375ZM39.5702 70.4652C39.2439 69.8782 39.0257 69.2375 38.926 68.5735C39.2114 68.7873 39.4256 69.0823 39.5405 69.4198C39.6555 69.7573 39.6659 70.1217 39.5702 70.4652ZM38.8454 87.9736H39.1004C38.9704 88.357 38.6959 88.6746 38.3354 88.8591C38.2981 88.8113 38.2707 88.7566 38.2548 88.6981C38.2011 88.3358 38.4964 88.148 38.8454 87.9736ZM35.5568 91.0191C35.8758 91.1461 36.2312 91.1461 36.5501 91.0191C36.3807 91.164 36.1779 91.2643 35.9599 91.3112C35.742 91.358 35.5158 91.3499 35.3018 91.2875L35.5568 91.0191ZM8.93955 75.7378C8.84396 75.8262 8.7774 75.9414 8.74864 76.0684C8.71989 76.1953 8.73029 76.328 8.77847 76.4489C8.45886 76.8609 8.19276 77.3117 7.98653 77.7905C7.82654 77.9935 7.68291 78.2088 7.557 78.4345C7.03352 76.6367 8.05365 75.8183 8.93955 75.7378ZM8.93955 82.5534C8.27677 82.2194 7.77253 81.6376 7.5363 80.9342C7.30008 80.2309 7.35092 79.4628 7.67781 78.7968C7.53985 79.4777 7.59211 80.1834 7.82888 80.8366C8.06565 81.4897 8.47778 82.0652 9.02008 82.4997L8.93955 82.5534ZM24.7515 68.3051C27.4361 66.4134 31.1542 62.7641 31.3958 62.7239C32.2799 63.8218 32.974 65.0598 33.4495 66.3866C33.4495 66.8696 33.3824 70.1432 33.3824 70.6262C33.4073 71.4744 33.6278 72.3054 34.0267 73.0545C34.0107 73.5587 33.9569 74.061 33.8656 74.5572C33.8656 74.9328 33.4897 76.2745 33.3555 76.8916C33.1877 77.9701 32.918 79.0303 32.5502 80.0579C31.8795 81.0332 31.0701 81.9055 30.1475 82.6473C29.2046 83.3599 28.0962 83.8216 26.926 83.9889H24.7784C21.4495 83.9889 19.2079 81.0641 18.6442 80.0847C18.4294 78.8638 17.3019 73.8998 17.1543 73.2021V72.907C19.7902 71.5506 22.3287 70.013 24.7515 68.3051ZM20.1341 90.2812C20.4372 90.2102 20.7135 90.0535 20.9301 89.8299C21.1466 89.6063 21.2943 89.3252 21.3556 89.0201C21.5519 88.8777 21.7203 88.7003 21.8522 88.4968C21.7967 88.9145 21.634 89.3106 21.38 89.6468C21.126 89.983 20.7893 90.2478 20.4026 90.4154L20.1341 90.2812ZM12.8858 88.3627C12.9649 88.4288 13.0608 88.4713 13.1629 88.4856C13.2649 88.4998 13.3689 88.4851 13.463 88.4432C13.5103 88.9056 13.628 89.358 13.812 89.7848C13.58 89.7497 13.3612 89.6545 13.1775 89.5085C12.9938 89.3626 12.8516 89.171 12.765 88.953C12.7887 88.7532 12.8291 88.5557 12.8858 88.3627ZM14.0133 90.1068C14.0872 90.2082 14.1837 90.2909 14.2952 90.3483V90.4556C13.8875 90.5359 13.468 90.5359 13.0603 90.4556C12.8428 90.191 12.7242 89.859 12.7248 89.5165C12.8796 89.7074 13.0764 89.86 13.3 89.9623C13.5235 90.0647 13.7676 90.1142 14.0133 90.1068ZM12.5368 88.0004V88.0675L12.4697 88.2822C12.4582 88.2111 12.4582 88.1386 12.4697 88.0675L12.5368 88.0004ZM10.7382 71.5251C10.9873 71.9992 11.3962 72.3699 11.8925 72.5715C11.697 72.8495 11.4205 73.0603 11.1006 73.1753C10.9584 73.2284 10.8092 73.26 10.6577 73.2692C10.4774 73.0101 10.3876 72.6988 10.4022 72.3835C10.4167 72.0682 10.5348 71.7665 10.7382 71.5251ZM11.1677 84.4048C11.0603 84.8342 10.7919 85.3842 10.0671 85.2367C10.3826 84.8916 10.7606 84.6093 11.1811 84.4048H11.1677ZM9.28854 86.2429C9.44443 86.2639 9.60244 86.2639 9.75833 86.2429C9.54668 86.281 9.34543 86.3633 9.16773 86.4844C9.20252 86.3987 9.24759 86.3176 9.30196 86.2429H9.28854ZM8.67109 87.5845L8.83216 87.2759C8.88394 87.474 8.98036 87.6576 9.11404 87.8126C8.96218 87.7326 8.81835 87.6383 8.68451 87.5309L8.67109 87.5845ZM9.53015 88.1078C9.37967 87.9754 9.2633 87.8088 9.19087 87.6219C9.11844 87.4351 9.09209 87.2336 9.11404 87.0345C9.3548 86.8053 9.66823 86.6676 9.99994 86.6454C10.8053 86.6454 11.4362 86.4441 11.9597 86.4575C12.0119 86.5336 12.0753 86.6014 12.1476 86.6588C12.1476 86.6588 11.0469 88.5371 9.54357 88.0541L9.53015 88.1078ZM12.2147 88.3627C12.2391 88.5272 12.2796 88.689 12.3355 88.8457C12.2325 89.287 12.2325 89.746 12.3355 90.1873C11.9136 89.8772 11.6105 89.4322 11.4764 88.9262C11.7721 88.7707 12.0361 88.5614 12.255 88.309L12.2147 88.3627ZM11.6241 90.5898C11.9814 90.9482 12.4606 91.159 12.9664 91.1801C13.2202 91.358 13.5081 91.4814 13.812 91.5424C13.6053 91.6229 13.3845 91.6605 13.1628 91.6531C12.9411 91.6457 12.7233 91.5934 12.5224 91.4993C12.3216 91.4052 12.142 91.2713 11.9945 91.1058C11.847 90.9402 11.7347 90.7464 11.6644 90.5361L11.6241 90.5898ZM13.5301 90.8045C13.8072 90.8242 14.0853 90.8242 14.3623 90.8045C14.0975 90.8419 13.8277 90.8237 13.5704 90.7508L13.5301 90.8045ZM20.6844 90.6435C21.1129 90.3776 21.463 90.0027 21.6988 89.5572C21.9347 89.1116 22.0479 88.6114 22.0267 88.1078C22.0651 87.9129 22.0598 87.7119 22.011 87.5193C21.9623 87.3267 21.8714 87.1474 21.7448 86.9942C20.8724 85.8001 21.4361 85.8001 21.0603 84.9817C20.6844 84.1633 21.1811 83.9353 20.2549 83.1303V82.5802C21.4743 83.6791 23.0435 84.3112 24.6844 84.3646H26.8455C28.0271 84.1943 29.1479 83.7332 30.1072 83.0229C30.1072 84.056 30.4294 86.0282 30.4294 86.0282C30.1072 86.149 29.8388 86.6722 29.8388 86.6722C29.1005 86.7393 28.9797 87.115 28.926 88.3224C28.8723 89.5299 30.2683 89.8251 30.2683 89.8251C30.2406 90.0573 30.2876 90.2922 30.4025 90.4959C28.8949 91.2196 27.2465 91.6031 25.5741 91.6194C23.9017 91.6356 22.2461 91.2841 20.7247 90.5898L20.6844 90.6435ZM30.0804 89.6238C30.0804 89.6238 29.0468 88.6444 29.718 87.7992C29.7121 88.4144 29.8548 89.0219 30.1341 89.5702L30.0804 89.6238Z" fill="url(#paint0_linear_1646_703)"/>
<path d="M57.8402 60.6857C55.4463 60.6857 53.5034 62.6277 53.5034 65.0204C53.5034 67.4132 55.4463 69.3551 57.8402 69.3551C60.234 69.3551 62.1769 67.4132 62.1769 65.0204C62.1769 62.6277 60.234 60.6857 57.8402 60.6857ZM70.8504 52.0163C67.6557 52.0163 65.068 54.6026 65.068 57.796C65.068 60.9893 67.6555 63.5756 70.8504 63.5756C74.045 63.5756 76.6327 60.9893 76.6327 57.796C76.6327 54.6026 74.0452 52.0163 70.8504 52.0163ZM96.8708 0C90.0592 0 83.7305 2.93608 79.3215 8.09436C76.4881 6.57722 73.3368 5.77964 70.1276 5.77964C59.3667 5.77964 50.6123 14.5299 50.6123 25.2858C50.6123 36.0416 59.3667 44.7919 70.1276 44.7919H70.2953C72.0473 49.1583 76.2077 52.0163 80.9694 52.0163C85.3756 52.0163 89.374 49.4704 91.3024 45.5605C93.1244 46.0098 94.9941 46.2368 96.8708 46.2367C109.624 46.2367 120 35.8653 120 23.1183C120 10.3713 109.624 0 96.8708 0Z" fill="url(#paint1_linear_1646_703)"/>
<path d="M60.9258 21.4593C60.9258 18.6203 63.2283 16.3188 66.0686 16.3188H72.9258C75.7661 16.3188 78.0686 18.6203 78.0686 21.4593V28.3132C78.0686 31.1522 75.7661 33.4536 72.9258 33.4536H66.0686C63.2283 33.4536 60.9258 31.1522 60.9258 28.3132V21.4593Z" fill="#BDBDBD"/>
<path d="M69.6381 18.6035L69.5557 18.8833V27.003L69.6381 27.0852L73.4089 24.8573L69.6381 18.6035Z" fill="#E0E0E0"/>
<path d="M69.6376 18.6035L65.8667 24.8573L69.6376 27.0852V23.1441V18.6035Z" fill="white"/>
<path d="M69.6383 27.7991L69.5918 27.8557V30.7481L69.6383 30.8836L73.4113 25.5724L69.6383 27.7991Z" fill="#E0E0E0"/>
<path d="M69.6376 30.8837V27.7991L65.8667 25.5724L69.6376 30.8837Z" fill="white"/>
<path d="M69.6372 27.0851L73.408 24.8572L69.6372 23.144V27.0851Z" fill="white"/>
<path d="M65.8667 24.8572L69.6376 27.0851V23.144L65.8667 24.8572Z" fill="#E0E0E0"/>
<path d="M84.5978 19.6512H87.0737V20.5764H84.5978V19.6512ZM84.686 21.7661H87.4852V22.7207H83.5031V17.5803H87.3897V18.5349H84.686V21.7661Z" fill="white"/>
<path d="M89.4975 22.7207V18.5496H87.8518V17.5803H92.3334V18.5496H90.6877V22.7207H89.4975Z" fill="white"/>
<path d="M96.5003 17.5803H97.6905V22.7207H96.5003V17.5803ZM94.164 22.7207H92.9738V17.5803H94.164V22.7207ZM96.5885 20.6131H94.0758V19.6071H96.5885V20.6131Z" fill="white"/>
<path d="M84.9284 32.1922C84.5709 32.1922 84.2158 32.1457 83.8631 32.0527C83.5154 31.9547 83.2166 31.8177 82.9668 31.6414L83.437 30.7308C83.6329 30.8728 83.8582 30.9854 84.1129 31.0686C84.3725 31.1519 84.6346 31.1935 84.899 31.1935C85.1978 31.1935 85.4329 31.1347 85.6043 31.0172C85.7758 30.8997 85.8615 30.7357 85.8615 30.5252C85.8615 30.393 85.8272 30.2755 85.7586 30.1727C85.6901 30.0699 85.5676 29.9916 85.3913 29.9377C85.2199 29.8839 84.9774 29.857 84.6639 29.857H83.3488L83.6133 26.9636H86.7505V27.9183H84.0395L84.6566 27.3749L84.4729 29.4384L83.8558 28.895H84.9431C85.4525 28.895 85.8615 28.966 86.1701 29.1079C86.4835 29.245 86.7113 29.4335 86.8533 29.6734C86.9954 29.9133 87.0664 30.185 87.0664 30.4885C87.0664 30.792 86.9905 31.0735 86.8386 31.333C86.6868 31.5876 86.4517 31.7956 86.1333 31.9572C85.8199 32.1139 85.4182 32.1922 84.9284 32.1922Z" fill="white"/>
<path d="M88.2196 32.1041L91.7314 26.9636H92.6057L89.0939 32.1041H88.2196ZM88.6677 29.7395C88.4179 29.7395 88.1975 29.6832 88.0065 29.5706C87.8155 29.4531 87.6637 29.2891 87.551 29.0786C87.4432 28.8631 87.3894 28.611 87.3894 28.3222C87.3894 28.0333 87.4432 27.7837 87.551 27.5731C87.6637 27.3626 87.8155 27.1986 88.0065 27.0811C88.1975 26.9636 88.4179 26.9049 88.6677 26.9049C88.9175 26.9049 89.1379 26.9636 89.329 27.0811C89.52 27.1986 89.6694 27.3626 89.7771 27.5731C89.8849 27.7837 89.9388 28.0333 89.9388 28.3222C89.9388 28.611 89.8849 28.8631 89.7771 29.0786C89.6694 29.2891 89.52 29.4531 89.329 29.5706C89.1379 29.6832 88.9175 29.7395 88.6677 29.7395ZM88.6677 29.1373C88.8294 29.1373 88.9592 29.0712 89.0571 28.939C89.1551 28.8019 89.2041 28.5963 89.2041 28.3222C89.2041 28.048 89.1551 27.8448 89.0571 27.7127C88.9592 27.5756 88.8294 27.507 88.6677 27.507C88.511 27.507 88.3812 27.5756 88.2783 27.7127C88.1804 27.8448 88.1314 28.048 88.1314 28.3222C88.1314 28.5914 88.1804 28.7946 88.2783 28.9317C88.3812 29.0688 88.511 29.1373 88.6677 29.1373ZM92.1575 32.1628C91.9126 32.1628 91.6922 32.1065 91.4963 31.9939C91.3053 31.8764 91.1559 31.7124 91.0481 31.5019C90.9404 31.2865 90.8865 31.0344 90.8865 30.7455C90.8865 30.4567 90.9404 30.207 91.0481 29.9965C91.1559 29.786 91.3053 29.622 91.4963 29.5045C91.6922 29.387 91.9126 29.3282 92.1575 29.3282C92.4122 29.3282 92.6351 29.387 92.8261 29.5045C93.0171 29.622 93.1665 29.786 93.2743 29.9965C93.382 30.207 93.4359 30.4567 93.4359 30.7455C93.4359 31.0344 93.382 31.2865 93.2743 31.5019C93.1665 31.7124 93.0171 31.8764 92.8261 31.9939C92.6351 32.1065 92.4122 32.1628 92.1575 32.1628ZM92.1575 31.5606C92.3192 31.5606 92.449 31.4946 92.5469 31.3624C92.6449 31.2253 92.6939 31.0197 92.6939 30.7455C92.6939 30.4763 92.6449 30.2731 92.5469 30.136C92.449 29.9989 92.3192 29.9304 92.1575 29.9304C92.0008 29.9304 91.871 29.9989 91.7681 30.136C91.6702 30.2682 91.6212 30.4714 91.6212 30.7455C91.6212 31.0197 91.6702 31.2253 91.7681 31.3624C91.871 31.4946 92.0008 31.5606 92.1575 31.5606Z" fill="white"/>
<path d="M95.6485 32.1041L97.9407 26.9636H99.1162L101.416 32.1041H100.167L98.286 27.5658H98.7562L96.8681 32.1041H95.6485ZM96.7946 31.0025L97.1105 30.0993H99.7554L100.079 31.0025H96.7946Z" fill="white"/>
<path d="M101.949 32.1041V26.9636H104.176C104.636 26.9636 105.033 27.0395 105.366 27.1913C105.699 27.3381 105.956 27.5511 106.137 27.8302C106.318 28.1092 106.409 28.4421 106.409 28.8289C106.409 29.2107 106.318 29.5412 106.137 29.8202C105.956 30.0993 105.699 30.3147 105.366 30.4665C105.033 30.6133 104.636 30.6868 104.176 30.6868H102.611L103.14 30.1507V32.1041H101.949ZM103.14 30.2829L102.611 29.7174H104.109C104.477 29.7174 104.751 29.6391 104.932 29.4824C105.113 29.3258 105.204 29.1079 105.204 28.8289C105.204 28.5449 105.113 28.3246 104.932 28.168C104.751 28.0113 104.477 27.933 104.109 27.933H102.611L103.14 27.3675V30.2829Z" fill="white"/>
<path d="M108.537 32.1041V30.0038L108.809 30.7235L106.546 26.9636H107.81L109.544 29.8496H108.816L110.557 26.9636H111.726L109.463 30.7235L109.727 30.0038V32.1041H108.537Z" fill="white"/>
<defs>
<linearGradient id="paint0_linear_1646_703" x1="24.4898" y1="58.469" x2="24.4898" y2="100.125" gradientUnits="userSpaceOnUse">
<stop stop-color="#2256E0"/>
<stop offset="1" stop-color="#2151D7" stop-opacity="0"/>
</linearGradient>
<linearGradient id="paint1_linear_1646_703" x1="85.3062" y1="0" x2="85.3062" y2="69.3551" gradientUnits="userSpaceOnUse">
<stop stop-color="#2258E6"/>
<stop offset="1" stop-color="#2258E6" stop-opacity="0"/>
</linearGradient>
</defs>
</svg>
