<svg width="124" height="30" viewBox="0 0 124 30" fill="none" xmlns="http://www.w3.org/2000/svg">
<path d="M14.7441 0.332658C14.9755 -0.0253872 15.5196 -0.110779 15.8519 0.156881C16.0457 0.294207 16.1315 0.525913 16.1661 0.751626C17.9908 1.13414 19.8164 1.51466 21.6415 1.89467C21.7123 1.70541 21.8102 1.51216 21.9914 1.40579C22.3312 1.17609 22.8417 1.28245 23.0576 1.63101C23.2217 1.86471 23.2041 2.17032 23.1002 2.4245C24.6332 3.78827 26.1622 5.15703 27.6942 6.5213C27.8724 6.45238 28.0656 6.39246 28.2579 6.4384C28.6248 6.50632 28.9034 6.86985 28.8708 7.24038C28.8667 7.42715 28.7643 7.58894 28.6599 7.73625C29.199 9.41163 29.7477 11.0835 30.2868 12.7584C30.5237 12.7389 30.7822 12.7669 30.9649 12.9342C31.2957 13.1973 31.3289 13.7386 31.0337 14.0402C30.8821 14.217 30.6482 14.2799 30.4243 14.2999C30.3139 16.5176 30.1959 18.7353 30.0845 20.953C30.2808 21.0453 30.476 21.1747 30.5609 21.3834C30.7446 21.7589 30.5498 22.2558 30.1593 22.4081C29.8902 22.53 29.58 22.4551 29.3446 22.2948C27.7464 23.7684 26.1466 25.2405 24.5469 26.7127C24.6929 26.8789 24.8129 27.0847 24.7958 27.3139C24.7999 27.7304 24.4063 28.0934 23.9897 28.0599C23.6915 28.0594 23.4471 27.8527 23.3055 27.607C21.508 28.1458 19.7105 28.6851 17.9135 29.2255C17.8874 29.5525 17.68 29.8636 17.3553 29.959C16.8995 30.1288 16.4041 29.7448 16.3458 29.2884C14.2998 29.1016 12.2539 28.9129 10.2079 28.7251C10.115 28.9039 9.99704 29.0841 9.8063 29.1705C9.45091 29.3588 8.96752 29.2095 8.7823 28.8539C8.63071 28.5963 8.67789 28.2742 8.82446 28.0255C7.12734 26.5464 5.43221 25.0647 3.73709 23.5836C3.56342 23.691 3.36765 23.7869 3.15683 23.7604C2.7387 23.7394 2.39535 23.3299 2.45107 22.9165C2.46513 22.6798 2.62023 22.4875 2.79341 22.3387C2.1499 20.4771 1.5114 18.6134 0.869897 16.7513C0.692705 16.7393 0.50447 16.7278 0.354384 16.6225C0.161631 16.5051 0.0486902 16.2969 0 16.0827V15.8859C0.0466823 15.5284 0.346855 15.2557 0.697725 15.1998C1.35027 13.0066 2.00132 10.8128 2.65336 8.61963C2.46663 8.4898 2.29597 8.31302 2.25782 8.08082C2.16445 7.67933 2.45509 7.24288 2.86368 7.17397C3.11868 7.11604 3.37368 7.21991 3.57095 7.37721C4.70487 5.98248 5.84232 4.59025 6.97524 3.19452C6.84323 2.92387 6.82867 2.5833 7.01992 2.33611C7.26136 1.98656 7.80548 1.91465 8.13025 2.1903C8.31096 2.32213 8.38625 2.53985 8.42892 2.75009C10.4955 2.16383 12.5636 1.58057 14.6306 0.995316C14.597 0.770102 14.6015 0.522916 14.7441 0.332658ZM16.143 0.937889C16.0577 1.2435 15.7952 1.50067 15.4699 1.52914C15.1692 1.57208 14.8786 1.40729 14.7115 1.1656C12.7448 1.7179 10.7816 2.28218 8.81342 2.82849C11.0241 2.76057 13.2347 2.6607 15.4453 2.5813C15.5452 2.29117 15.8007 2.04898 16.1169 2.02451C16.4472 1.98007 16.7605 2.18281 16.911 2.46795C18.4099 2.33262 19.9072 2.17831 21.4071 2.05397C21.4071 2.02651 21.4056 1.99904 21.4046 1.97158L21.3725 2.0295C19.6297 1.66347 17.8869 1.29943 16.143 0.937889ZM16.9723 2.64622C16.9803 2.84297 16.9482 3.04072 16.8523 3.215C17.4411 3.70987 18.0289 4.20474 18.6172 4.69961C19.6523 3.93708 20.6858 3.17255 21.7218 2.41152C21.6972 2.3441 21.6736 2.27669 21.6501 2.20977C20.0905 2.35509 18.5319 2.5039 16.9723 2.64622ZM18.7643 4.82495C20.6672 6.42492 22.5717 8.02389 24.4706 9.62885C24.5705 9.60238 24.6698 9.57642 24.7702 9.55245C24.078 7.29382 23.3873 5.03469 22.6961 2.77506C22.3904 2.87743 22.0486 2.79453 21.8242 2.56582C20.8042 3.31936 19.7818 4.06891 18.7643 4.82495ZM22.8608 2.68018C23.5635 4.97476 24.2658 7.26935 24.9675 9.56443C25.0709 9.60139 25.1733 9.64283 25.2747 9.68628C25.9985 8.99715 26.7304 8.31702 27.4567 7.63089C27.261 7.32378 27.2961 6.90631 27.5496 6.64214C26.0277 5.28487 24.5062 3.92659 22.9843 2.56932C22.9431 2.60627 22.9019 2.64322 22.8608 2.68018ZM8.38475 3.03772C8.30293 3.22848 8.16288 3.38628 7.98167 3.48915C8.4234 5.21945 8.8586 6.95175 9.30534 8.68155C10.0824 8.45484 10.8614 8.23512 11.6405 8.0154C11.7439 7.98194 11.8699 7.97096 11.9336 7.87058C13.1443 6.32904 14.3576 4.789 15.5673 3.24646C15.48 3.09964 15.4318 2.93535 15.4167 2.76607C13.0731 2.85745 10.7289 2.94534 8.38475 3.03772ZM7.09923 3.33734C5.96329 4.73656 4.82283 6.13229 3.6869 7.53101C3.83498 7.81416 3.82142 8.18419 3.60157 8.42738C3.41684 8.65259 3.10814 8.72899 2.82804 8.68305C2.19808 10.8133 1.55959 12.9411 0.932642 15.0719C1.75987 13.7222 2.57255 12.3639 3.39325 11.0101C3.19849 10.7424 3.16837 10.3584 3.36916 10.0853C3.53731 9.83209 3.85506 9.72772 4.1492 9.76068C5.17371 7.65286 6.20272 5.54654 7.23024 3.44021C7.18657 3.40625 7.1429 3.3718 7.09923 3.33734ZM12.1796 7.8596C12.9235 7.64887 13.6669 7.43663 14.4108 7.2244C14.4113 6.87135 14.6487 6.52379 15.0036 6.44539C15.3158 6.3605 15.6431 6.50432 15.8379 6.75051C16.7118 6.10383 17.5877 5.45915 18.4631 4.81397C17.8864 4.32758 17.3091 3.8432 16.7328 3.35682C16.4432 3.6065 15.9995 3.61798 15.6973 3.38478C14.5242 4.87589 13.3516 6.36749 12.1796 7.8596ZM7.39237 3.5266C6.37389 5.62494 5.34939 7.72027 4.3269 9.81611C4.41926 9.88003 4.50911 9.94794 4.59595 10.0194C6.10534 9.5909 7.61424 9.15995 9.12313 8.73049C8.68492 7.00418 8.24319 5.27838 7.80699 3.55107C7.66795 3.55606 7.52941 3.54757 7.39237 3.5266ZM15.9212 6.91829C15.9382 7.00219 15.9553 7.08658 15.9724 7.17097C18.7025 8.08481 21.4307 9.00464 24.1604 9.92148C24.2116 9.86006 24.2643 9.79913 24.3175 9.73871C22.415 8.13874 20.5121 6.53977 18.6122 4.93731C17.7127 5.59398 16.8192 6.25963 15.9212 6.91829ZM15.9548 7.35823C15.886 7.59693 15.7199 7.79168 15.5 7.90654C15.7811 8.73598 16.0547 9.56793 16.3398 10.3964C18.8747 10.3225 21.4101 10.2536 23.945 10.1841C24.0143 10.1936 24.07 10.1597 24.1107 10.1067C21.3966 9.17892 18.6724 8.27757 15.9548 7.35823ZM12.1394 8.06284C12.0651 8.08681 11.9783 8.10029 11.9336 8.1717C11.3945 8.85783 10.8549 9.54296 10.3168 10.2296C10.381 10.3345 10.4363 10.4443 10.4834 10.5577C12.3698 10.5042 14.2562 10.4528 16.142 10.3999C15.8665 9.5869 15.5954 8.77194 15.3223 7.95797C14.9414 8.00741 14.5604 7.7757 14.4439 7.40917C13.6749 7.6239 12.9084 7.84761 12.1394 8.06284ZM27.5787 7.77021C26.8569 8.45185 26.1331 9.13148 25.4087 9.81062C25.5558 10.0014 25.6196 10.2391 25.5894 10.4778C26.9603 11.4316 28.3342 12.3819 29.7045 13.3366C29.7758 13.1224 29.9183 12.9401 30.1151 12.8263C29.573 11.1724 29.0494 9.5125 28.4948 7.86259C28.1996 8.0134 27.8362 7.97845 27.5787 7.77021ZM9.34751 8.85983C9.44338 9.22686 9.53223 9.59639 9.63061 9.96293C9.82286 9.95743 10.0126 10.0004 10.1752 10.1037C10.6792 9.47005 11.1766 8.83136 11.6781 8.19567C10.9011 8.41689 10.124 8.63761 9.34751 8.85983ZM4.70337 10.1816C4.78067 10.3879 4.80727 10.6231 4.71291 10.8288C4.64464 11.0016 4.49857 11.124 4.34647 11.2233C5.12351 14.214 5.90607 17.2037 6.68059 20.1949C6.79554 20.1834 6.91049 20.1755 7.02594 20.1715C7.82205 17.2647 8.61113 14.3563 9.41125 11.451C9.16429 11.3162 8.961 11.076 8.95045 10.7859C8.91833 10.4488 9.14321 10.1367 9.44689 10.0049C9.35403 9.63934 9.26318 9.2738 9.1663 8.90926C7.67949 9.33572 6.19118 9.75769 4.70337 10.1816ZM16.397 10.5776C16.7479 11.6193 17.0968 12.661 17.4461 13.7027C17.6454 13.6622 17.8522 13.6752 18.0395 13.7581C20.0553 12.693 22.0652 11.6173 24.079 10.5492C24.0715 10.5032 24.0559 10.4109 24.0484 10.3644C21.498 10.4358 18.9475 10.5057 16.397 10.5776ZM10.5 10.7394C10.4925 10.7854 10.4769 10.8773 10.4694 10.9232C12.6695 11.9384 14.8741 12.9451 17.0757 13.9574C17.1414 13.8979 17.2087 13.8395 17.2765 13.7821C16.9206 12.7159 16.5597 11.6513 16.2043 10.5846C14.3029 10.6316 12.4014 10.692 10.5 10.7394ZM25.5302 10.6625C25.4594 10.7644 25.3801 10.8603 25.2923 10.9487C25.4785 11.9189 25.6713 12.8877 25.8575 13.858C27.1425 13.81 28.427 13.7571 29.712 13.7087C29.705 13.6562 29.698 13.6038 29.6915 13.5519C28.304 12.5896 26.9161 11.6273 25.5302 10.6625ZM18.2156 13.8775C18.2804 13.9653 18.3436 14.0552 18.4014 14.1481C20.0578 14.0877 21.7133 14.0193 23.3698 13.9559C23.7417 12.9801 24.1132 12.0038 24.4856 11.0276C24.3551 10.9472 24.2417 10.8433 24.1498 10.7215C22.1716 11.7736 20.1939 12.8258 18.2156 13.8775ZM24.6598 11.089C24.2994 12.0428 23.934 12.9946 23.5721 13.9479C24.2718 13.9209 24.9715 13.8929 25.6713 13.866C25.4885 12.9262 25.3023 11.9874 25.1231 11.047C24.9715 11.0855 24.8154 11.101 24.6598 11.089ZM3.52778 11.1439C2.70506 12.5147 1.87482 13.88 1.04809 15.2482C1.2037 15.3306 1.3578 15.433 1.44263 15.5928C1.58971 15.833 1.56612 16.1391 1.43912 16.3823C3.03435 17.7745 4.63309 19.1627 6.22732 20.5555C6.30814 20.4491 6.40301 20.3542 6.51043 20.2738C5.73138 17.2776 4.95084 14.2819 4.17029 11.2862C3.9444 11.3147 3.71902 11.2663 3.52778 11.1439ZM10.2495 11.3027C11.2273 12.67 12.2001 14.0407 13.174 15.411C13.5037 15.3451 13.8471 15.4819 14.0353 15.7591C14.9715 15.2567 15.9106 14.7603 16.8488 14.261C16.9095 14.231 16.9542 14.1781 16.9989 14.1291C14.8053 13.1139 12.6042 12.1152 10.4107 11.1C10.3574 11.1679 10.3032 11.2353 10.2495 11.3027ZM9.58845 11.4985C8.79334 14.4083 7.99874 17.3181 7.20313 20.2279C7.23375 20.2439 7.29399 20.2753 7.32461 20.2908C9.09853 19.0154 10.8725 17.7405 12.6464 16.4657C12.5104 16.1036 12.6554 15.6752 12.9963 15.4844C12.0345 14.1251 11.0662 12.7699 10.1009 11.4121C9.93932 11.4825 9.76413 11.511 9.58845 11.4985ZM25.8941 14.0412C26.3419 16.3363 26.7881 18.6309 27.2369 20.9255C27.3774 20.935 27.5165 20.961 27.649 21.0089C28.4893 18.7528 29.3341 16.4986 30.1774 14.2435C30.0162 14.1606 29.8777 14.0412 29.7783 13.8894C28.4837 13.9409 27.1887 13.9908 25.8941 14.0412ZM23.5003 14.1356C22.9366 15.6162 22.3714 17.0964 21.8077 18.577C22.1475 18.7697 22.3026 19.1962 22.1646 19.5617C23.6589 20.129 25.1517 20.6998 26.6456 21.2676C26.755 21.1332 26.8945 21.0294 27.0537 20.9615C26.6049 18.6574 26.1556 16.3533 25.7064 14.0492C24.971 14.0777 24.2357 14.1057 23.5003 14.1356ZM18.4521 14.3324C18.4807 14.6235 18.3567 14.9131 18.1183 15.0859C18.1107 16.0217 18.1198 16.9575 18.1137 17.8939C18.9887 18.2399 19.8661 18.581 20.744 18.919C20.9117 18.602 21.2831 18.4372 21.634 18.5101C22.1887 17.0549 22.7433 15.5988 23.298 14.1431C21.6827 14.206 20.0674 14.269 18.4521 14.3324ZM14.1121 15.9273C14.1367 16.0652 14.1407 16.2055 14.1302 16.3448C15.3971 16.8377 16.6636 17.3316 17.93 17.8254C17.931 16.9446 17.9295 16.0637 17.931 15.1828C17.7041 15.2322 17.4532 15.2252 17.2564 15.0884C17.0325 14.9506 16.9186 14.6949 16.898 14.4407C15.9729 14.9426 15.0397 15.43 14.1121 15.9273ZM30.208 14.667C29.4244 16.8227 28.6032 18.9655 27.8066 21.1168C28.0957 21.3824 28.157 21.8593 27.905 22.1699C27.7629 22.3737 27.5155 22.4446 27.2851 22.492C26.3795 23.7984 25.4805 25.1102 24.5845 26.423C26.1331 25.0033 27.6756 23.5771 29.2226 22.1549C29.1037 21.9522 29.0414 21.706 29.1182 21.4763C29.2136 21.1397 29.5544 20.92 29.8993 20.9265C29.968 19.5907 30.0368 18.2554 30.1056 16.9196C30.1367 16.1685 30.1989 15.4185 30.208 14.667ZM1.0506 16.7034C1.68709 18.5565 2.32508 20.4087 2.96257 22.2613C3.27278 22.1699 3.61361 22.2663 3.82795 22.5075C4.61302 22.0805 5.39858 21.6546 6.18265 21.2271C6.13797 21.0668 6.13044 20.8995 6.15403 20.7357C4.54324 19.335 2.93346 17.9333 1.32518 16.5291C1.23532 16.5895 1.14397 16.6474 1.0506 16.7034ZM14.0644 16.5181C13.9796 16.6444 13.8732 16.7548 13.7497 16.8442C15.0458 18.7787 16.3403 20.7148 17.6344 22.6508C17.7323 22.6164 17.8311 22.5839 17.9305 22.5529C17.93 21.0429 17.931 19.5333 17.93 18.0237C16.641 17.5228 15.3535 17.0195 14.0644 16.5181ZM7.47921 20.4092C7.57006 20.5305 7.63833 20.6668 7.67949 20.8131C10.8664 21.6246 14.0569 22.4226 17.2433 23.2361C17.285 23.0608 17.3653 22.897 17.4848 22.7612C16.1802 20.8126 14.8786 18.8631 13.5735 16.9156C13.2648 16.983 12.9395 16.8721 12.7413 16.627C10.9864 17.8869 9.23306 19.1483 7.47921 20.4092ZM18.1157 18.0966C18.1152 19.5842 18.1158 21.0723 18.1152 22.5599C18.1915 22.5779 18.2683 22.5974 18.3451 22.6159C19.2482 21.7225 20.1532 20.8316 21.0608 19.9432C20.7706 19.765 20.6225 19.4249 20.6747 19.0913C19.8199 18.7632 18.9691 18.4272 18.1157 18.0966ZM22.0702 19.724C21.8734 19.9677 21.5532 20.0776 21.246 20.0182C20.3339 20.9185 19.4193 21.8164 18.5068 22.7157C18.6539 22.8541 18.7573 23.0303 18.7969 23.2286C21.3966 22.8381 23.9947 22.4406 26.5949 22.0531C26.5161 21.8543 26.5 21.6391 26.5587 21.4329C25.0624 20.8641 23.567 20.2923 22.0702 19.724ZM7.68903 21.0074C7.66092 21.1083 7.6303 21.2086 7.59717 21.3085C9.51115 22.8451 11.4201 24.3881 13.3346 25.9251C14.6221 25.1327 15.9116 24.3442 17.1992 23.5527C17.2735 23.5397 17.3046 23.4233 17.2092 23.4178C14.0373 22.6104 10.8619 21.8124 7.68903 21.0074ZM3.92633 22.6658C4.03024 22.9225 3.99811 23.2096 3.85957 23.4473C5.50801 24.88 7.14942 26.3202 8.79635 27.7548C8.23516 25.7339 7.66945 23.7145 7.10726 21.6935C6.79454 21.7574 6.46926 21.6401 6.2725 21.3909C5.48994 21.8149 4.70789 22.2403 3.92633 22.6658ZM7.27993 21.6211C7.85719 23.6955 8.43896 25.7688 9.0132 27.8442C9.32994 27.6455 9.76263 27.6849 10.0272 27.9526C11.0727 27.3129 12.1163 26.6697 13.1624 26.0305C11.2755 24.5025 9.38013 22.9844 7.49025 21.4598C7.42048 21.5138 7.35071 21.5677 7.27993 21.6211ZM26.3549 22.2738C23.8361 22.6553 21.3173 23.0338 18.7984 23.4163C18.7663 23.5327 18.7241 23.6455 18.6749 23.7554C20.2571 24.7696 21.8413 25.7803 23.4205 26.799C23.6343 26.5708 23.9596 26.4705 24.2648 26.5534C25.2059 25.1866 26.1411 23.8163 27.0853 22.4516C26.9457 22.3971 26.8278 22.3052 26.7028 22.2273C26.5853 22.2308 26.4704 22.2573 26.3549 22.2738ZM16.3458 24.2947C15.3926 24.8795 14.4394 25.4637 13.4867 26.049C13.7597 26.2687 14.0323 26.4884 14.3054 26.7077C14.5875 26.478 15.0041 26.47 15.2987 26.6822C15.871 25.8592 16.4477 25.0398 17.0215 24.2183C17.1424 24.0405 17.2795 23.8723 17.3769 23.6795C17.02 23.8608 16.6912 24.0925 16.3458 24.2947ZM15.4318 26.8155C15.5663 27.0193 15.6351 27.2759 15.5568 27.5141C15.4574 27.8727 15.0694 28.1174 14.7004 28.0525C14.3912 28.0155 14.1483 27.7683 14.0579 27.4802C12.809 27.8008 11.5596 28.1204 10.3108 28.4415C10.2365 28.4235 10.1788 28.5683 10.2842 28.5463C12.3081 28.7341 14.3325 28.9179 16.3564 29.1046C16.4277 28.7221 16.7795 28.4345 17.1716 28.4445C17.3924 26.9903 17.6113 25.5361 17.8311 24.082C17.7072 24.0301 17.5892 23.9651 17.4803 23.8872C16.7981 24.8635 16.1139 25.8388 15.4318 26.8155ZM18.0209 24.11C17.787 25.5631 17.5792 27.0218 17.3548 28.4769C17.6133 28.5693 17.8096 28.78 17.8909 29.0402C19.6779 28.4994 21.4673 27.9666 23.2548 27.4282C23.2478 27.2669 23.2654 27.1057 23.3226 26.9543C21.7334 25.9346 20.1422 24.9174 18.5535 23.8967C18.4004 24.0216 18.2116 24.075 18.0209 24.11ZM10.1306 28.1074C10.1557 28.1598 10.1818 28.2122 10.2094 28.2642C10.3434 28.2532 10.4724 28.2063 10.6029 28.1753C11.7474 27.8822 12.8908 27.5875 14.0353 27.2959C14.0514 27.1366 14.1016 26.9843 14.1774 26.844C13.8907 26.6138 13.6046 26.3821 13.3175 26.1524C12.2554 26.8045 11.1932 27.4562 10.1306 28.1074Z" fill="white"/>
<path d="M105.277 3.02628C106.588 3.02628 107.898 3.02578 109.209 3.02628C109.209 3.60105 109.209 4.17532 109.209 4.75009C107.762 5.26844 106.335 5.98802 105.277 7.12408C105.277 5.75781 105.277 4.39205 105.277 3.02628Z" fill="white"/>
<path d="M44.4805 3.28194C45.2174 3.07371 45.999 3.0787 46.7524 3.18407C47.5701 3.30092 48.3652 3.54711 49.1242 3.8682C48.8862 4.84196 48.6503 5.81672 48.4134 6.79049C47.8537 6.56178 47.2554 6.40697 46.6475 6.40148C46.28 6.39898 45.8885 6.50235 45.633 6.7795C45.3303 7.10109 45.238 7.55701 45.2144 7.98297C45.2018 8.45138 45.2129 8.91978 45.2089 9.38769C46.2027 9.39018 47.1971 9.38819 48.1915 9.38869C48.191 10.3724 48.1915 11.3557 48.1915 12.3389C47.1971 12.3394 46.2033 12.3389 45.2089 12.3394C45.2094 15.2677 45.2089 18.1955 45.2089 21.1238C43.9023 21.1238 42.5962 21.1243 41.2896 21.1238C41.2896 18.1955 41.2896 15.2672 41.2896 12.3394C40.7429 12.3394 40.1963 12.3394 39.6502 12.3394C39.6497 11.3557 39.6497 10.3724 39.6497 9.38869C40.1963 9.38869 40.7429 9.38869 41.2896 9.38869C41.2966 8.67409 41.2584 7.95451 41.3639 7.24491C41.5004 6.28563 41.8412 5.33284 42.4672 4.5788C42.9817 3.95259 43.698 3.49867 44.4805 3.28194Z" fill="white"/>
<path d="M50.9562 3.35489C52.2628 3.35489 53.5694 3.35539 54.876 3.35489C54.876 4.5324 54.8755 5.7099 54.876 6.8879C53.5694 6.8879 52.2628 6.8879 50.9562 6.8879C50.9562 5.7104 50.9562 4.5324 50.9562 3.35489Z" fill="white"/>
<path d="M72.8462 4.28272C74.1523 4.28272 75.4589 4.28272 76.7655 4.28272C76.7655 5.6365 76.7655 6.99028 76.7655 8.34406C77.6385 8.34456 78.5114 8.34456 79.3843 8.34456C79.3843 9.32631 79.3843 10.3086 79.3843 11.2908C78.5114 11.2908 77.6385 11.2908 76.7655 11.2903C76.7655 13.0686 76.7655 14.8463 76.7655 16.6245C76.7681 16.9297 76.8218 17.2642 77.0451 17.4919C77.2836 17.7336 77.6374 17.826 77.9702 17.8075C78.5435 17.7901 79.0896 17.5823 79.6041 17.3466C79.8571 18.3778 80.1106 19.4095 80.3636 20.4407C79.6061 20.7523 78.8246 21.0105 78.0255 21.1942C76.9728 21.41 75.8495 21.4649 74.8199 21.1138C74.1152 20.8726 73.5013 20.3593 73.1921 19.6792C72.925 19.1358 72.8462 18.5226 72.8462 17.9234C72.8457 15.7127 72.8462 13.5015 72.8462 11.2903C72.3011 11.2913 71.757 11.2898 71.2124 11.2913C71.2078 10.3091 71.2119 9.32681 71.2103 8.34456C71.7555 8.34406 72.3006 8.34456 72.8462 8.34406C72.8462 6.99028 72.8462 5.6365 72.8462 4.28272Z" fill="white"/>
<path d="M107.301 6.75303C107.879 6.34405 108.516 6.00198 109.209 5.83469C109.208 10.9597 109.211 16.0847 109.207 21.2102C107.9 21.2097 106.594 21.2097 105.286 21.2097C105.287 18.216 105.286 15.2223 105.286 12.2286C105.281 11.0321 105.297 9.83561 105.276 8.63913C105.878 7.93852 106.546 7.28934 107.301 6.75303Z" fill="white"/>
<path d="M115.857 8.03243C116.842 7.92906 117.843 7.94304 118.82 8.11332C119.705 8.27112 120.576 8.58622 121.3 9.12404C121.863 9.53602 122.322 10.0863 122.622 10.714C123.007 11.5115 123.145 12.4049 123.149 13.2838C123.153 14.4138 123.149 15.5439 123.151 16.674C123.158 16.9326 123.175 17.2163 123.34 17.4295C123.5 17.6252 123.765 17.6657 124 17.7111V20.9815C123.444 21.1273 122.867 21.1807 122.294 21.1832C121.839 21.1822 121.373 21.1353 120.954 20.9505C120.577 20.7852 120.269 20.4776 120.094 20.1086C119.915 19.758 119.891 19.36 119.844 18.977C119.48 19.4309 119.064 19.8449 118.587 20.181C117.262 21.1318 115.509 21.4768 113.926 21.0584C113.151 20.8501 112.421 20.4427 111.882 19.8449C111.301 19.2097 110.918 18.3878 110.854 17.5279C110.777 16.6759 110.968 15.7921 111.454 15.0795C111.99 14.266 112.835 13.6987 113.738 13.3552C114.7 12.9826 115.745 12.8698 116.771 12.9162C117.61 12.9587 118.461 13.087 119.231 13.4371C119.23 12.8957 119.267 12.3295 119.041 11.8221C118.882 11.4441 118.579 11.1325 118.211 10.9512C117.814 10.752 117.367 10.6761 116.927 10.6546C116.165 10.6201 115.396 10.7305 114.681 10.9937C113.96 11.2578 113.288 11.6368 112.65 12.0603C112.267 11.2463 111.878 10.4354 111.5 9.61991C112.806 8.77099 114.301 8.19622 115.857 8.03243ZM115.396 15.46C115.052 15.6582 114.746 15.9539 114.617 16.3354C114.464 16.7933 114.528 17.3311 114.825 17.7186C115.118 18.1041 115.582 18.3398 116.06 18.4033C116.883 18.5041 117.746 18.2949 118.428 17.823C118.771 17.5538 119.181 17.2497 119.225 16.7808C119.24 16.3504 119.227 15.9189 119.231 15.488C118.667 15.2812 118.076 15.1529 117.479 15.098C116.771 15.035 116.02 15.0955 115.396 15.46Z" fill="white"/>
<path d="M63.9525 8.42189C64.7175 8.1792 65.5252 8.08832 66.3263 8.1023C66.8644 8.11429 67.4106 8.18969 67.9075 8.40591C68.5892 8.71452 69.1569 9.26532 69.4826 9.93647C69.9209 10.7814 70.0057 11.7497 70.0458 12.684C70.0504 15.4974 70.0463 18.3103 70.0479 21.1238C68.7423 21.1238 67.4372 21.1238 66.1321 21.1238C66.1326 18.9251 66.1321 16.7258 66.1326 14.5271C66.1316 13.887 66.1612 13.2268 65.9378 12.6151C65.8073 12.24 65.5397 11.9105 65.1874 11.7217C64.72 11.473 64.1488 11.491 63.6609 11.6693C62.7519 12.0148 62.0064 12.7544 61.6395 13.6493C61.5597 13.815 61.5893 14.0018 61.5853 14.1791C61.5863 16.4936 61.5848 18.8082 61.5858 21.1228C60.2792 21.1243 58.9721 21.1253 57.6655 21.1223C57.6665 16.8627 57.6655 12.6036 57.666 8.34449C58.8411 8.34399 60.0167 8.34449 61.1923 8.34449C61.1918 9.05509 61.1928 9.76569 61.1918 10.4768C61.8092 9.47406 62.8347 8.76895 63.9525 8.42189Z" fill="white"/>
<path d="M85.3559 8.49885C86.3794 8.1408 87.4897 8.0584 88.5624 8.19373C89.6181 8.32706 90.6365 8.73405 91.4889 9.36874C92.1329 9.85263 92.7197 10.4274 93.1428 11.1165C93.5318 11.7527 93.834 12.4368 94.1211 13.124C91.4141 14.5022 88.7075 15.882 85.9999 17.2587C86.3398 17.5523 86.7007 17.833 87.1148 18.0163C87.693 18.2729 88.3772 18.2654 88.9565 18.0143C89.5583 17.7576 90.0342 17.2827 90.4237 16.7698C91.3222 17.3136 92.2212 17.8575 93.1192 18.4028C92.7754 18.7798 92.4421 19.1668 92.0942 19.5398C91.4572 20.1376 90.6707 20.56 89.8475 20.8462C88.0058 21.4848 85.8669 21.333 84.1853 20.3268C82.9249 19.5598 81.8994 18.3783 81.4135 16.9821C81.0707 16.0048 80.9889 14.9496 81.0938 13.924C81.2002 12.8953 81.5516 11.889 82.1353 11.0311C82.9149 9.88908 84.0383 8.95726 85.3559 8.49885ZM86.1701 11.4486C85.4177 11.9425 84.7867 12.7025 84.6386 13.6069C84.5603 14.0098 84.6231 14.4203 84.73 14.8113C86.5049 13.9075 88.2808 13.0046 90.0553 12.0983C89.7702 11.6728 89.357 11.3302 88.8696 11.1615C87.9877 10.8578 86.9572 10.9308 86.1701 11.4486Z" fill="white"/>
<path d="M50.9562 8.34457C52.2628 8.34407 53.5694 8.34457 54.876 8.34407C54.876 12.6042 54.876 16.8642 54.876 21.1238C53.5694 21.1238 52.2628 21.1238 50.9562 21.1238C50.9562 16.8642 50.9562 12.6042 50.9562 8.34457Z" fill="white"/>
<path d="M100.353 9.4756C101.034 8.87537 101.9 8.4559 102.817 8.40596C103.078 8.39747 103.343 8.38399 103.604 8.41845C103.633 9.58696 103.607 10.7595 103.617 11.9295C102.624 11.952 101.618 12.1167 100.712 12.5372C100.175 12.7974 99.6655 13.1864 99.3884 13.7227C99.3764 16.271 99.3859 18.8202 99.3834 21.369C98.0783 21.37 96.7732 21.369 95.4676 21.3695C95.4676 17.1109 95.4676 12.8523 95.4681 8.59372C96.6668 8.59422 97.866 8.59372 99.0652 8.59372C99.0662 9.44564 99.0637 10.2976 99.0662 11.1495C99.4045 10.5298 99.8151 9.94051 100.353 9.4756Z" fill="white"/>
<path d="M79.0165 24.7492C79.1807 24.6963 79.3454 24.6433 79.5106 24.5904C79.5101 24.89 79.5101 25.1896 79.5106 25.4893C79.7661 25.4893 80.0222 25.4898 80.2787 25.4883C80.2792 25.6286 80.2797 25.7689 80.2807 25.9097C80.0237 25.9092 79.7666 25.9092 79.5106 25.9097C79.5111 26.493 79.5086 27.0762 79.5111 27.6595C79.5171 27.8193 79.5347 28.01 79.6783 28.1114C79.8625 28.2278 80.098 28.1873 80.2817 28.0899C80.2797 28.2298 80.2797 28.3701 80.2797 28.5104C79.984 28.6183 79.6331 28.6417 79.3519 28.4839C79.1024 28.3371 79.021 28.029 79.0175 27.7589C79.0145 27.1427 79.0175 26.5259 79.0165 25.9097C78.8418 25.9092 78.6676 25.9092 78.4939 25.9097C78.4934 25.7694 78.4929 25.6291 78.4939 25.4893C78.6676 25.4888 78.8418 25.4888 79.0165 25.4893C79.0165 25.2426 79.0165 24.9959 79.0165 24.7492Z" fill="white"/>
<path d="M67.9756 25.4932C68.3833 25.3749 68.8336 25.3934 69.2252 25.5626C69.2237 25.7304 69.2237 25.8982 69.2262 26.066C68.9642 25.8977 68.6494 25.7938 68.3356 25.8428C67.9264 25.8887 67.591 26.2208 67.4871 26.6088C67.4002 26.9334 67.4052 27.2909 67.5348 27.604C67.6603 27.9107 67.9565 28.1399 68.2889 28.1758C68.6187 28.2288 68.9516 28.1189 69.2177 27.9271C69.2157 28.0839 69.2157 28.2407 69.2162 28.3975C68.8186 28.6128 68.3361 28.6587 67.9023 28.5349C67.4344 28.3995 67.0769 27.9866 66.973 27.5182C66.8936 27.1541 66.9097 26.7666 67.0297 26.4126C67.1768 25.9816 67.5328 25.6216 67.9756 25.4932Z" fill="white"/>
<path d="M76.391 25.4897C76.8227 25.3454 77.3573 25.4093 77.6821 25.7489C77.9697 26.0435 78.0761 26.465 78.0821 26.8654C78.0932 27.3378 77.9888 27.8432 77.6595 28.2012C77.3448 28.5573 76.8157 28.6756 76.3644 28.5578C76.1059 28.4904 75.9072 28.2986 75.7611 28.0849C75.7636 28.6986 75.7611 29.3118 75.7621 29.9256C75.5979 29.9251 75.4343 29.9251 75.2717 29.9236C75.2742 28.4454 75.2722 26.9673 75.2722 25.4897C75.4353 25.4887 75.5984 25.4887 75.7621 25.4892C75.7616 25.6675 75.7616 25.8462 75.7616 26.025C75.9177 25.7948 76.118 25.5786 76.391 25.4897ZM76.4242 25.8702C76.0176 25.9836 75.7671 26.407 75.7656 26.8125C75.7621 27.1656 75.7109 27.5671 75.9538 27.8607C76.2445 28.2642 76.9076 28.3001 77.2479 27.9416C77.4974 27.6819 77.5701 27.3079 77.5777 26.9608C77.5847 26.6387 77.5199 26.2862 77.28 26.0515C77.0612 25.8298 76.7143 25.7888 76.4242 25.8702Z" fill="white"/>
<path d="M81.8662 25.4493C82.2904 25.3793 82.7637 25.4158 83.1191 25.6785C83.4288 25.9027 83.603 26.2707 83.6542 26.6417C83.7099 27.0732 83.6793 27.5386 83.4504 27.9201C83.2562 28.2492 82.9193 28.4909 82.5424 28.5633C82.0871 28.6527 81.5726 28.5967 81.2041 28.2956C80.8894 28.0455 80.7117 27.6544 80.6806 27.2599C80.644 26.8375 80.6992 26.3856 80.9436 26.028C81.1524 25.7179 81.4973 25.5102 81.8662 25.4493ZM81.8075 25.8972C81.4677 26.0215 81.2538 26.3611 81.2016 26.7062C81.1399 27.0977 81.171 27.5426 81.4371 27.8582C81.7242 28.2107 82.2633 28.2727 82.6618 28.0874C83.0233 27.9096 83.1638 27.4842 83.1723 27.1081C83.1844 26.7506 83.1302 26.3541 82.8692 26.0854C82.5991 25.8103 82.1579 25.7768 81.8075 25.8972Z" fill="white"/>
<path d="M87.7554 25.6665C88.1024 25.4068 88.5778 25.3583 88.9865 25.4827C89.2968 25.5766 89.5428 25.8248 89.6638 26.1199C89.8024 26.4385 89.8029 26.792 89.8009 27.1331C89.0799 27.1341 88.3584 27.1301 87.6375 27.1351C87.6525 27.4901 87.777 27.8836 88.1114 28.0634C88.5864 28.3116 89.1788 28.1663 89.588 27.8527C89.586 28.007 89.5865 28.1618 89.588 28.3161C89.1889 28.5798 88.6858 28.6437 88.2194 28.5768C87.8564 28.5203 87.526 28.2941 87.3488 27.974C87.1439 27.609 87.1073 27.1735 87.1474 26.7641C87.1881 26.3361 87.404 25.9216 87.7554 25.6665ZM87.9879 26.0395C87.7896 26.2118 87.6937 26.4654 87.6445 26.7161C88.1963 26.7171 88.748 26.7166 89.3003 26.7166C89.2807 26.4944 89.2506 26.2572 89.1015 26.0799C88.8349 25.7509 88.2866 25.7578 87.9879 26.0395Z" fill="white"/>
<path d="M92.8092 25.6944C93.2556 25.3499 93.8887 25.3569 94.3983 25.5501C94.3968 25.7154 94.3968 25.8807 94.3988 26.0465C94.1106 25.8777 93.7652 25.7913 93.4328 25.8502C93.2631 25.8802 93.0849 25.9821 93.0362 26.1564C92.9814 26.3321 93.0668 26.5279 93.2254 26.6193C93.5864 26.833 94.0393 26.8929 94.3445 27.2C94.6754 27.5386 94.5725 28.1608 94.1623 28.3915C93.6663 28.6811 93.0241 28.6587 92.5105 28.425C92.5105 28.2487 92.5105 28.0729 92.51 27.8966C92.8579 28.1443 93.3103 28.2567 93.729 28.1463C93.8837 28.1084 94.0222 27.9805 94.0318 27.8157C94.0649 27.625 93.9319 27.4552 93.7707 27.3713C93.4323 27.187 93.0276 27.1181 92.7374 26.8515C92.4106 26.5474 92.4528 25.9601 92.8092 25.6944Z" fill="white"/>
<path d="M95.6932 25.6715C96.0431 25.4053 96.5266 25.3569 96.9403 25.4862C97.2636 25.5871 97.5137 25.8563 97.6281 26.1689C97.7476 26.475 97.7461 26.8091 97.7451 27.1326C97.0247 27.1331 96.3042 27.1326 95.5837 27.1331C95.5933 27.4972 95.7288 27.9012 96.0772 28.0749C96.5502 28.3067 97.1296 28.1623 97.5317 27.8517C97.5297 28.0045 97.5302 28.1573 97.5337 28.3101C97.1597 28.5713 96.6802 28.6327 96.2354 28.5868C95.8784 28.5498 95.54 28.3551 95.3432 28.055C95.1017 27.6929 95.0545 27.2385 95.0862 26.8145C95.1178 26.3726 95.3297 25.9367 95.6932 25.6715ZM95.9261 26.045C95.7318 26.2173 95.6369 26.468 95.5892 26.7162C96.1405 26.7172 96.6923 26.7172 97.2441 26.7162C97.227 26.489 97.1918 26.2468 97.0357 26.0685C96.7636 25.7484 96.2203 25.7619 95.9261 26.045Z" fill="white"/>
<path d="M70.9035 25.5257C71.0968 25.4108 71.3302 25.4298 71.5436 25.4638C71.5461 25.6336 71.5456 25.8033 71.5476 25.9736C71.3237 25.8683 71.0375 25.8433 70.8317 26.0001C70.5209 26.2328 70.4391 26.6463 70.4451 27.0123C70.4456 27.5187 70.4456 28.0245 70.4456 28.5309C70.2809 28.5309 70.1168 28.5309 69.9526 28.5314C69.9511 27.5177 69.9526 26.5035 69.9521 25.4892C70.1162 25.4887 70.2804 25.4892 70.4456 25.4892C70.4456 25.701 70.4476 25.9127 70.4411 26.1249C70.534 25.8882 70.669 25.6485 70.9035 25.5257Z" fill="white"/>
<path d="M91.5208 25.5067C91.7096 25.4098 91.9285 25.4323 92.1309 25.4672C92.1299 25.6365 92.1294 25.8058 92.1319 25.9756C91.9074 25.8687 91.6203 25.8423 91.4129 25.9996C91.1317 26.2083 91.0338 26.5748 91.0273 26.9089C91.0228 27.4497 91.0273 27.99 91.0258 28.5308C90.8611 28.5308 90.6969 28.5308 90.5333 28.5318C90.5308 27.5176 90.5343 26.5039 90.5313 25.4902C90.6959 25.4887 90.8606 25.4887 91.0263 25.4892C91.0238 25.6984 91.0258 25.9077 91.0293 26.1169C91.1182 25.8672 91.2713 25.6225 91.5208 25.5067Z" fill="white"/>
<path d="M71.8634 25.4892C72.0456 25.4887 72.2284 25.4892 72.4111 25.4892C72.7067 26.3486 73.034 27.1985 73.3066 28.0654C73.5847 27.1955 73.933 26.3491 74.2407 25.4892C74.4109 25.4892 74.5816 25.4887 74.7527 25.4892C74.3085 26.6063 73.8622 27.7229 73.418 28.84C73.2734 29.2185 73.0957 29.6265 72.7308 29.8437C72.5024 29.983 72.2233 29.972 71.9693 29.9291C71.9678 29.7808 71.9678 29.6325 71.9668 29.4851C72.1967 29.5576 72.4839 29.5625 72.6505 29.3603C72.8473 29.1146 72.9221 28.8 73.0566 28.5204C72.6575 27.5101 72.2615 26.4994 71.8634 25.4892Z" fill="white"/>
<path d="M84.0002 25.4893C84.1804 25.4888 84.3616 25.4888 84.5429 25.4898C84.7527 26.0905 84.9645 26.6907 85.1753 27.292C85.2687 27.5666 85.3841 27.8363 85.4263 28.1259C85.4941 27.6954 85.6893 27.3014 85.8259 26.891C85.997 26.4236 86.1672 25.9562 86.3389 25.4893C86.512 25.4893 86.6852 25.4888 86.8594 25.4893C86.4538 26.5035 86.0477 27.5172 85.6411 28.5309C85.48 28.5309 85.3189 28.5309 85.1583 28.5309C84.7728 27.5167 84.3857 26.5035 84.0002 25.4893Z" fill="white"/>
</svg>
