<svg width="130" height="99" viewBox="0 0 130 99" fill="none" xmlns="http://www.w3.org/2000/svg">
<path d="M127.146 91.5827C126.984 91.5163 126.831 91.4297 126.69 91.3248C126.214 90.8503 120.659 88.6117 117.229 87.2603L114.524 86.1565C113.443 85.7508 112.403 85.2466 111.415 84.6503L111.363 84.7122L111.27 84.6503C111.197 83.2951 111.27 81.9359 111.488 80.5961C111.861 79.754 112.102 78.8598 112.203 77.9449H112.42C112.606 77.9541 112.789 77.8995 112.938 77.7902C113.322 77.5013 113.363 76.872 113.415 75.9126C113.444 75.2215 113.513 74.5326 113.622 73.8494C113.819 72.9796 113.954 72.0971 114.027 71.2085V71.0331C114.027 70.5105 113.913 70.1666 113.685 70.0015C113.556 69.9389 113.41 69.9207 113.27 69.9499C113.581 68.1756 113.716 64.5237 113.27 63.2032C113.073 62.6359 111.84 59.6958 109.56 59.4998C109.363 57.7667 107.094 57.2302 106.451 57.3643C105.266 56.8016 103.96 56.5359 102.648 56.5906C102.648 56.5906 97.0931 57.0961 94.6267 62.0272C94.3636 62.9803 94.2072 63.9594 94.1603 64.9467C94.2225 65.8132 94.2225 69.7436 94.3572 70.2079C94.3572 70.2594 94.3572 70.342 94.4298 70.4348C94.273 70.3546 94.0982 70.3155 93.922 70.3213C93.7701 70.3281 93.6249 70.3858 93.5102 70.485C93.3954 70.5843 93.3177 70.7193 93.2898 70.8681C93.2292 71.4976 93.2782 72.1328 93.4349 72.7456C93.4805 72.9634 93.5116 73.184 93.5282 73.4058V73.5915C93.4372 74.3323 93.5594 75.0835 93.8805 75.7579C94.245 76.3976 94.494 77.0959 94.6163 77.8211C94.6163 77.9758 94.6889 78.11 94.7199 78.1925C94.7512 78.3035 94.8076 78.4058 94.8849 78.4917C94.9621 78.5775 95.0582 78.6446 95.1656 78.6877C95.268 78.7264 95.3773 78.7439 95.4868 78.7392C95.6886 78.7343 95.8868 78.685 96.0672 78.5948C96.2021 79.3528 96.4501 80.0865 96.8029 80.7715C96.8962 80.9469 97.0517 81.2048 97.2589 81.5143C97.4374 82.5637 97.4792 83.6316 97.3833 84.6916C96.4973 85.3335 95.537 85.8668 94.523 86.2803C94.4298 86.2803 82.4603 90.7162 81.797 91.3764C81.6926 91.4606 81.5817 91.5364 81.4654 91.6034C80.6571 92.047 79.1441 92.9651 79.5379 98.8865V99H129.955V98.8865C130.338 93.0992 128.183 92.0779 127.146 91.5827ZM113.591 70.2182C113.757 70.311 113.83 70.5895 113.809 71.0125C113.814 71.0674 113.814 71.1227 113.809 71.1776C113.735 72.0552 113.604 72.9271 113.415 73.7875C113.28 74.5922 113.239 75.3143 113.198 75.8507C113.146 76.707 113.115 77.3259 112.824 77.5426C112.739 77.5958 112.643 77.6306 112.543 77.6448C112.443 77.659 112.341 77.6523 112.244 77.6251C112.244 76.5007 112.462 73.1273 112.503 72.2814C112.669 71.6005 112.887 70.7546 113.021 70.2182C113.111 70.1767 113.208 70.1552 113.306 70.1552C113.405 70.1552 113.502 70.1767 113.591 70.2182ZM96.233 65.7513C96.3677 65.0808 97.6942 61.8931 98.2331 61.6249C98.772 61.3567 103.187 62.2232 104.119 62.0272C105.389 61.6049 106.683 61.2604 107.995 60.9956C108.493 61.0884 112.534 62.8938 112.068 68.9699C112.068 68.9699 112.016 69.8674 112.068 71.291C111.84 71.291 109.912 71.0022 109.912 71.0022C108.396 70.8412 106.862 70.9707 105.394 71.3839C104.627 71.5859 103.819 71.5859 103.052 71.3839C101.675 70.9786 100.229 70.8592 98.803 71.0331C97.997 71.1612 97.1836 71.237 96.3677 71.2601H96.1293C96.2841 70.742 96.3403 70.1997 96.2951 69.6611C96.1008 68.3663 96.0799 67.0516 96.233 65.7513ZM109.705 76.0158C109.099 76.2062 108.453 76.2359 107.831 76.102C107.21 75.9681 106.634 75.6753 106.161 75.2524C105.545 74.4344 105.24 73.4256 105.301 72.4052C105.373 71.7656 106.524 71.4251 107.508 71.3736C108.493 71.322 110.814 71.2291 111.115 72.4052C111.146 72.9726 111.446 75.6135 109.684 76.0158H109.705ZM102.917 73.0963C102.908 73.5132 102.816 73.924 102.647 74.3054C102.477 74.6867 102.234 75.0311 101.931 75.3186C101.627 75.6061 101.27 75.8312 100.879 75.981C100.488 76.1307 100.072 76.2021 99.6528 76.1912C97.8082 76.1293 97.4973 75.3865 97.2486 74.5715C97.0169 73.7343 97.0169 72.8504 97.2486 72.0132C97.3729 71.7759 97.5905 71.4664 98.6683 71.3426C99.7461 71.2188 102.067 71.1982 102.741 72.137C102.834 72.2767 102.898 72.4337 102.928 72.5987C102.958 72.7636 102.955 72.9329 102.917 73.0963ZM95.2485 78.4298C95.1761 78.3989 95.1115 78.3523 95.0595 78.2934C95.0075 78.2345 94.9694 78.1648 94.9479 78.0893L94.8547 77.7283C94.7148 77.0001 94.4483 76.3019 94.0671 75.6651C93.7999 75.0337 93.7 74.3446 93.7769 73.6637V73.4058C93.7563 73.1702 93.7217 72.9359 93.6733 72.7043C93.5273 72.1213 93.4783 71.5184 93.5282 70.9197C93.5483 70.8227 93.5996 70.735 93.6745 70.6698C93.7493 70.6046 93.8435 70.5656 93.9427 70.5586C94.0557 70.5555 94.168 70.577 94.2718 70.6215C94.3756 70.666 94.4684 70.7326 94.5438 70.8165C94.8028 71.6212 95.2277 72.8797 95.4661 73.5606C95.6008 74.6747 95.8703 77.068 95.9324 77.687C95.9324 77.8108 95.9324 78.0377 96.0153 78.306C95.9027 78.3774 95.7757 78.4237 95.6433 78.4415C95.5109 78.4593 95.3762 78.4482 95.2485 78.4091V78.4298ZM96.1812 77.6664C96.1086 76.9958 95.7874 74.1692 95.6837 73.2614L95.891 72.3639L96.2848 72.498C96.3451 72.5289 96.3966 72.5743 96.4347 72.6302C96.4727 72.6861 96.496 72.7506 96.5024 72.8178C96.6139 73.5605 96.7767 74.2947 96.9895 75.0151C97.2589 75.7579 97.9325 76.5316 100.337 76.4078C102.741 76.284 103.446 73.2201 103.508 73.0654C103.57 72.9107 103.508 72.7147 104.068 72.6837C104.845 72.7559 104.627 73.0963 104.834 73.5812C105.03 74.1701 105.313 74.7266 105.674 75.2318C106.379 75.8611 106.71 76.5316 109.228 76.3975C111.747 76.2634 111.529 73.8185 111.643 73.0551C111.647 72.9113 111.696 72.7724 111.784 72.6577C111.871 72.543 111.992 72.4584 112.13 72.4155L112.213 72.9622C112.14 74.3446 111.995 77.0165 111.975 77.8211C111.879 78.8507 111.594 79.8542 111.135 80.7818C110.254 82.4427 107.819 86.3009 104.42 86.3525C100.824 86.2906 97.6216 81.7515 97.0206 80.6271C96.5591 79.6931 96.2746 78.6824 96.1812 77.6457V77.6664ZM104.472 86.6001C107.788 86.5485 110.192 83.0514 111.229 81.2254C111.094 82.4633 110.907 84.5369 111.135 84.8154C111.172 84.8548 111.214 84.8894 111.26 84.9186C109.988 86.4958 108.228 87.6095 106.254 88.0856L105 93.2436L103.311 88.0546C101.138 87.5287 99.1586 86.4023 97.6009 84.8051C97.7652 83.8388 97.7652 82.8519 97.6009 81.8856C98.8652 83.6703 101.508 86.5072 104.42 86.5795L104.472 86.6001Z" fill="url(#paint0_linear_1646_721)"/>
<path d="M74.1228 62.3468C76.5922 62.3468 78.5964 64.3419 78.5964 66.8001C78.5964 69.2584 76.5922 71.2534 74.1228 71.2534C71.6533 71.2534 69.6491 69.2584 69.6491 66.8001C69.6491 64.3419 71.6533 62.3468 74.1228 62.3468ZM60.7017 53.4401C63.9973 53.4401 66.6667 56.0972 66.6667 59.3779C66.6667 62.6586 63.9974 65.3158 60.7017 65.3158C57.4061 65.3158 54.7368 62.6586 54.7368 59.3779C54.7368 56.0972 57.406 53.4401 60.7017 53.4401ZM33.8596 0C40.8862 0 47.4149 3.01644 51.9631 8.31592C54.8859 6.75725 58.1368 5.93783 61.4473 5.93783C72.548 5.93783 81.5789 14.9276 81.5789 25.9779C81.5789 37.0281 72.548 46.0179 61.4473 46.0179H61.2743C59.467 50.5038 55.1752 53.4401 50.2631 53.4401C45.7178 53.4401 41.5931 50.8244 39.6038 46.8075C37.7243 47.2691 35.7955 47.5024 33.8596 47.5023C20.704 47.5023 9.99991 36.8469 9.99991 23.7511C9.99991 10.6552 20.7039 0 33.8596 0Z" fill="url(#paint1_linear_1646_721)"/>
<path d="M19.9211 20.6216C19.9211 18.029 22.0325 15.9272 24.6369 15.9272H32.8896C35.494 15.9272 37.6054 18.029 37.6054 20.6216V28.8367C37.6054 31.4293 35.494 33.531 32.8896 33.531H24.6369C22.0325 33.531 19.9211 31.4293 19.9211 28.8367V20.6216Z" fill="#E6007A"/>
<path d="M19.9211 20.6216C19.9211 18.029 22.0325 15.9272 24.6369 15.9272H32.8896C35.494 15.9272 37.6054 18.029 37.6054 20.6216V28.8367C37.6054 31.4293 35.494 33.531 32.8896 33.531H24.6369C22.0325 33.531 19.9211 31.4293 19.9211 28.8367V20.6216Z" fill="url(#paint2_linear_1646_721)"/>
<path d="M34.013 27.4372L32.2614 29.2954C32.2235 29.3357 32.1776 29.3679 32.1266 29.39C32.0756 29.412 32.0205 29.4234 31.9648 29.4235H23.6615C23.6219 29.4235 23.5832 29.412 23.5501 29.3905C23.5169 29.3691 23.4908 29.3385 23.475 29.3026C23.4592 29.2667 23.4543 29.227 23.4609 29.1884C23.4675 29.1497 23.4853 29.1138 23.5123 29.0851L25.2619 27.2269C25.2998 27.1866 25.3456 27.1544 25.3967 27.1323C25.4477 27.1103 25.5028 27.0989 25.5584 27.0988H33.8617C33.9017 27.098 33.941 27.1089 33.9747 27.1301C34.0084 27.1514 34.0351 27.182 34.0512 27.2182C34.0674 27.2543 34.0724 27.2944 34.0656 27.3334C34.0587 27.3724 34.0404 27.4085 34.013 27.4372ZM32.2614 23.6944C32.2233 23.6543 32.1774 23.6222 32.1264 23.6002C32.0755 23.5781 32.0205 23.5666 31.9648 23.5663H23.6615C23.6219 23.5664 23.5832 23.5778 23.5501 23.5993C23.5169 23.6207 23.4908 23.6513 23.475 23.6872C23.4592 23.7231 23.4543 23.7628 23.4609 23.8015C23.4675 23.8401 23.4853 23.876 23.5123 23.9047L25.2619 25.7639C25.2999 25.804 25.3458 25.8361 25.3968 25.8582C25.4478 25.8802 25.5028 25.8917 25.5584 25.892H33.8617C33.9013 25.8918 33.9398 25.8802 33.9728 25.8586C34.0059 25.8371 34.0317 25.8065 34.0475 25.7707C34.0632 25.7348 34.068 25.6952 34.0613 25.6566C34.0547 25.6181 34.0369 25.5823 34.01 25.5536L32.2614 23.6944ZM23.6615 22.3595H31.9648C32.0205 22.3594 32.0756 22.348 32.1266 22.326C32.1776 22.304 32.2235 22.2717 32.2614 22.2314L34.013 20.3732C34.0404 20.3445 34.0587 20.3084 34.0656 20.2694C34.0724 20.2305 34.0674 20.1904 34.0512 20.1542C34.0351 20.118 34.0084 20.0874 33.9747 20.0662C33.941 20.0449 33.9017 20.034 33.8617 20.0348H25.5584C25.5028 20.0349 25.4477 20.0463 25.3967 20.0683C25.3456 20.0904 25.2998 20.1226 25.2619 20.1629L23.5123 22.0211C23.4853 22.0499 23.4675 22.0857 23.4609 22.1244C23.4543 22.163 23.4592 22.2027 23.475 22.2386C23.4908 22.2745 23.5169 22.3051 23.5501 22.3266C23.5832 22.348 23.6219 22.3595 23.6615 22.3595Z" fill="white"/>
<path d="M44.8331 22.6552C44.4087 22.6552 44.002 22.5999 43.6129 22.4893C43.2239 22.3736 42.9106 22.2252 42.6731 22.0441L43.09 21.1237C43.3173 21.2846 43.5851 21.4179 43.8933 21.5236C44.2066 21.6241 44.5224 21.6744 44.8407 21.6744C45.0832 21.6744 45.2777 21.6518 45.4243 21.6065C45.5759 21.5562 45.687 21.4883 45.7577 21.4028C45.8285 21.3173 45.8639 21.2193 45.8639 21.1086C45.8639 20.9678 45.8083 20.8571 45.6971 20.7767C45.586 20.6911 45.4394 20.6232 45.2575 20.573C45.0756 20.5176 44.8735 20.4673 44.6512 20.4221C44.434 20.3718 44.2142 20.3114 43.9919 20.241C43.7746 20.1706 43.575 20.08 43.3931 19.9694C43.2112 19.8587 43.0622 19.7129 42.946 19.5318C42.8348 19.3507 42.7792 19.1194 42.7792 18.8377C42.7792 18.5359 42.8601 18.2618 43.0217 18.0154C43.1885 17.7639 43.4361 17.5652 43.7645 17.4194C44.098 17.2685 44.5148 17.193 45.015 17.193C45.3485 17.193 45.6769 17.2333 46.0003 17.3137C46.3236 17.3892 46.6091 17.5049 46.8567 17.6608L46.4777 18.5888C46.2302 18.4479 45.9826 18.3448 45.735 18.2794C45.4874 18.209 45.2449 18.1738 45.0074 18.1738C44.77 18.1738 44.5754 18.2015 44.4239 18.2568C44.2723 18.3121 44.1636 18.3851 44.098 18.4756C44.0323 18.5611 43.9994 18.6617 43.9994 18.7774C43.9994 18.9132 44.055 19.0238 44.1662 19.1093C44.2773 19.1898 44.4239 19.2552 44.6057 19.3055C44.7876 19.3558 44.9872 19.4061 45.2045 19.4564C45.4268 19.5067 45.6466 19.5645 45.8639 19.6299C46.0862 19.6953 46.2883 19.7833 46.4702 19.8939C46.6521 20.0046 46.7986 20.1505 46.9097 20.3315C47.026 20.5126 47.0841 20.7414 47.0841 21.0181C47.0841 21.3148 47.0007 21.5864 46.834 21.8329C46.6672 22.0793 46.4171 22.278 46.0836 22.4289C45.7552 22.5798 45.3384 22.6552 44.8331 22.6552Z" fill="white"/>
<path d="M50.4999 22.6552C50.0805 22.6552 49.6914 22.5873 49.3327 22.4515C48.979 22.3157 48.6708 22.1246 48.4081 21.8781C48.1504 21.6317 47.9483 21.3425 47.8018 21.0105C47.6603 20.6786 47.5895 20.3164 47.5895 19.9241C47.5895 19.5318 47.6603 19.1697 47.8018 18.8377C47.9483 18.5058 48.1529 18.2166 48.4156 17.9701C48.6784 17.7237 48.9866 17.5325 49.3403 17.3967C49.694 17.2609 50.078 17.193 50.4923 17.193C50.9116 17.193 51.2956 17.2609 51.6443 17.3967C51.998 17.5325 52.3036 17.7237 52.5613 17.9701C52.8241 18.2166 53.0287 18.5058 53.1752 18.8377C53.3218 19.1646 53.395 19.5268 53.395 19.9241C53.395 20.3164 53.3218 20.6811 53.1752 21.0181C53.0287 21.35 52.8241 21.6392 52.5613 21.8857C52.3036 22.1271 51.998 22.3157 51.6443 22.4515C51.2956 22.5873 50.9142 22.6552 50.4999 22.6552ZM50.4923 21.6141C50.7298 21.6141 50.947 21.5739 51.1441 21.4934C51.3462 21.4129 51.523 21.2972 51.6746 21.1463C51.8262 20.9954 51.9424 20.8169 52.0232 20.6107C52.1091 20.4045 52.1521 20.1756 52.1521 19.9241C52.1521 19.6726 52.1091 19.4438 52.0232 19.2376C51.9424 19.0314 51.8262 18.8528 51.6746 18.7019C51.5281 18.551 51.3538 18.4353 51.1516 18.3549C50.9495 18.2744 50.7298 18.2342 50.4923 18.2342C50.2548 18.2342 50.035 18.2744 49.8329 18.3549C49.6359 18.4353 49.4615 18.551 49.31 18.7019C49.1584 18.8528 49.0396 19.0314 48.9538 19.2376C48.8729 19.4438 48.8325 19.6726 48.8325 19.9241C48.8325 20.1706 48.8729 20.3994 48.9538 20.6107C49.0396 20.8169 49.1559 20.9954 49.3024 21.1463C49.454 21.2972 49.6308 21.4129 49.8329 21.4934C50.035 21.5739 50.2548 21.6141 50.4923 21.6141Z" fill="white"/>
<path d="M54.3178 22.5647V17.2836H55.5455V21.5688H58.2058V22.5647H54.3178Z" fill="white"/>
<path d="M43.6053 32.2049L45.7426 27.3915L46.0609 27.9196H43.2036L43.7493 27.3462V28.7797H42.658V26.9237H46.9097V27.7159L44.9392 32.2049H43.6053Z" fill="white"/>
<path d="M48.2514 32.2049L51.8741 26.9237H52.776L49.1533 32.2049H48.2514ZM48.7137 29.7755C48.456 29.7755 48.2287 29.7177 48.0316 29.602C47.8346 29.4813 47.6779 29.3128 47.5617 29.0965C47.4506 28.8752 47.395 28.6162 47.395 28.3195C47.395 28.0227 47.4506 27.7662 47.5617 27.5499C47.6779 27.3336 47.8346 27.1652 48.0316 27.0444C48.2287 26.9237 48.456 26.8634 48.7137 26.8634C48.9714 26.8634 49.1988 26.9237 49.3958 27.0444C49.5929 27.1652 49.747 27.3336 49.8581 27.5499C49.9693 27.7662 50.0249 28.0227 50.0249 28.3195C50.0249 28.6162 49.9693 28.8752 49.8581 29.0965C49.747 29.3128 49.5929 29.4813 49.3958 29.602C49.1988 29.7177 48.9714 29.7755 48.7137 29.7755ZM48.7137 29.1569C48.8805 29.1569 49.0143 29.089 49.1154 28.9532C49.2165 28.8124 49.267 28.6011 49.267 28.3195C49.267 28.0378 49.2165 27.8291 49.1154 27.6933C49.0143 27.5524 48.8805 27.482 48.7137 27.482C48.552 27.482 48.4181 27.5524 48.312 27.6933C48.211 27.8291 48.1605 28.0378 48.1605 28.3195C48.1605 28.5961 48.211 28.8048 48.312 28.9457C48.4181 29.0865 48.552 29.1569 48.7137 29.1569ZM52.3137 32.2652C52.0611 32.2652 51.8337 32.2074 51.6316 32.0917C51.4346 31.971 51.2805 31.8025 51.1693 31.5862C51.0581 31.3649 51.0026 31.1059 51.0026 30.8091C51.0026 30.5124 51.0581 30.2559 51.1693 30.0396C51.2805 29.8233 51.4346 29.6548 51.6316 29.5341C51.8337 29.4134 52.0611 29.3531 52.3137 29.3531C52.5765 29.3531 52.8063 29.4134 53.0034 29.5341C53.2005 29.6548 53.3546 29.8233 53.4657 30.0396C53.5769 30.2559 53.6325 30.5124 53.6325 30.8091C53.6325 31.1059 53.5769 31.3649 53.4657 31.5862C53.3546 31.8025 53.2005 31.971 53.0034 32.0917C52.8063 32.2074 52.5765 32.2652 52.3137 32.2652ZM52.3137 31.6466C52.4805 31.6466 52.6143 31.5787 52.7154 31.4429C52.8165 31.302 52.867 31.0908 52.867 30.8091C52.867 30.5325 52.8165 30.3238 52.7154 30.1829C52.6143 30.0421 52.4805 29.9717 52.3137 29.9717C52.152 29.9717 52.0181 30.0421 51.912 30.1829C51.811 30.3187 51.7605 30.5275 51.7605 30.8091C51.7605 31.0908 51.811 31.302 51.912 31.4429C52.0181 31.5787 52.152 31.6466 52.3137 31.6466Z" fill="white"/>
<path d="M55.9149 32.2049L58.2795 26.9237H59.4922L61.8644 32.2049H60.576L58.6357 27.5424H59.1208L57.173 32.2049H55.9149ZM57.0972 31.0732L57.4231 30.1452H60.1515L60.485 31.0732H57.0972Z" fill="white"/>
<path d="M62.4148 32.2049V26.9237H64.7112C65.1862 26.9237 65.5954 27.0017 65.939 27.1576C66.2826 27.3085 66.5478 27.5273 66.7348 27.814C66.9217 28.1007 67.0152 28.4427 67.0152 28.84C67.0152 29.2323 66.9217 29.5718 66.7348 29.8585C66.5478 30.1452 66.2826 30.3665 65.939 30.5224C65.5954 30.6733 65.1862 30.7488 64.7112 30.7488H63.0969L63.6426 30.198V32.2049H62.4148ZM63.6426 30.3338L63.0969 29.7529H64.643C65.022 29.7529 65.3049 29.6724 65.4918 29.5115C65.6788 29.3505 65.7723 29.1267 65.7723 28.84C65.7723 28.5483 65.6788 28.322 65.4918 28.161C65.3049 28.0001 65.022 27.9196 64.643 27.9196H63.0969L63.6426 27.3387V30.3338Z" fill="white"/>
<path d="M69.2105 32.2049V30.0471L69.4909 30.7865L67.1566 26.9237H68.4602L70.2488 29.8887H69.4985L71.2947 26.9237H72.4998L70.1655 30.7865L70.4383 30.0471V32.2049H69.2105Z" fill="white"/>
<defs>
<linearGradient id="paint0_linear_1646_721" x1="104.737" y1="59.5865" x2="104.737" y2="96.455" gradientUnits="userSpaceOnUse">
<stop stop-color="#2256E0"/>
<stop offset="1" stop-color="#2151D7" stop-opacity="0"/>
</linearGradient>
<linearGradient id="paint1_linear_1646_721" x1="45.7894" y1="0" x2="45.7894" y2="71.2534" gradientUnits="userSpaceOnUse">
<stop stop-color="#2258E6"/>
<stop offset="1" stop-color="#2258E6" stop-opacity="0"/>
</linearGradient>
<linearGradient id="paint2_linear_1646_721" x1="21.4136" y1="33.951" x2="37.6799" y2="17.4751" gradientUnits="userSpaceOnUse">
<stop offset="0.08" stop-color="#9945FF"/>
<stop offset="0.3" stop-color="#8752F3"/>
<stop offset="0.5" stop-color="#5497D5"/>
<stop offset="0.6" stop-color="#43B4CA"/>
<stop offset="0.72" stop-color="#28E0B9"/>
<stop offset="0.97" stop-color="#19FB9B"/>
</linearGradient>
</defs>
</svg>
