<svg width="42" height="42" viewBox="0 0 42 42" fill="none" xmlns="http://www.w3.org/2000/svg">
<g clip-path="url(#clip0_1640_247)">
<path d="M6.5625 10.5V31.5C6.5625 32.1962 6.83906 32.8639 7.33134 33.3562C7.82363 33.8484 8.49131 34.125 9.1875 34.125H35.4375C35.7856 34.125 36.1194 33.9867 36.3656 33.7406C36.6117 33.4944 36.75 33.1606 36.75 32.8125V14.4375C36.75 14.0894 36.6117 13.7556 36.3656 13.5094C36.1194 13.2633 35.7856 13.125 35.4375 13.125H9.1875C8.49131 13.125 7.82363 12.8484 7.33134 12.3562C6.83906 11.8639 6.5625 11.1962 6.5625 10.5ZM6.5625 10.5C6.5625 9.80381 6.83906 9.13613 7.33134 8.64384C7.82363 8.15156 8.49131 7.875 9.1875 7.875H31.5" stroke="#CF37FF" stroke-width="2" stroke-linecap="round" stroke-linejoin="round"/>
<path d="M30.5 23.625C30.5 24.16 30.0663 24.5938 29.5312 24.5938C28.9962 24.5938 28.5625 24.16 28.5625 23.625C28.5625 23.09 28.9962 22.6562 29.5312 22.6562C30.0663 22.6562 30.5 23.09 30.5 23.625Z" stroke="#CF37FF" stroke-width="2"/>
</g>
<defs>
<clipPath id="clip0_1640_247">
<rect width="42" height="42" fill="white"/>
</clipPath>
</defs>
</svg>
