<svg width="24" height="24" viewBox="0 0 24 24" fill="none" xmlns="http://www.w3.org/2000/svg">
<g clip-path="url(#clip0_5333_458)">
<path d="M24 12C24 18.6274 18.6274 24 12 24C5.37258 24 0 18.6274 0 12C0 5.37258 5.37258 0 12 0C18.6274 0 24 5.37258 24 12Z" fill="#2F9BFF"/>
<path fill-rule="evenodd" clip-rule="evenodd" d="M13.3431 6.92888L17.7071 11.2928C18.0976 11.6834 18.0976 12.3165 17.7071 12.7071L13.3431 17.071C12.9526 17.4615 12.3195 17.4615 11.9289 17.071C11.5384 16.6805 11.5384 16.0473 11.9289 15.6568L14.5858 12.9999H6C5.44772 12.9999 5 12.5522 5 11.9999C5 11.4477 5.44772 10.9999 6 10.9999H14.5858L11.9289 8.34309C11.5384 7.95257 11.5384 7.3194 11.9289 6.92888C12.3195 6.53836 12.9526 6.53836 13.3431 6.92888Z" fill="white"/>
</g>
<defs>
<clipPath id="clip0_5333_458">
<rect width="24" height="24" fill="white"/>
</clipPath>
</defs>
</svg>
