<svg width="43" height="43" viewBox="0 0 43 43" fill="none" xmlns="http://www.w3.org/2000/svg">
<path d="M25.2488 31.4787L17.9897 34.5986V34.2866C16.59 34.6409 15.0395 34.845 13.5709 34.9107C6.74419 34.845 1.32556 31.313 1.2625 27.11V25.5498C3.50472 28.773 8.06911 30.9327 13.5709 30.8546C15.4322 30.9327 17.3364 30.6414 18.9363 30.2305L19.5675 28.6703C17.6699 29.23 15.5986 29.6194 13.5709 29.6064C6.74419 29.6194 1.32556 26.0874 1.2625 21.8065V20.5583C3.50472 23.5377 8.05935 25.698 13.5709 25.5504C16.0504 25.698 18.4753 25.1825 20.5141 24.3022L20.83 22.742C18.8381 23.7809 16.2565 24.3841 13.5709 24.3022C6.74419 24.3841 1.32556 20.8521 1.2625 16.5023V15.2541C3.50472 18.3031 8.06911 20.4627 13.5709 20.5583C16.698 20.4627 19.6624 19.6455 22.0925 18.3739L22.4085 16.5016C20.2027 18.1178 16.9827 19.1593 13.5709 19.3101C6.74419 19.1593 1.32621 15.6266 1.2625 11.1981C1.32556 6.98603 6.74419 3.45401 13.5709 3.3981C17.6406 3.45401 21.4203 4.86474 23.671 7.14206L23.8901 7.50287L25.4815 7.50937L25.2488 7.14206C23.0105 4.13467 18.5338 2.1499 13.5709 2.1499C6.01737 2.1499 0 6.26572 0 11.1981V27.4221C0.265243 32.2368 6.14544 36.1582 13.5709 36.1582C18.4753 36.1582 22.8831 34.2514 25.2488 31.4787Z" fill="#263136"/>
<path d="M22.2957 42.4564L24.8442 31.7499L17.5181 34.899L21.9778 16.3203H13.377L15.6068 7.18823H42.9996L40.7698 16.3203H31.8516L29.9403 21.3586L39.8141 17.2649L22.2957 42.4564ZM26.7555 29.5454L25.4813 35.8436L35.9922 20.0993L27.3919 23.8784L31.2145 15.061H39.8141L41.4069 8.44814H16.5625L14.9697 15.061H23.57L19.4288 32.6951L26.7555 29.5466V29.5454Z" fill="#FABF2C"/>
<path d="M26.7555 29.5466L25.4813 35.8436L35.9922 20.0993L27.3919 23.8784L31.2145 15.061H39.8141L41.4069 8.44814H16.5625L14.9697 15.061H23.57L19.4288 32.6951L26.7555 29.5466Z" fill="#FABF2C"/>
</svg>
