<svg width="24" height="25" viewBox="0 0 24 25" fill="none" xmlns="http://www.w3.org/2000/svg">
<circle cx="12" cy="12.4277" r="12" fill="#306BCF"/>
<path d="M18 17.4277V13.0327C18 10.8727 17.535 9.22273 15.015 9.22273C13.8 9.22273 12.99 9.88273 12.66 10.5127H12.63V9.41773H10.245V17.4277H12.735V13.4527C12.735 12.4027 12.93 11.3977 14.22 11.3977C15.495 11.3977 15.51 12.5827 15.51 13.5127V17.4127H18V17.4277Z" fill="white"/>
<path d="M6.195 9.41773H8.685V17.4277H6.195V9.41773Z" fill="white"/>
<path d="M7.44 5.42773C6.645 5.42773 6 6.07273 6 6.86773C6 7.66273 6.645 8.32273 7.44 8.32273C8.235 8.32273 8.88 7.66273 8.88 6.86773C8.88 6.07273 8.235 5.42773 7.44 5.42773Z" fill="white"/>
</svg>
