<svg width="24" height="25" viewBox="0 0 24 25" fill="none" xmlns="http://www.w3.org/2000/svg">
<circle cx="12" cy="12.4277" r="12" fill="#306BCF"/>
<path d="M14.9348 6.02783H9.06445C7.15391 6.02783 5.59961 7.58213 5.59961 9.49268V15.3631C5.59961 17.2735 7.15391 18.8278 9.06445 18.8278H14.9349C16.8453 18.8278 18.3996 17.2735 18.3996 15.3631V9.49268C18.3996 7.58213 16.8453 6.02783 14.9348 6.02783ZM11.9996 15.9277C10.0697 15.9277 8.49971 14.3577 8.49971 12.4278C8.49971 10.498 10.0697 8.92793 11.9996 8.92793C13.9295 8.92793 15.4995 10.498 15.4995 12.4278C15.4995 14.3577 13.9295 15.9277 11.9996 15.9277ZM15.5832 9.75332C15.0129 9.75332 14.549 9.28945 14.549 8.71914C14.549 8.14883 15.0129 7.68486 15.5832 7.68486C16.1535 7.68486 16.6175 8.14883 16.6175 8.71914C16.6175 9.28945 16.1535 9.75332 15.5832 9.75332Z" fill="white"/>
</svg>
