<svg width="24" height="25" viewBox="0 0 24 25" fill="none" xmlns="http://www.w3.org/2000/svg">
<circle cx="12" cy="12.4277" r="12" fill="#306BCF"/>
<path d="M19 8.72997C18.4794 8.95081 17.9246 9.0972 17.3462 9.16827C17.9412 8.82473 18.3954 8.28489 18.6089 7.6342C18.0541 7.95404 17.4416 8.17997 16.7889 8.30604C16.2621 7.76366 15.5114 7.42773 14.6924 7.42773C13.1034 7.42773 11.8241 8.67497 11.8241 10.204C11.8241 10.424 11.8434 10.6355 11.8906 10.8369C9.5045 10.7243 7.39313 9.61843 5.97475 7.93373C5.72712 8.3492 5.58188 8.82473 5.58188 9.33666C5.58188 10.2979 6.09375 11.15 6.85675 11.6433C6.39562 11.6348 5.94325 11.5053 5.56 11.3014C5.56 11.3099 5.56 11.3209 5.56 11.3319C5.56 12.6807 6.55487 13.801 7.8595 14.059C7.62587 14.1208 7.37125 14.1504 7.107 14.1504C6.92325 14.1504 6.73775 14.1403 6.56362 14.103C6.9355 15.2022 7.99075 16.0103 9.2455 16.0365C8.269 16.7752 7.02912 17.2203 5.68688 17.2203C5.4515 17.2203 5.22575 17.2101 5 17.1822C6.27137 17.975 7.77813 18.4277 9.403 18.4277C14.6845 18.4277 17.572 14.197 17.572 10.5297C17.572 10.407 17.5676 10.2886 17.5615 10.171C18.1311 9.78004 18.6097 9.29181 19 8.72997Z" fill="white"/>
</svg>
