<svg width="24" height="25" viewBox="0 0 24 25" fill="none" xmlns="http://www.w3.org/2000/svg">
<circle cx="12" cy="12.4277" r="12" fill="#306BCF"/>
<path d="M19.1965 11.0113C19.227 10.123 19.0336 9.24132 18.6343 8.44817C18.3633 8.12273 17.9873 7.9031 17.5717 7.82757C15.8527 7.67088 14.1266 7.60666 12.4008 7.63518C10.6812 7.60537 8.96134 7.66751 7.24838 7.82136C6.90972 7.88325 6.59631 8.04282 6.34641 8.28061C5.79039 8.79571 5.72861 9.67697 5.66683 10.4217C5.5772 11.7607 5.5772 13.1042 5.66683 14.4432C5.68471 14.8624 5.74684 15.2784 5.85217 15.6844C5.92666 15.9979 6.07737 16.2879 6.2908 16.5284C6.54241 16.7788 6.86312 16.9475 7.21131 17.0125C8.54322 17.1777 9.88525 17.2461 11.227 17.2173C13.3892 17.2483 15.2859 17.2173 17.5284 17.0435C17.8852 16.9825 18.2149 16.8136 18.4737 16.5595C18.6466 16.3857 18.7758 16.1729 18.8505 15.9389C19.0715 15.2578 19.18 14.5451 19.1718 13.8288C19.1965 13.4813 19.1965 11.3836 19.1965 11.0113ZM11.0046 14.2012V10.3596L14.6619 12.2897C13.6364 12.8607 12.2834 13.5061 11.0046 14.2012Z" fill="white"/>
</svg>
